<ttFont>
    <TTGlyph name="A" xMin="1" yMin="0" xMax="628" yMax="670">
      <contour>
        <pt x="154" y="148" on="1"/>
        <pt x="143" y="118" on="0"/>
        <pt x="143" y="61" on="0"/>
        <pt x="164" y="31" on="0"/>
        <pt x="187" y="25" on="1"/>
        <pt x="222" y="16" on="0"/>
        <pt x="280" y="16" on="1"/>
        <pt x="297" y="16" on="1"/>
        <pt x="297" y="0" on="1"/>
        <pt x="1" y="0" on="1"/>
        <pt x="1" y="16" on="1"/>
        <pt x="54" y="16" on="0"/>
        <pt x="109" y="75" on="0"/>
        <pt x="130" y="138" on="1"/>
        <pt x="293" y="609" on="1"/>
        <pt x="300" y="631" on="0"/>
        <pt x="306" y="642" on="1"/>
        <pt x="320" y="670" on="0"/>
        <pt x="352" y="670" on="1"/>
        <pt x="355" y="670" on="1"/>
        <pt x="557" y="16" on="1"/>
        <pt x="628" y="16" on="1"/>
        <pt x="628" y="0" on="1"/>
        <pt x="372" y="0" on="1"/>
        <pt x="372" y="16" on="1"/>
        <pt x="446" y="16" on="1"/>
        <pt x="290" y="526" on="1"/>
        <pt x="284" y="526" on="1"/>
      </contour>
      <contour>
        <pt x="173" y="356" on="0"/>
        <pt x="274" y="302" on="0"/>
        <pt x="312" y="258" on="1"/>
        <pt x="388" y="173" on="0"/>
        <pt x="427" y="79" on="1"/>
        <pt x="443" y="83" on="1"/>
        <pt x="390" y="218" on="0"/>
        <pt x="215" y="374" on="0"/>
        <pt x="121" y="374" on="1"/>
        <pt x="69" y="374" on="0"/>
        <pt x="2" y="316" on="0"/>
        <pt x="2" y="243" on="0"/>
        <pt x="45" y="199" on="0"/>
        <pt x="100" y="199" on="0"/>
        <pt x="140" y="235" on="0"/>
        <pt x="140" y="291" on="0"/>
        <pt x="110" y="321" on="0"/>
        <pt x="88" y="321" on="1"/>
        <pt x="53" y="321" on="0"/>
        <pt x="41" y="290" on="1"/>
        <pt x="38" y="282" on="0"/>
        <pt x="31" y="282" on="1"/>
        <pt x="21" y="282" on="0"/>
        <pt x="23" y="292" on="1"/>
        <pt x="27" y="322" on="0"/>
        <pt x="87" y="356" on="0"/>
      </contour>
    </TTGlyph>
    <TTGlyph name="AE" xMin="-59" yMin="0" xMax="784" yMax="650">
      <contour>
        <pt x="309" y="16" on="1"/>
        <pt x="382" y="16" on="1"/>
        <pt x="382" y="331" on="1"/>
        <pt x="225" y="331" on="1"/>
        <pt x="120" y="144" on="1"/>
        <pt x="90" y="90" on="0"/>
        <pt x="90" y="35" on="0"/>
        <pt x="147" y="16" on="0"/>
        <pt x="217" y="16" on="1"/>
        <pt x="234" y="16" on="1"/>
        <pt x="234" y="0" on="1"/>
        <pt x="-59" y="0" on="1"/>
        <pt x="-59" y="16" on="1"/>
        <pt x="-2" y="16" on="0"/>
        <pt x="66" y="77" on="0"/>
        <pt x="100" y="138" on="1"/>
        <pt x="353" y="589" on="1"/>
        <pt x="373" y="628" on="0"/>
        <pt x="405" y="650" on="0"/>
        <pt x="421" y="650" on="1"/>
        <pt x="760" y="650" on="1"/>
        <pt x="760" y="442" on="1"/>
        <pt x="744" y="442" on="1"/>
        <pt x="744" y="563" on="0"/>
        <pt x="669" y="634" on="0"/>
        <pt x="546" y="634" on="1"/>
        <pt x="486" y="634" on="1"/>
        <pt x="486" y="347" on="1"/>
        <pt x="509" y="347" on="1"/>
        <pt x="581" y="347" on="0"/>
        <pt x="635" y="402" on="0"/>
        <pt x="635" y="475" on="1"/>
        <pt x="652" y="475" on="1"/>
        <pt x="652" y="200" on="1"/>
        <pt x="635" y="200" on="1"/>
        <pt x="635" y="274" on="0"/>
        <pt x="581" y="331" on="0"/>
        <pt x="509" y="331" on="1"/>
        <pt x="486" y="331" on="1"/>
        <pt x="486" y="16" on="1"/>
        <pt x="537" y="16" on="1"/>
        <pt x="613" y="16" on="0"/>
        <pt x="695" y="32" on="0"/>
        <pt x="747" y="86" on="0"/>
        <pt x="764" y="167" on="0"/>
        <pt x="768" y="245" on="1"/>
        <pt x="784" y="245" on="1"/>
        <pt x="774" y="0" on="1"/>
        <pt x="309" y="0" on="1"/>
      </contour>
      <contour>
        <pt x="382" y="595" on="1"/>
        <pt x="373" y="595" on="1"/>
        <pt x="234" y="347" on="1"/>
        <pt x="382" y="347" on="1"/>
      </contour>
    </TTGlyph>
    <TTGlyph name="Aacute" xMin="1" yMin="0" xMax="628" yMax="861">
      <contour>
        <pt x="410" y="834" on="1"/>
        <pt x="432" y="861" on="0"/>
        <pt x="452" y="861" on="1"/>
        <pt x="490" y="861" on="0"/>
        <pt x="490" y="828" on="1"/>
        <pt x="490" y="799" on="0"/>
        <pt x="456" y="784" on="1"/>
        <pt x="276" y="700" on="1"/>
        <pt x="269" y="715" on="1"/>
        <pt x="316" y="740" on="0"/>
        <pt x="355" y="774" on="0"/>
        <pt x="366" y="783" on="0"/>
        <pt x="386" y="806" on="0"/>
        <pt x="390" y="810" on="0"/>
        <pt x="400" y="822" on="1"/>
      </contour>
      <contour>
        <pt x="154" y="148" on="1"/>
        <pt x="143" y="118" on="0"/>
        <pt x="143" y="61" on="0"/>
        <pt x="164" y="31" on="0"/>
        <pt x="187" y="25" on="1"/>
        <pt x="222" y="16" on="0"/>
        <pt x="280" y="16" on="1"/>
        <pt x="297" y="16" on="1"/>
        <pt x="297" y="0" on="1"/>
        <pt x="1" y="0" on="1"/>
        <pt x="1" y="16" on="1"/>
        <pt x="54" y="16" on="0"/>
        <pt x="109" y="75" on="0"/>
        <pt x="130" y="138" on="1"/>
        <pt x="293" y="609" on="1"/>
        <pt x="300" y="631" on="0"/>
        <pt x="306" y="642" on="1"/>
        <pt x="320" y="670" on="0"/>
        <pt x="352" y="670" on="1"/>
        <pt x="355" y="670" on="1"/>
        <pt x="557" y="16" on="1"/>
        <pt x="628" y="16" on="1"/>
        <pt x="628" y="0" on="1"/>
        <pt x="372" y="0" on="1"/>
        <pt x="372" y="16" on="1"/>
        <pt x="446" y="16" on="1"/>
        <pt x="377" y="242" on="1"/>
        <pt x="186" y="242" on="1"/>
      </contour>
      <contour>
        <pt x="284" y="526" on="1"/>
        <pt x="192" y="258" on="1"/>
        <pt x="372" y="258" on="1"/>
        <pt x="290" y="526" on="1"/>
      </contour>
    </TTGlyph>
    <TTGlyph name="Acircumflex" xMin="1" yMin="0" xMax="628" yMax="861">
      <contour>
        <pt x="306" y="861" on="0"/>
        <pt x="354" y="861" on="0"/>
        <pt x="376" y="834" on="1"/>
        <pt x="380" y="826" on="0"/>
        <pt x="398" y="808" on="0"/>
        <pt x="413" y="790" on="0"/>
        <pt x="424" y="781" on="0"/>
        <pt x="442" y="764" on="0"/>
        <pt x="458" y="752" on="0"/>
        <pt x="469" y="744" on="1"/>
        <pt x="486" y="732" on="0"/>
        <pt x="517" y="715" on="1"/>
        <pt x="510" y="700" on="1"/>
        <pt x="330" y="784" on="1"/>
        <pt x="150" y="700" on="1"/>
        <pt x="143" y="715" on="1"/>
        <pt x="190" y="740" on="0"/>
        <pt x="229" y="774" on="0"/>
        <pt x="240" y="783" on="0"/>
        <pt x="260" y="806" on="0"/>
        <pt x="264" y="810" on="0"/>
        <pt x="274" y="822" on="1"/>
        <pt x="284" y="834" on="1"/>
      </contour>
      <contour>
        <pt x="154" y="148" on="1"/>
        <pt x="143" y="118" on="0"/>
        <pt x="143" y="61" on="0"/>
        <pt x="164" y="31" on="0"/>
        <pt x="187" y="25" on="1"/>
        <pt x="222" y="16" on="0"/>
        <pt x="280" y="16" on="1"/>
        <pt x="297" y="16" on="1"/>
        <pt x="297" y="0" on="1"/>
        <pt x="1" y="0" on="1"/>
        <pt x="1" y="16" on="1"/>
        <pt x="54" y="16" on="0"/>
        <pt x="109" y="75" on="0"/>
        <pt x="130" y="138" on="1"/>
        <pt x="293" y="609" on="1"/>
        <pt x="300" y="631" on="0"/>
        <pt x="306" y="642" on="1"/>
        <pt x="320" y="670" on="0"/>
        <pt x="352" y="670" on="1"/>
        <pt x="355" y="670" on="1"/>
        <pt x="557" y="16" on="1"/>
        <pt x="628" y="16" on="1"/>
        <pt x="628" y="0" on="1"/>
        <pt x="372" y="0" on="1"/>
        <pt x="372" y="16" on="1"/>
        <pt x="446" y="16" on="1"/>
        <pt x="377" y="242" on="1"/>
        <pt x="186" y="242" on="1"/>
      </contour>
      <contour>
        <pt x="284" y="526" on="1"/>
        <pt x="192" y="258" on="1"/>
        <pt x="372" y="258" on="1"/>
        <pt x="290" y="526" on="1"/>
      </contour>
    </TTGlyph>
    <TTGlyph name="Adieresis" xMin="1" yMin="0" xMax="628" yMax="852">
      <contour>
        <pt x="154" y="148" on="1"/>
        <pt x="143" y="118" on="0"/>
        <pt x="143" y="61" on="0"/>
        <pt x="164" y="31" on="0"/>
        <pt x="187" y="25" on="1"/>
        <pt x="222" y="16" on="0"/>
        <pt x="280" y="16" on="1"/>
        <pt x="297" y="16" on="1"/>
        <pt x="297" y="0" on="1"/>
        <pt x="1" y="0" on="1"/>
        <pt x="1" y="16" on="1"/>
        <pt x="54" y="16" on="0"/>
        <pt x="109" y="75" on="0"/>
        <pt x="130" y="138" on="1"/>
        <pt x="293" y="609" on="1"/>
        <pt x="300" y="631" on="0"/>
        <pt x="306" y="642" on="1"/>
        <pt x="320" y="670" on="0"/>
        <pt x="352" y="670" on="1"/>
        <pt x="355" y="670" on="1"/>
        <pt x="557" y="16" on="1"/>
        <pt x="628" y="16" on="1"/>
        <pt x="628" y="0" on="1"/>
        <pt x="372" y="0" on="1"/>
        <pt x="372" y="16" on="1"/>
        <pt x="446" y="16" on="1"/>
        <pt x="377" y="242" on="1"/>
        <pt x="186" y="242" on="1"/>
      </contour>
      <contour>
        <pt x="284" y="526" on="1"/>
        <pt x="192" y="258" on="1"/>
        <pt x="372" y="258" on="1"/>
        <pt x="290" y="526" on="1"/>
      </contour>
      <contour>
        <pt x="359" y="767" on="0"/>
        <pt x="359" y="817" on="0"/>
        <pt x="395" y="852" on="0"/>
        <pt x="445" y="852" on="0"/>
        <pt x="480" y="817" on="0"/>
        <pt x="480" y="767" on="0"/>
        <pt x="445" y="731" on="0"/>
        <pt x="395" y="731" on="0"/>
      </contour>
      <contour>
        <pt x="180" y="767" on="0"/>
        <pt x="180" y="817" on="0"/>
        <pt x="215" y="852" on="0"/>
        <pt x="265" y="852" on="0"/>
        <pt x="301" y="817" on="0"/>
        <pt x="301" y="767" on="0"/>
        <pt x="265" y="731" on="0"/>
        <pt x="215" y="731" on="0"/>
      </contour>
    </TTGlyph>
    <TTGlyph name="Agrave" xMin="1" yMin="0" xMax="628" yMax="861">
      <contour>
        <pt x="154" y="148" on="1"/>
        <pt x="143" y="118" on="0"/>
        <pt x="143" y="61" on="0"/>
        <pt x="164" y="31" on="0"/>
        <pt x="187" y="25" on="1"/>
        <pt x="222" y="16" on="0"/>
        <pt x="280" y="16" on="1"/>
        <pt x="297" y="16" on="1"/>
        <pt x="297" y="0" on="1"/>
        <pt x="1" y="0" on="1"/>
        <pt x="1" y="16" on="1"/>
        <pt x="54" y="16" on="0"/>
        <pt x="109" y="75" on="0"/>
        <pt x="130" y="138" on="1"/>
        <pt x="293" y="609" on="1"/>
        <pt x="300" y="631" on="0"/>
        <pt x="306" y="642" on="1"/>
        <pt x="320" y="670" on="0"/>
        <pt x="352" y="670" on="1"/>
        <pt x="355" y="670" on="1"/>
        <pt x="557" y="16" on="1"/>
        <pt x="628" y="16" on="1"/>
        <pt x="628" y="0" on="1"/>
        <pt x="372" y="0" on="1"/>
        <pt x="372" y="16" on="1"/>
        <pt x="446" y="16" on="1"/>
        <pt x="377" y="242" on="1"/>
        <pt x="186" y="242" on="1"/>
      </contour>
      <contour>
        <pt x="284" y="526" on="1"/>
        <pt x="192" y="258" on="1"/>
        <pt x="372" y="258" on="1"/>
        <pt x="290" y="526" on="1"/>
      </contour>
      <contour>
        <pt x="161" y="828" on="1"/>
        <pt x="161" y="843" on="0"/>
        <pt x="180" y="861" on="0"/>
        <pt x="218" y="861" on="0"/>
        <pt x="241" y="834" on="1"/>
        <pt x="245" y="826" on="0"/>
        <pt x="263" y="808" on="0"/>
        <pt x="278" y="790" on="0"/>
        <pt x="289" y="781" on="0"/>
        <pt x="307" y="764" on="0"/>
        <pt x="323" y="752" on="0"/>
        <pt x="334" y="744" on="1"/>
        <pt x="351" y="732" on="0"/>
        <pt x="382" y="715" on="1"/>
        <pt x="375" y="700" on="1"/>
        <pt x="195" y="784" on="1"/>
        <pt x="161" y="799" on="0"/>
      </contour>
    </TTGlyph>
    <TTGlyph name="Aogonek" xMin="1" yMin="-215" xMax="628" yMax="670">
      <contour>
        <pt x="451" y="-161" on="1"/>
        <pt x="446" y="-141" on="1"/>
        <pt x="446" y="-120" on="0"/>
        <pt x="474" y="-96" on="0"/>
        <pt x="518" y="-96" on="0"/>
        <pt x="546" y="-128" on="0"/>
        <pt x="546" y="-180" on="0"/>
        <pt x="508" y="-215" on="0"/>
        <pt x="446" y="-215" on="0"/>
        <pt x="406" y="-166" on="0"/>
        <pt x="406" y="-132" on="1"/>
        <pt x="406" y="-47" on="0"/>
        <pt x="497" y="0" on="1"/>
        <pt x="372" y="0" on="1"/>
        <pt x="372" y="16" on="1"/>
        <pt x="446" y="16" on="1"/>
        <pt x="377" y="242" on="1"/>
        <pt x="186" y="242" on="1"/>
        <pt x="154" y="148" on="1"/>
        <pt x="143" y="118" on="0"/>
        <pt x="143" y="61" on="0"/>
        <pt x="164" y="31" on="0"/>
        <pt x="187" y="25" on="1"/>
        <pt x="222" y="16" on="0"/>
        <pt x="280" y="16" on="1"/>
        <pt x="297" y="16" on="1"/>
        <pt x="297" y="0" on="1"/>
        <pt x="1" y="0" on="1"/>
        <pt x="1" y="16" on="1"/>
        <pt x="54" y="16" on="0"/>
        <pt x="109" y="75" on="0"/>
        <pt x="130" y="138" on="1"/>
        <pt x="293" y="609" on="1"/>
        <pt x="300" y="631" on="0"/>
        <pt x="306" y="642" on="1"/>
        <pt x="320" y="670" on="0"/>
        <pt x="352" y="670" on="1"/>
        <pt x="355" y="670" on="1"/>
        <pt x="557" y="16" on="1"/>
        <pt x="628" y="16" on="1"/>
        <pt x="628" y="0" on="1"/>
        <pt x="548" y="0" on="1"/>
        <pt x="500" y="-14" on="0"/>
        <pt x="468" y="-41" on="1"/>
        <pt x="425" y="-78" on="0"/>
        <pt x="425" y="-169" on="0"/>
        <pt x="442" y="-169" on="1"/>
        <pt x="451" y="-169" on="0"/>
      </contour>
      <contour>
        <pt x="284" y="526" on="1"/>
        <pt x="192" y="258" on="1"/>
        <pt x="372" y="258" on="1"/>
        <pt x="290" y="526" on="1"/>
      </contour>
    </TTGlyph>
    <TTGlyph name="Aring" xMin="1" yMin="0" xMax="628" yMax="872">
      <contour>
        <pt x="267" y="829" on="0"/>
        <pt x="267" y="795" on="0"/>
        <pt x="292" y="769" on="0"/>
        <pt x="325" y="769" on="0"/>
        <pt x="350" y="795" on="0"/>
        <pt x="350" y="829" on="0"/>
        <pt x="325" y="854" on="0"/>
        <pt x="292" y="854" on="0"/>
      </contour>
      <contour>
        <pt x="283" y="751" on="0"/>
        <pt x="249" y="786" on="0"/>
        <pt x="249" y="837" on="0"/>
        <pt x="283" y="872" on="0"/>
        <pt x="333" y="872" on="0"/>
        <pt x="368" y="837" on="0"/>
        <pt x="368" y="786" on="0"/>
        <pt x="333" y="751" on="0"/>
      </contour>
      <contour>
        <pt x="154" y="148" on="1"/>
        <pt x="143" y="118" on="0"/>
        <pt x="143" y="61" on="0"/>
        <pt x="164" y="31" on="0"/>
        <pt x="187" y="25" on="1"/>
        <pt x="222" y="16" on="0"/>
        <pt x="280" y="16" on="1"/>
        <pt x="297" y="16" on="1"/>
        <pt x="297" y="0" on="1"/>
        <pt x="1" y="0" on="1"/>
        <pt x="1" y="16" on="1"/>
        <pt x="54" y="16" on="0"/>
        <pt x="109" y="75" on="0"/>
        <pt x="130" y="138" on="1"/>
        <pt x="293" y="609" on="1"/>
        <pt x="300" y="631" on="0"/>
        <pt x="306" y="642" on="1"/>
        <pt x="320" y="670" on="0"/>
        <pt x="352" y="670" on="1"/>
        <pt x="355" y="670" on="1"/>
        <pt x="557" y="16" on="1"/>
        <pt x="628" y="16" on="1"/>
        <pt x="628" y="0" on="1"/>
        <pt x="372" y="0" on="1"/>
        <pt x="372" y="16" on="1"/>
        <pt x="446" y="16" on="1"/>
        <pt x="377" y="242" on="1"/>
        <pt x="186" y="242" on="1"/>
      </contour>
      <contour>
        <pt x="284" y="526" on="1"/>
        <pt x="192" y="258" on="1"/>
        <pt x="372" y="258" on="1"/>
        <pt x="290" y="526" on="1"/>
      </contour>
    </TTGlyph>
    <TTGlyph name="Atilde" xMin="1" yMin="0" xMax="628" yMax="852">
      <contour>
        <pt x="154" y="148" on="1"/>
        <pt x="143" y="118" on="0"/>
        <pt x="143" y="61" on="0"/>
        <pt x="164" y="31" on="0"/>
        <pt x="187" y="25" on="1"/>
        <pt x="222" y="16" on="0"/>
        <pt x="280" y="16" on="1"/>
        <pt x="297" y="16" on="1"/>
        <pt x="297" y="0" on="1"/>
        <pt x="1" y="0" on="1"/>
        <pt x="1" y="16" on="1"/>
        <pt x="54" y="16" on="0"/>
        <pt x="109" y="75" on="0"/>
        <pt x="130" y="138" on="1"/>
        <pt x="293" y="609" on="1"/>
        <pt x="300" y="631" on="0"/>
        <pt x="306" y="642" on="1"/>
        <pt x="320" y="670" on="0"/>
        <pt x="352" y="670" on="1"/>
        <pt x="355" y="670" on="1"/>
        <pt x="557" y="16" on="1"/>
        <pt x="628" y="16" on="1"/>
        <pt x="628" y="0" on="1"/>
        <pt x="372" y="0" on="1"/>
        <pt x="372" y="16" on="1"/>
        <pt x="446" y="16" on="1"/>
        <pt x="377" y="242" on="1"/>
        <pt x="186" y="242" on="1"/>
      </contour>
      <contour>
        <pt x="284" y="526" on="1"/>
        <pt x="192" y="258" on="1"/>
        <pt x="372" y="258" on="1"/>
        <pt x="290" y="526" on="1"/>
      </contour>
      <contour>
        <pt x="184" y="789" on="0"/>
        <pt x="224" y="852" on="0"/>
        <pt x="285" y="852" on="0"/>
        <pt x="392" y="800" on="0"/>
        <pt x="412" y="800" on="1"/>
        <pt x="462" y="800" on="0"/>
        <pt x="462" y="851" on="1"/>
        <pt x="477" y="851" on="1"/>
        <pt x="477" y="804" on="0"/>
        <pt x="437" y="741" on="0"/>
        <pt x="376" y="741" on="0"/>
        <pt x="268" y="793" on="0"/>
        <pt x="249" y="793" on="1"/>
        <pt x="199" y="793" on="0"/>
        <pt x="199" y="742" on="1"/>
        <pt x="184" y="742" on="1"/>
      </contour>
    </TTGlyph>
    <TTGlyph name="B" xMin="52" yMin="0" xMax="569" yMax="670">
      <contour>
        <pt x="369" y="16" on="0"/>
        <pt x="457" y="98" on="0"/>
        <pt x="457" y="276" on="0"/>
        <pt x="357" y="344" on="0"/>
        <pt x="252" y="344" on="1"/>
        <pt x="229" y="344" on="1"/>
        <pt x="229" y="16" on="1"/>
        <pt x="276" y="16" on="1"/>
      </contour>
      <contour>
        <pt x="433" y="527" on="1"/>
        <pt x="433" y="649" on="0"/>
        <pt x="288" y="649" on="1"/>
        <pt x="217" y="649" on="0"/>
        <pt x="169" y="612" on="1"/>
        <pt x="154" y="601" on="0"/>
        <pt x="137" y="569" on="0"/>
        <pt x="137" y="550" on="0"/>
        <pt x="153" y="550" on="0"/>
        <pt x="156" y="558" on="1"/>
        <pt x="168" y="589" on="0"/>
        <pt x="203" y="589" on="1"/>
        <pt x="225" y="589" on="0"/>
        <pt x="256" y="557" on="0"/>
        <pt x="256" y="501" on="0"/>
        <pt x="216" y="467" on="0"/>
        <pt x="160" y="467" on="0"/>
        <pt x="117" y="511" on="0"/>
        <pt x="117" y="545" on="1"/>
        <pt x="117" y="599" on="0"/>
        <pt x="221" y="670" on="0"/>
        <pt x="417" y="670" on="0"/>
        <pt x="545" y="600" on="0"/>
        <pt x="545" y="461" on="0"/>
        <pt x="451" y="373" on="0"/>
        <pt x="374" y="358" on="1"/>
        <pt x="374" y="352" on="1"/>
        <pt x="461" y="350" on="0"/>
        <pt x="569" y="272" on="0"/>
        <pt x="569" y="195" on="1"/>
        <pt x="569" y="0" on="0"/>
        <pt x="291" y="0" on="1"/>
        <pt x="52" y="0" on="1"/>
        <pt x="52" y="16" on="1"/>
        <pt x="125" y="16" on="1"/>
        <pt x="125" y="385" on="1"/>
        <pt x="184" y="368" on="0"/>
        <pt x="347" y="368" on="0"/>
        <pt x="433" y="457" on="0"/>
      </contour>
    </TTGlyph>
    <TTGlyph name="C" xMin="52" yMin="-20" xMax="543" yMax="670">
      <contour>
        <pt x="336" y="650" on="1"/>
        <pt x="241" y="650" on="0"/>
        <pt x="206" y="569" on="1"/>
        <pt x="177" y="500" on="0"/>
        <pt x="174" y="388" on="1"/>
        <pt x="174" y="362" on="0"/>
        <pt x="174" y="256" on="0"/>
        <pt x="186" y="159" on="0"/>
        <pt x="218" y="59" on="0"/>
        <pt x="288" y="4" on="0"/>
        <pt x="340" y="4" on="1"/>
        <pt x="424" y="4" on="0"/>
        <pt x="518" y="116" on="0"/>
        <pt x="525" y="207" on="1"/>
        <pt x="543" y="205" on="1"/>
        <pt x="536" y="102" on="0"/>
        <pt x="420" y="-20" on="0"/>
        <pt x="322" y="-20" on="1"/>
        <pt x="194" y="-20" on="0"/>
        <pt x="52" y="183" on="0"/>
        <pt x="52" y="328" on="1"/>
        <pt x="52" y="418" on="0"/>
        <pt x="114" y="571" on="0"/>
        <pt x="242" y="670" on="0"/>
        <pt x="405" y="670" on="0"/>
        <pt x="512" y="598" on="0"/>
        <pt x="512" y="545" on="1"/>
        <pt x="512" y="511" on="0"/>
        <pt x="469" y="467" on="0"/>
        <pt x="413" y="467" on="0"/>
        <pt x="373" y="501" on="0"/>
        <pt x="373" y="557" on="0"/>
        <pt x="404" y="589" on="0"/>
        <pt x="426" y="589" on="1"/>
        <pt x="461" y="589" on="0"/>
        <pt x="473" y="558" on="1"/>
        <pt x="476" y="550" on="0"/>
        <pt x="483" y="550" on="1"/>
        <pt x="494" y="550" on="0"/>
        <pt x="492" y="560" on="1"/>
        <pt x="487" y="595" on="0"/>
        <pt x="400" y="650" on="0"/>
      </contour>
    </TTGlyph>
    <TTGlyph name="Ccedilla" xMin="52" yMin="-235" xMax="543" yMax="670">
      <contour>
        <pt x="174" y="388" on="1"/>
        <pt x="174" y="362" on="0"/>
        <pt x="174" y="256" on="0"/>
        <pt x="186" y="158" on="0"/>
        <pt x="218" y="58" on="0"/>
        <pt x="288" y="3" on="0"/>
        <pt x="340" y="3" on="1"/>
        <pt x="424" y="3" on="0"/>
        <pt x="518" y="115" on="0"/>
        <pt x="525" y="207" on="1"/>
        <pt x="543" y="205" on="1"/>
        <pt x="536" y="102" on="0"/>
        <pt x="420" y="-20" on="0"/>
        <pt x="322" y="-20" on="1"/>
        <pt x="305" y="-20" on="0"/>
        <pt x="275" y="-16" on="1"/>
        <pt x="254" y="-73" on="1"/>
        <pt x="288" y="-51" on="0"/>
        <pt x="356" y="-51" on="0"/>
        <pt x="416" y="-99" on="0"/>
        <pt x="416" y="-188" on="0"/>
        <pt x="367" y="-235" on="0"/>
        <pt x="299" y="-235" on="0"/>
        <pt x="258" y="-197" on="0"/>
        <pt x="258" y="-145" on="0"/>
        <pt x="289" y="-112" on="0"/>
        <pt x="334" y="-112" on="0"/>
        <pt x="365" y="-139" on="0"/>
        <pt x="365" y="-160" on="1"/>
        <pt x="365" y="-193" on="0"/>
        <pt x="339" y="-199" on="1"/>
        <pt x="330" y="-200" on="0"/>
        <pt x="330" y="-217" on="0"/>
        <pt x="340" y="-217" on="1"/>
        <pt x="363" y="-217" on="0"/>
        <pt x="398" y="-179" on="0"/>
        <pt x="398" y="-111" on="0"/>
        <pt x="349" y="-69" on="0"/>
        <pt x="298" y="-69" on="0"/>
        <pt x="252" y="-94" on="0"/>
        <pt x="240" y="-112" on="1"/>
        <pt x="226" y="-95" on="1"/>
        <pt x="257" y="-12" on="1"/>
        <pt x="191" y="5" on="0"/>
        <pt x="144" y="56" on="1"/>
        <pt x="52" y="156" on="0"/>
        <pt x="52" y="328" on="1"/>
        <pt x="52" y="468" on="0"/>
        <pt x="201" y="670" on="0"/>
        <pt x="327" y="670" on="1"/>
        <pt x="372" y="670" on="0"/>
        <pt x="470" y="636" on="0"/>
        <pt x="479" y="636" on="1"/>
        <pt x="508" y="636" on="0"/>
        <pt x="513" y="670" on="1"/>
        <pt x="525" y="670" on="1"/>
        <pt x="525" y="436" on="1"/>
        <pt x="509" y="436" on="1"/>
        <pt x="494" y="535" on="0"/>
        <pt x="416" y="651" on="0"/>
        <pt x="336" y="651" on="1"/>
        <pt x="241" y="651" on="0"/>
        <pt x="206" y="570" on="1"/>
        <pt x="177" y="501" on="0"/>
      </contour>
    </TTGlyph>
    <TTGlyph name="D" xMin="52" yMin="0" xMax="635" yMax="670">
      <contour>
        <pt x="125" y="440" on="1"/>
        <pt x="149" y="420" on="0"/>
        <pt x="206" y="420" on="0"/>
        <pt x="229" y="427" on="1"/>
        <pt x="229" y="16" on="1"/>
        <pt x="290" y="16" on="1"/>
        <pt x="401" y="16" on="0"/>
        <pt x="453" y="72" on="1"/>
        <pt x="498" y="119" on="0"/>
        <pt x="508" y="228" on="1"/>
        <pt x="513" y="273" on="0"/>
        <pt x="513" y="413" on="0"/>
        <pt x="493" y="520" on="0"/>
        <pt x="470" y="563" on="1"/>
        <pt x="422" y="649" on="0"/>
        <pt x="299" y="649" on="1"/>
        <pt x="212" y="649" on="0"/>
        <pt x="165" y="612" on="1"/>
        <pt x="150" y="601" on="0"/>
        <pt x="133" y="569" on="0"/>
        <pt x="133" y="550" on="0"/>
        <pt x="149" y="550" on="0"/>
        <pt x="152" y="558" on="1"/>
        <pt x="164" y="589" on="0"/>
        <pt x="199" y="589" on="1"/>
        <pt x="221" y="589" on="0"/>
        <pt x="252" y="557" on="0"/>
        <pt x="252" y="501" on="0"/>
        <pt x="212" y="467" on="0"/>
        <pt x="156" y="467" on="0"/>
        <pt x="113" y="511" on="0"/>
        <pt x="113" y="545" on="1"/>
        <pt x="113" y="599" on="0"/>
        <pt x="217" y="670" on="0"/>
        <pt x="303" y="670" on="1"/>
        <pt x="461" y="670" on="0"/>
        <pt x="635" y="513" on="0"/>
        <pt x="635" y="348" on="1"/>
        <pt x="635" y="0" on="0"/>
        <pt x="311" y="0" on="1"/>
        <pt x="52" y="0" on="1"/>
        <pt x="52" y="16" on="1"/>
        <pt x="125" y="16" on="1"/>
      </contour>
    </TTGlyph>
    <TTGlyph name="E" xMin="99" yMin="-20" xMax="520" yMax="670">
      <contour>
        <pt x="206" y="156" on="1"/>
        <pt x="206" y="85" on="0"/>
        <pt x="291" y="8" on="0"/>
        <pt x="419" y="8" on="0"/>
        <pt x="502" y="69" on="0"/>
        <pt x="502" y="126" on="1"/>
        <pt x="502" y="139" on="0"/>
        <pt x="490" y="165" on="0"/>
        <pt x="474" y="165" on="0"/>
        <pt x="474" y="155" on="1"/>
        <pt x="474" y="154" on="0"/>
        <pt x="480" y="140" on="0"/>
        <pt x="480" y="108" on="0"/>
        <pt x="452" y="79" on="0"/>
        <pt x="402" y="79" on="0"/>
        <pt x="367" y="112" on="0"/>
        <pt x="367" y="170" on="0"/>
        <pt x="408" y="211" on="0"/>
        <pt x="474" y="211" on="0"/>
        <pt x="520" y="162" on="0"/>
        <pt x="520" y="125" on="1"/>
        <pt x="520" y="63" on="0"/>
        <pt x="423" y="-20" on="0"/>
        <pt x="213" y="-20" on="0"/>
        <pt x="99" y="67" on="0"/>
        <pt x="99" y="216" on="0"/>
        <pt x="191" y="318" on="0"/>
        <pt x="277" y="337" on="1"/>
        <pt x="274" y="346" on="1"/>
        <pt x="202" y="360" on="0"/>
        <pt x="128" y="441" on="0"/>
        <pt x="128" y="496" on="1"/>
        <pt x="128" y="572" on="0"/>
        <pt x="245" y="670" on="0"/>
        <pt x="334" y="670" on="1"/>
        <pt x="394" y="670" on="0"/>
        <pt x="483" y="620" on="0"/>
        <pt x="483" y="564" on="1"/>
        <pt x="483" y="527" on="0"/>
        <pt x="440" y="484" on="0"/>
        <pt x="384" y="484" on="0"/>
        <pt x="342" y="518" on="0"/>
        <pt x="342" y="574" on="0"/>
        <pt x="375" y="608" on="0"/>
        <pt x="400" y="608" on="1"/>
        <pt x="432" y="608" on="0"/>
        <pt x="444" y="578" on="1"/>
        <pt x="446" y="571" on="0"/>
        <pt x="450" y="566" on="0"/>
        <pt x="455" y="566" on="1"/>
        <pt x="464" y="566" on="0"/>
        <pt x="464" y="575" on="1"/>
        <pt x="464" y="606" on="0"/>
        <pt x="400" y="646" on="0"/>
        <pt x="306" y="646" on="0"/>
        <pt x="228" y="569" on="0"/>
        <pt x="228" y="435" on="0"/>
        <pt x="296" y="363" on="0"/>
        <pt x="351" y="363" on="1"/>
        <pt x="377" y="363" on="0"/>
        <pt x="399" y="372" on="1"/>
        <pt x="405" y="354" on="1"/>
        <pt x="206" y="296" on="0"/>
      </contour>
    </TTGlyph>
    <TTGlyph name="Eacute" xMin="52" yMin="0" xMax="557" yMax="861">
      <contour>
        <pt x="424" y="834" on="1"/>
        <pt x="446" y="861" on="0"/>
        <pt x="466" y="861" on="1"/>
        <pt x="504" y="861" on="0"/>
        <pt x="504" y="828" on="1"/>
        <pt x="504" y="799" on="0"/>
        <pt x="470" y="784" on="1"/>
        <pt x="290" y="700" on="1"/>
        <pt x="283" y="715" on="1"/>
        <pt x="330" y="740" on="0"/>
        <pt x="369" y="774" on="0"/>
        <pt x="380" y="783" on="0"/>
        <pt x="400" y="806" on="0"/>
        <pt x="404" y="810" on="0"/>
        <pt x="414" y="822" on="1"/>
      </contour>
      <contour>
        <pt x="52" y="0" on="1"/>
        <pt x="52" y="16" on="1"/>
        <pt x="125" y="16" on="1"/>
        <pt x="125" y="634" on="1"/>
        <pt x="52" y="634" on="1"/>
        <pt x="52" y="650" on="1"/>
        <pt x="533" y="650" on="1"/>
        <pt x="533" y="442" on="1"/>
        <pt x="517" y="442" on="1"/>
        <pt x="517" y="563" on="0"/>
        <pt x="442" y="634" on="0"/>
        <pt x="319" y="634" on="1"/>
        <pt x="229" y="634" on="1"/>
        <pt x="229" y="347" on="1"/>
        <pt x="282" y="347" on="1"/>
        <pt x="354" y="347" on="0"/>
        <pt x="408" y="402" on="0"/>
        <pt x="408" y="475" on="1"/>
        <pt x="425" y="475" on="1"/>
        <pt x="425" y="200" on="1"/>
        <pt x="408" y="200" on="1"/>
        <pt x="408" y="274" on="0"/>
        <pt x="354" y="331" on="0"/>
        <pt x="282" y="331" on="1"/>
        <pt x="229" y="331" on="1"/>
        <pt x="229" y="16" on="1"/>
        <pt x="310" y="16" on="1"/>
        <pt x="386" y="16" on="0"/>
        <pt x="468" y="32" on="0"/>
        <pt x="520" y="86" on="0"/>
        <pt x="537" y="167" on="0"/>
        <pt x="541" y="245" on="1"/>
        <pt x="557" y="245" on="1"/>
        <pt x="547" y="0" on="1"/>
      </contour>
    </TTGlyph>
    <TTGlyph name="Ecircumflex" xMin="52" yMin="0" xMax="557" yMax="861">
      <contour>
        <pt x="52" y="0" on="1"/>
        <pt x="52" y="16" on="1"/>
        <pt x="125" y="16" on="1"/>
        <pt x="125" y="634" on="1"/>
        <pt x="52" y="634" on="1"/>
        <pt x="52" y="650" on="1"/>
        <pt x="533" y="650" on="1"/>
        <pt x="533" y="442" on="1"/>
        <pt x="517" y="442" on="1"/>
        <pt x="517" y="563" on="0"/>
        <pt x="442" y="634" on="0"/>
        <pt x="319" y="634" on="1"/>
        <pt x="229" y="634" on="1"/>
        <pt x="229" y="347" on="1"/>
        <pt x="282" y="347" on="1"/>
        <pt x="354" y="347" on="0"/>
        <pt x="408" y="402" on="0"/>
        <pt x="408" y="475" on="1"/>
        <pt x="425" y="475" on="1"/>
        <pt x="425" y="200" on="1"/>
        <pt x="408" y="200" on="1"/>
        <pt x="408" y="274" on="0"/>
        <pt x="354" y="331" on="0"/>
        <pt x="282" y="331" on="1"/>
        <pt x="229" y="331" on="1"/>
        <pt x="229" y="16" on="1"/>
        <pt x="310" y="16" on="1"/>
        <pt x="386" y="16" on="0"/>
        <pt x="468" y="32" on="0"/>
        <pt x="520" y="86" on="0"/>
        <pt x="537" y="167" on="0"/>
        <pt x="541" y="245" on="1"/>
        <pt x="557" y="245" on="1"/>
        <pt x="547" y="0" on="1"/>
      </contour>
      <contour>
        <pt x="304" y="861" on="0"/>
        <pt x="350" y="861" on="0"/>
        <pt x="373" y="834" on="1"/>
        <pt x="377" y="826" on="0"/>
        <pt x="395" y="808" on="0"/>
        <pt x="410" y="790" on="0"/>
        <pt x="421" y="781" on="0"/>
        <pt x="439" y="764" on="0"/>
        <pt x="455" y="752" on="0"/>
        <pt x="466" y="744" on="1"/>
        <pt x="483" y="732" on="0"/>
        <pt x="514" y="715" on="1"/>
        <pt x="507" y="700" on="1"/>
        <pt x="327" y="784" on="1"/>
        <pt x="147" y="700" on="1"/>
        <pt x="140" y="715" on="1"/>
        <pt x="187" y="740" on="0"/>
        <pt x="226" y="774" on="0"/>
        <pt x="237" y="783" on="0"/>
        <pt x="257" y="806" on="0"/>
        <pt x="261" y="810" on="0"/>
        <pt x="271" y="822" on="1"/>
        <pt x="281" y="834" on="1"/>
      </contour>
    </TTGlyph>
    <TTGlyph name="Edieresis" xMin="52" yMin="0" xMax="557" yMax="852">
      <contour>
        <pt x="52" y="0" on="1"/>
        <pt x="52" y="16" on="1"/>
        <pt x="125" y="16" on="1"/>
        <pt x="125" y="634" on="1"/>
        <pt x="52" y="634" on="1"/>
        <pt x="52" y="650" on="1"/>
        <pt x="533" y="650" on="1"/>
        <pt x="533" y="442" on="1"/>
        <pt x="517" y="442" on="1"/>
        <pt x="517" y="563" on="0"/>
        <pt x="442" y="634" on="0"/>
        <pt x="319" y="634" on="1"/>
        <pt x="229" y="634" on="1"/>
        <pt x="229" y="347" on="1"/>
        <pt x="282" y="347" on="1"/>
        <pt x="354" y="347" on="0"/>
        <pt x="408" y="402" on="0"/>
        <pt x="408" y="475" on="1"/>
        <pt x="425" y="475" on="1"/>
        <pt x="425" y="200" on="1"/>
        <pt x="408" y="200" on="1"/>
        <pt x="408" y="274" on="0"/>
        <pt x="354" y="331" on="0"/>
        <pt x="282" y="331" on="1"/>
        <pt x="229" y="331" on="1"/>
        <pt x="229" y="16" on="1"/>
        <pt x="310" y="16" on="1"/>
        <pt x="386" y="16" on="0"/>
        <pt x="468" y="32" on="0"/>
        <pt x="520" y="86" on="0"/>
        <pt x="537" y="167" on="0"/>
        <pt x="541" y="245" on="1"/>
        <pt x="557" y="245" on="1"/>
        <pt x="547" y="0" on="1"/>
      </contour>
      <contour>
        <pt x="340" y="767" on="0"/>
        <pt x="340" y="817" on="0"/>
        <pt x="376" y="852" on="0"/>
        <pt x="426" y="852" on="0"/>
        <pt x="461" y="817" on="0"/>
        <pt x="461" y="767" on="0"/>
        <pt x="426" y="731" on="0"/>
        <pt x="376" y="731" on="0"/>
      </contour>
      <contour>
        <pt x="161" y="767" on="0"/>
        <pt x="161" y="817" on="0"/>
        <pt x="196" y="852" on="0"/>
        <pt x="246" y="852" on="0"/>
        <pt x="282" y="817" on="0"/>
        <pt x="282" y="767" on="0"/>
        <pt x="246" y="731" on="0"/>
        <pt x="196" y="731" on="0"/>
      </contour>
    </TTGlyph>
    <TTGlyph name="Egrave" xMin="52" yMin="0" xMax="557" yMax="861">
      <contour>
        <pt x="52" y="0" on="1"/>
        <pt x="52" y="16" on="1"/>
        <pt x="125" y="16" on="1"/>
        <pt x="125" y="634" on="1"/>
        <pt x="52" y="634" on="1"/>
        <pt x="52" y="650" on="1"/>
        <pt x="533" y="650" on="1"/>
        <pt x="533" y="442" on="1"/>
        <pt x="517" y="442" on="1"/>
        <pt x="517" y="563" on="0"/>
        <pt x="442" y="634" on="0"/>
        <pt x="319" y="634" on="1"/>
        <pt x="229" y="634" on="1"/>
        <pt x="229" y="347" on="1"/>
        <pt x="282" y="347" on="1"/>
        <pt x="354" y="347" on="0"/>
        <pt x="408" y="402" on="0"/>
        <pt x="408" y="475" on="1"/>
        <pt x="425" y="475" on="1"/>
        <pt x="425" y="200" on="1"/>
        <pt x="408" y="200" on="1"/>
        <pt x="408" y="274" on="0"/>
        <pt x="354" y="331" on="0"/>
        <pt x="282" y="331" on="1"/>
        <pt x="229" y="331" on="1"/>
        <pt x="229" y="16" on="1"/>
        <pt x="310" y="16" on="1"/>
        <pt x="386" y="16" on="0"/>
        <pt x="468" y="32" on="0"/>
        <pt x="520" y="86" on="0"/>
        <pt x="537" y="167" on="0"/>
        <pt x="541" y="245" on="1"/>
        <pt x="557" y="245" on="1"/>
        <pt x="547" y="0" on="1"/>
      </contour>
      <contour>
        <pt x="230" y="828" on="1"/>
        <pt x="230" y="843" on="0"/>
        <pt x="249" y="861" on="0"/>
        <pt x="288" y="861" on="0"/>
        <pt x="310" y="834" on="1"/>
        <pt x="314" y="826" on="0"/>
        <pt x="332" y="808" on="0"/>
        <pt x="347" y="790" on="0"/>
        <pt x="358" y="781" on="0"/>
        <pt x="376" y="764" on="0"/>
        <pt x="392" y="752" on="0"/>
        <pt x="403" y="744" on="1"/>
        <pt x="420" y="732" on="0"/>
        <pt x="451" y="715" on="1"/>
        <pt x="444" y="700" on="1"/>
        <pt x="264" y="784" on="1"/>
        <pt x="230" y="799" on="0"/>
      </contour>
    </TTGlyph>
    <TTGlyph name="Eogonek" xMin="52" yMin="-215" xMax="557" yMax="650">
      <contour>
        <pt x="450" y="-161" on="1"/>
        <pt x="445" y="-141" on="1"/>
        <pt x="445" y="-120" on="0"/>
        <pt x="473" y="-96" on="0"/>
        <pt x="517" y="-96" on="0"/>
        <pt x="545" y="-128" on="0"/>
        <pt x="545" y="-180" on="0"/>
        <pt x="507" y="-215" on="0"/>
        <pt x="445" y="-215" on="0"/>
        <pt x="405" y="-166" on="0"/>
        <pt x="405" y="-132" on="1"/>
        <pt x="405" y="-47" on="0"/>
        <pt x="496" y="0" on="1"/>
        <pt x="52" y="0" on="1"/>
        <pt x="52" y="16" on="1"/>
        <pt x="125" y="16" on="1"/>
        <pt x="125" y="634" on="1"/>
        <pt x="52" y="634" on="1"/>
        <pt x="52" y="650" on="1"/>
        <pt x="533" y="650" on="1"/>
        <pt x="533" y="442" on="1"/>
        <pt x="517" y="442" on="1"/>
        <pt x="517" y="563" on="0"/>
        <pt x="442" y="634" on="0"/>
        <pt x="319" y="634" on="1"/>
        <pt x="229" y="634" on="1"/>
        <pt x="229" y="347" on="1"/>
        <pt x="282" y="347" on="1"/>
        <pt x="354" y="347" on="0"/>
        <pt x="408" y="402" on="0"/>
        <pt x="408" y="475" on="1"/>
        <pt x="425" y="475" on="1"/>
        <pt x="425" y="200" on="1"/>
        <pt x="408" y="200" on="1"/>
        <pt x="408" y="274" on="0"/>
        <pt x="354" y="331" on="0"/>
        <pt x="282" y="331" on="1"/>
        <pt x="229" y="331" on="1"/>
        <pt x="229" y="16" on="1"/>
        <pt x="310" y="16" on="1"/>
        <pt x="386" y="16" on="0"/>
        <pt x="468" y="32" on="0"/>
        <pt x="520" y="86" on="0"/>
        <pt x="537" y="167" on="0"/>
        <pt x="541" y="245" on="1"/>
        <pt x="557" y="245" on="1"/>
        <pt x="547" y="0" on="1"/>
        <pt x="499" y="-14" on="0"/>
        <pt x="468" y="-41" on="1"/>
        <pt x="424" y="-78" on="0"/>
        <pt x="424" y="-169" on="0"/>
        <pt x="441" y="-169" on="1"/>
        <pt x="450" y="-169" on="0"/>
      </contour>
    </TTGlyph>
    <TTGlyph name="Eth" xMin="52" yMin="0" xMax="635" yMax="650">
      <contour>
        <pt x="52" y="320" on="1"/>
        <pt x="52" y="336" on="1"/>
        <pt x="125" y="336" on="1"/>
        <pt x="125" y="634" on="1"/>
        <pt x="52" y="634" on="1"/>
        <pt x="52" y="650" on="1"/>
        <pt x="325" y="650" on="1"/>
        <pt x="477" y="650" on="0"/>
        <pt x="635" y="490" on="0"/>
        <pt x="635" y="167" on="0"/>
        <pt x="478" y="0" on="0"/>
        <pt x="311" y="0" on="1"/>
        <pt x="52" y="0" on="1"/>
        <pt x="52" y="16" on="1"/>
        <pt x="125" y="16" on="1"/>
        <pt x="125" y="320" on="1"/>
      </contour>
      <contour>
        <pt x="497" y="146" on="0"/>
        <pt x="513" y="249" on="0"/>
        <pt x="513" y="401" on="0"/>
        <pt x="496" y="503" on="0"/>
        <pt x="475" y="546" on="1"/>
        <pt x="433" y="634" on="0"/>
        <pt x="310" y="634" on="1"/>
        <pt x="229" y="634" on="1"/>
        <pt x="229" y="336" on="1"/>
        <pt x="304" y="336" on="1"/>
        <pt x="304" y="320" on="1"/>
        <pt x="229" y="320" on="1"/>
        <pt x="229" y="16" on="1"/>
        <pt x="290" y="16" on="1"/>
        <pt x="430" y="16" on="0"/>
        <pt x="474" y="102" on="1"/>
      </contour>
    </TTGlyph>
    <TTGlyph name="Euro" xMin="0" yMin="-20" xMax="470" yMax="498">
      <contour>
        <pt x="451" y="144" on="1"/>
        <pt x="452" y="154" on="1"/>
        <pt x="470" y="154" on="1"/>
        <pt x="447" y="-20" on="0"/>
        <pt x="288" y="-20" on="1"/>
        <pt x="197" y="-20" on="0"/>
        <pt x="82" y="102" on="0"/>
        <pt x="73" y="210" on="1"/>
        <pt x="0" y="210" on="1"/>
        <pt x="0" y="226" on="1"/>
        <pt x="71" y="226" on="1"/>
        <pt x="71" y="270" on="1"/>
        <pt x="0" y="270" on="1"/>
        <pt x="0" y="286" on="1"/>
        <pt x="73" y="286" on="1"/>
        <pt x="84" y="386" on="0"/>
        <pt x="219" y="498" on="0"/>
        <pt x="315" y="498" on="1"/>
        <pt x="350" y="498" on="0"/>
        <pt x="420" y="470" on="0"/>
        <pt x="423" y="470" on="1"/>
        <pt x="447" y="470" on="0"/>
        <pt x="447" y="498" on="1"/>
        <pt x="463" y="498" on="1"/>
        <pt x="463" y="305" on="1"/>
        <pt x="447" y="305" on="1"/>
        <pt x="438" y="390" on="0"/>
        <pt x="384" y="478" on="0"/>
        <pt x="270" y="478" on="0"/>
        <pt x="194" y="396" on="0"/>
        <pt x="188" y="286" on="1"/>
        <pt x="334" y="286" on="1"/>
        <pt x="334" y="270" on="1"/>
        <pt x="187" y="270" on="1"/>
        <pt x="187" y="226" on="1"/>
        <pt x="334" y="226" on="1"/>
        <pt x="334" y="210" on="1"/>
        <pt x="188" y="210" on="1"/>
        <pt x="193" y="92" on="0"/>
        <pt x="266" y="8" on="0"/>
        <pt x="383" y="8" on="0"/>
        <pt x="446" y="96" on="0"/>
      </contour>
    </TTGlyph>
    <TTGlyph name="F" xMin="52" yMin="0" xMax="542" yMax="670">
      <contour>
        <pt x="521" y="613" on="0"/>
        <pt x="476" y="652" on="0"/>
        <pt x="394" y="652" on="0"/>
        <pt x="255" y="617" on="0"/>
        <pt x="126" y="617" on="0"/>
        <pt x="62" y="641" on="1"/>
        <pt x="65" y="659" on="1"/>
        <pt x="130" y="635" on="0"/>
        <pt x="255" y="635" on="0"/>
        <pt x="389" y="670" on="0"/>
        <pt x="485" y="670" on="0"/>
        <pt x="542" y="618" on="0"/>
        <pt x="542" y="543" on="0"/>
        <pt x="499" y="499" on="0"/>
        <pt x="443" y="499" on="0"/>
        <pt x="403" y="533" on="0"/>
        <pt x="403" y="590" on="0"/>
        <pt x="433" y="621" on="0"/>
        <pt x="492" y="621" on="0"/>
        <pt x="502" y="590" on="1"/>
        <pt x="505" y="582" on="0"/>
        <pt x="521" y="582" on="0"/>
        <pt x="521" y="591" on="1"/>
      </contour>
      <contour>
        <pt x="125" y="16" on="1"/>
        <pt x="125" y="634" on="1"/>
        <pt x="229" y="634" on="1"/>
        <pt x="229" y="337" on="1"/>
        <pt x="272" y="337" on="1"/>
        <pt x="344" y="337" on="0"/>
        <pt x="398" y="392" on="0"/>
        <pt x="398" y="465" on="1"/>
        <pt x="415" y="465" on="1"/>
        <pt x="415" y="190" on="1"/>
        <pt x="398" y="190" on="1"/>
        <pt x="398" y="264" on="0"/>
        <pt x="344" y="321" on="0"/>
        <pt x="272" y="321" on="1"/>
        <pt x="229" y="321" on="1"/>
        <pt x="229" y="16" on="1"/>
        <pt x="312" y="16" on="1"/>
        <pt x="312" y="0" on="1"/>
        <pt x="52" y="0" on="1"/>
        <pt x="52" y="16" on="1"/>
      </contour>
    </TTGlyph>
    <TTGlyph name="G" xMin="54" yMin="-235" xMax="631" yMax="670">
      <contour>
        <pt x="454" y="284" on="1"/>
        <pt x="381" y="284" on="1"/>
        <pt x="381" y="300" on="1"/>
        <pt x="631" y="300" on="1"/>
        <pt x="631" y="284" on="1"/>
        <pt x="558" y="284" on="1"/>
        <pt x="558" y="-33" on="1"/>
        <pt x="558" y="-132" on="0"/>
        <pt x="494" y="-235" on="0"/>
        <pt x="436" y="-235" on="1"/>
        <pt x="395" y="-235" on="0"/>
        <pt x="343" y="-179" on="0"/>
        <pt x="343" y="-110" on="0"/>
        <pt x="386" y="-66" on="0"/>
        <pt x="441" y="-66" on="0"/>
        <pt x="481" y="-102" on="0"/>
        <pt x="481" y="-158" on="0"/>
        <pt x="451" y="-188" on="0"/>
        <pt x="429" y="-188" on="1"/>
        <pt x="394" y="-188" on="0"/>
        <pt x="382" y="-157" on="1"/>
        <pt x="379" y="-149" on="0"/>
        <pt x="372" y="-149" on="1"/>
        <pt x="362" y="-149" on="0"/>
        <pt x="364" y="-159" on="1"/>
        <pt x="368" y="-184" on="0"/>
        <pt x="410" y="-217" on="0"/>
        <pt x="476" y="-217" on="0"/>
        <pt x="515" y="-164" on="0"/>
        <pt x="515" y="-89" on="0"/>
        <pt x="463" y="-12" on="0"/>
        <pt x="458" y="7" on="1"/>
        <pt x="453" y="6" on="0"/>
        <pt x="423" y="-3" on="1"/>
        <pt x="366" y="-20" on="0"/>
        <pt x="324" y="-20" on="1"/>
        <pt x="196" y="-20" on="0"/>
        <pt x="54" y="183" on="0"/>
        <pt x="54" y="489" on="0"/>
        <pt x="236" y="670" on="0"/>
        <pt x="374" y="670" on="1"/>
        <pt x="453" y="670" on="0"/>
        <pt x="560" y="598" on="0"/>
        <pt x="560" y="545" on="1"/>
        <pt x="560" y="511" on="0"/>
        <pt x="517" y="467" on="0"/>
        <pt x="461" y="467" on="0"/>
        <pt x="421" y="501" on="0"/>
        <pt x="421" y="557" on="0"/>
        <pt x="452" y="589" on="0"/>
        <pt x="474" y="589" on="1"/>
        <pt x="509" y="589" on="0"/>
        <pt x="521" y="558" on="1"/>
        <pt x="524" y="550" on="0"/>
        <pt x="531" y="550" on="1"/>
        <pt x="542" y="550" on="0"/>
        <pt x="540" y="560" on="1"/>
        <pt x="535" y="595" on="0"/>
        <pt x="448" y="650" on="0"/>
        <pt x="384" y="650" on="1"/>
        <pt x="270" y="650" on="0"/>
        <pt x="176" y="485" on="0"/>
        <pt x="176" y="320" on="1"/>
        <pt x="176" y="93" on="0"/>
        <pt x="255" y="30" on="1"/>
        <pt x="290" y="3" on="0"/>
        <pt x="400" y="3" on="0"/>
        <pt x="454" y="26" on="1"/>
      </contour>
    </TTGlyph>
    <TTGlyph name="H" xMin="-16" yMin="-20" xMax="698" yMax="669">
      <contour>
        <pt x="375" y="335" on="1"/>
        <pt x="328" y="333" on="1"/>
        <pt x="132" y="323" on="0"/>
        <pt x="66" y="276" on="1"/>
        <pt x="4" y="231" on="0"/>
        <pt x="4" y="142" on="1"/>
        <pt x="4" y="83" on="0"/>
        <pt x="48" y="14" on="0"/>
        <pt x="88" y="14" on="1"/>
        <pt x="125" y="14" on="0"/>
        <pt x="125" y="71" on="1"/>
        <pt x="125" y="634" on="1"/>
        <pt x="52" y="634" on="1"/>
        <pt x="52" y="650" on="1"/>
        <pt x="312" y="650" on="1"/>
        <pt x="312" y="634" on="1"/>
        <pt x="229" y="634" on="1"/>
        <pt x="229" y="105" on="1"/>
        <pt x="229" y="43" on="0"/>
        <pt x="168" y="-20" on="0"/>
        <pt x="59" y="-20" on="0"/>
        <pt x="-16" y="61" on="0"/>
        <pt x="-16" y="136" on="1"/>
        <pt x="-16" y="226" on="0"/>
        <pt x="34" y="272" on="1"/>
        <pt x="86" y="318" on="0"/>
        <pt x="158" y="332" on="1"/>
        <pt x="243" y="349" on="0"/>
        <pt x="380" y="353" on="1"/>
        <pt x="488" y="356" on="0"/>
        <pt x="543" y="369" on="0"/>
        <pt x="595" y="383" on="0"/>
        <pt x="619" y="401" on="0"/>
        <pt x="652" y="429" on="0"/>
        <pt x="660" y="446" on="1"/>
        <pt x="678" y="488" on="0"/>
        <pt x="678" y="578" on="0"/>
        <pt x="658" y="626" on="0"/>
        <pt x="641" y="626" on="1"/>
        <pt x="608" y="626" on="0"/>
        <pt x="608" y="573" on="1"/>
        <pt x="608" y="16" on="1"/>
        <pt x="691" y="16" on="1"/>
        <pt x="691" y="0" on="1"/>
        <pt x="431" y="0" on="1"/>
        <pt x="431" y="16" on="1"/>
        <pt x="504" y="16" on="1"/>
        <pt x="504" y="555" on="1"/>
        <pt x="504" y="613" on="0"/>
        <pt x="557" y="669" on="0"/>
        <pt x="645" y="669" on="0"/>
        <pt x="698" y="600" on="0"/>
        <pt x="698" y="481" on="0"/>
        <pt x="659" y="405" on="0"/>
        <pt x="610" y="366" on="0"/>
        <pt x="508" y="343" on="0"/>
        <pt x="442" y="338" on="0"/>
      </contour>
    </TTGlyph>
    <TTGlyph name="I" xMin="52" yMin="0" xMax="312" yMax="803">
      <contour>
        <pt x="229" y="16" on="1"/>
        <pt x="312" y="16" on="1"/>
        <pt x="312" y="0" on="1"/>
        <pt x="52" y="0" on="1"/>
        <pt x="52" y="16" on="1"/>
        <pt x="125" y="16" on="1"/>
        <pt x="125" y="588" on="1"/>
        <pt x="229" y="611" on="1"/>
      </contour>
      <contour>
        <pt x="108" y="597" on="1"/>
        <pt x="174" y="597" on="0"/>
        <pt x="264" y="647" on="0"/>
        <pt x="264" y="743" on="0"/>
        <pt x="216" y="785" on="0"/>
        <pt x="154" y="785" on="0"/>
        <pt x="117" y="749" on="0"/>
        <pt x="117" y="721" on="0"/>
        <pt x="133" y="721" on="0"/>
        <pt x="136" y="729" on="1"/>
        <pt x="148" y="760" on="0"/>
        <pt x="182" y="760" on="1"/>
        <pt x="204" y="760" on="0"/>
        <pt x="235" y="728" on="0"/>
        <pt x="235" y="672" on="0"/>
        <pt x="195" y="638" on="0"/>
        <pt x="139" y="638" on="0"/>
        <pt x="96" y="682" on="0"/>
        <pt x="96" y="753" on="0"/>
        <pt x="146" y="803" on="0"/>
        <pt x="225" y="803" on="0"/>
        <pt x="282" y="749" on="0"/>
        <pt x="282" y="703" on="1"/>
        <pt x="282" y="638" on="0"/>
        <pt x="181" y="578" on="0"/>
        <pt x="107" y="578" on="1"/>
        <pt x="88" y="578" on="0"/>
        <pt x="54" y="582" on="1"/>
        <pt x="54" y="601" on="1"/>
        <pt x="88" y="597" on="0"/>
      </contour>
    </TTGlyph>
    <TTGlyph name="Iacute" xMin="52" yMin="0" xMax="329" yMax="861">
      <contour>
        <pt x="125" y="634" on="1"/>
        <pt x="52" y="634" on="1"/>
        <pt x="52" y="650" on="1"/>
        <pt x="312" y="650" on="1"/>
        <pt x="312" y="634" on="1"/>
        <pt x="229" y="634" on="1"/>
        <pt x="229" y="16" on="1"/>
        <pt x="312" y="16" on="1"/>
        <pt x="312" y="0" on="1"/>
        <pt x="52" y="0" on="1"/>
        <pt x="52" y="16" on="1"/>
        <pt x="125" y="16" on="1"/>
      </contour>
      <contour>
        <pt x="249" y="834" on="1"/>
        <pt x="272" y="861" on="0"/>
        <pt x="310" y="861" on="0"/>
        <pt x="329" y="843" on="0"/>
        <pt x="329" y="828" on="1"/>
        <pt x="329" y="799" on="0"/>
        <pt x="295" y="784" on="1"/>
        <pt x="115" y="700" on="1"/>
        <pt x="108" y="715" on="1"/>
        <pt x="155" y="740" on="0"/>
        <pt x="194" y="774" on="0"/>
        <pt x="205" y="783" on="0"/>
        <pt x="225" y="806" on="0"/>
        <pt x="229" y="810" on="0"/>
        <pt x="239" y="822" on="1"/>
      </contour>
    </TTGlyph>
    <TTGlyph name="Icircumflex" xMin="-7" yMin="0" xMax="367" yMax="861">
      <contour>
        <pt x="125" y="634" on="1"/>
        <pt x="52" y="634" on="1"/>
        <pt x="52" y="650" on="1"/>
        <pt x="312" y="650" on="1"/>
        <pt x="312" y="634" on="1"/>
        <pt x="229" y="634" on="1"/>
        <pt x="229" y="16" on="1"/>
        <pt x="312" y="16" on="1"/>
        <pt x="312" y="0" on="1"/>
        <pt x="52" y="0" on="1"/>
        <pt x="52" y="16" on="1"/>
        <pt x="125" y="16" on="1"/>
      </contour>
      <contour>
        <pt x="156" y="861" on="0"/>
        <pt x="204" y="861" on="0"/>
        <pt x="226" y="834" on="1"/>
        <pt x="230" y="826" on="0"/>
        <pt x="248" y="808" on="0"/>
        <pt x="263" y="790" on="0"/>
        <pt x="274" y="781" on="0"/>
        <pt x="292" y="764" on="0"/>
        <pt x="308" y="752" on="0"/>
        <pt x="319" y="744" on="1"/>
        <pt x="336" y="732" on="0"/>
        <pt x="367" y="715" on="1"/>
        <pt x="360" y="700" on="1"/>
        <pt x="180" y="784" on="1"/>
        <pt x="0" y="700" on="1"/>
        <pt x="-7" y="715" on="1"/>
        <pt x="40" y="740" on="0"/>
        <pt x="79" y="774" on="0"/>
        <pt x="90" y="783" on="0"/>
        <pt x="110" y="806" on="0"/>
        <pt x="114" y="810" on="0"/>
        <pt x="124" y="822" on="1"/>
        <pt x="134" y="834" on="1"/>
      </contour>
    </TTGlyph>
    <TTGlyph name="Idieresis" xMin="30" yMin="0" xMax="330" yMax="852">
      <contour>
        <pt x="125" y="634" on="1"/>
        <pt x="52" y="634" on="1"/>
        <pt x="52" y="650" on="1"/>
        <pt x="312" y="650" on="1"/>
        <pt x="312" y="634" on="1"/>
        <pt x="229" y="634" on="1"/>
        <pt x="229" y="16" on="1"/>
        <pt x="312" y="16" on="1"/>
        <pt x="312" y="0" on="1"/>
        <pt x="52" y="0" on="1"/>
        <pt x="52" y="16" on="1"/>
        <pt x="125" y="16" on="1"/>
      </contour>
      <contour>
        <pt x="209" y="767" on="0"/>
        <pt x="209" y="817" on="0"/>
        <pt x="245" y="852" on="0"/>
        <pt x="295" y="852" on="0"/>
        <pt x="330" y="817" on="0"/>
        <pt x="330" y="767" on="0"/>
        <pt x="295" y="731" on="0"/>
        <pt x="245" y="731" on="0"/>
      </contour>
      <contour>
        <pt x="30" y="767" on="0"/>
        <pt x="30" y="817" on="0"/>
        <pt x="65" y="852" on="0"/>
        <pt x="115" y="852" on="0"/>
        <pt x="151" y="817" on="0"/>
        <pt x="151" y="767" on="0"/>
        <pt x="115" y="731" on="0"/>
        <pt x="65" y="731" on="0"/>
      </contour>
    </TTGlyph>
    <TTGlyph name="Igrave" xMin="25" yMin="0" xMax="312" yMax="861">
      <contour>
        <pt x="125" y="634" on="1"/>
        <pt x="52" y="634" on="1"/>
        <pt x="52" y="650" on="1"/>
        <pt x="312" y="650" on="1"/>
        <pt x="312" y="634" on="1"/>
        <pt x="229" y="634" on="1"/>
        <pt x="229" y="16" on="1"/>
        <pt x="312" y="16" on="1"/>
        <pt x="312" y="0" on="1"/>
        <pt x="52" y="0" on="1"/>
        <pt x="52" y="16" on="1"/>
        <pt x="125" y="16" on="1"/>
      </contour>
      <contour>
        <pt x="25" y="828" on="1"/>
        <pt x="25" y="843" on="0"/>
        <pt x="44" y="861" on="0"/>
        <pt x="82" y="861" on="0"/>
        <pt x="105" y="834" on="1"/>
        <pt x="109" y="826" on="0"/>
        <pt x="127" y="808" on="0"/>
        <pt x="142" y="790" on="0"/>
        <pt x="153" y="781" on="0"/>
        <pt x="171" y="764" on="0"/>
        <pt x="187" y="752" on="0"/>
        <pt x="198" y="744" on="1"/>
        <pt x="215" y="732" on="0"/>
        <pt x="246" y="715" on="1"/>
        <pt x="239" y="700" on="1"/>
        <pt x="59" y="784" on="1"/>
        <pt x="25" y="799" on="0"/>
      </contour>
    </TTGlyph>
    <TTGlyph name="Iogonek" xMin="52" yMin="-215" xMax="312" yMax="650">
      <contour>
        <pt x="113" y="-161" on="1"/>
        <pt x="108" y="-141" on="1"/>
        <pt x="108" y="-120" on="0"/>
        <pt x="136" y="-96" on="0"/>
        <pt x="180" y="-96" on="0"/>
        <pt x="208" y="-128" on="0"/>
        <pt x="208" y="-180" on="0"/>
        <pt x="170" y="-215" on="0"/>
        <pt x="108" y="-215" on="0"/>
        <pt x="68" y="-166" on="0"/>
        <pt x="68" y="-132" on="1"/>
        <pt x="68" y="-47" on="0"/>
        <pt x="159" y="0" on="1"/>
        <pt x="52" y="0" on="1"/>
        <pt x="52" y="16" on="1"/>
        <pt x="125" y="16" on="1"/>
        <pt x="125" y="634" on="1"/>
        <pt x="52" y="634" on="1"/>
        <pt x="52" y="650" on="1"/>
        <pt x="312" y="650" on="1"/>
        <pt x="312" y="634" on="1"/>
        <pt x="229" y="634" on="1"/>
        <pt x="229" y="16" on="1"/>
        <pt x="312" y="16" on="1"/>
        <pt x="312" y="0" on="1"/>
        <pt x="210" y="0" on="1"/>
        <pt x="162" y="-14" on="0"/>
        <pt x="130" y="-41" on="1"/>
        <pt x="87" y="-78" on="0"/>
        <pt x="87" y="-169" on="0"/>
        <pt x="104" y="-169" on="1"/>
        <pt x="113" y="-169" on="0"/>
      </contour>
    </TTGlyph>
    <TTGlyph name="Itilde" xMin="31" yMin="0" xMax="324" yMax="796">
      <contour>
        <pt x="125" y="634" on="1"/>
        <pt x="52" y="634" on="1"/>
        <pt x="52" y="650" on="1"/>
        <pt x="312" y="650" on="1"/>
        <pt x="312" y="634" on="1"/>
        <pt x="229" y="634" on="1"/>
        <pt x="229" y="16" on="1"/>
        <pt x="312" y="16" on="1"/>
        <pt x="312" y="0" on="1"/>
        <pt x="52" y="0" on="1"/>
        <pt x="52" y="16" on="1"/>
        <pt x="125" y="16" on="1"/>
      </contour>
      <contour>
        <pt x="31" y="733" on="0"/>
        <pt x="71" y="796" on="0"/>
        <pt x="132" y="796" on="0"/>
        <pt x="239" y="744" on="0"/>
        <pt x="259" y="744" on="1"/>
        <pt x="309" y="744" on="0"/>
        <pt x="309" y="795" on="1"/>
        <pt x="324" y="795" on="1"/>
        <pt x="324" y="748" on="0"/>
        <pt x="284" y="685" on="0"/>
        <pt x="222" y="685" on="0"/>
        <pt x="115" y="737" on="0"/>
        <pt x="96" y="737" on="1"/>
        <pt x="46" y="737" on="0"/>
        <pt x="46" y="686" on="1"/>
        <pt x="31" y="686" on="1"/>
      </contour>
    </TTGlyph>
    <TTGlyph name="J" xMin="-30" yMin="-90" xMax="375" yMax="650">
      <contour>
        <pt x="302" y="634" on="1"/>
        <pt x="302" y="115" on="1"/>
        <pt x="302" y="15" on="0"/>
        <pt x="196" y="-90" on="0"/>
        <pt x="61" y="-90" on="0"/>
        <pt x="-30" y="-15" on="0"/>
        <pt x="-30" y="47" on="1"/>
        <pt x="-30" y="88" on="0"/>
        <pt x="20" y="138" on="0"/>
        <pt x="91" y="138" on="0"/>
        <pt x="135" y="95" on="0"/>
        <pt x="135" y="39" on="0"/>
        <pt x="101" y="-1" on="0"/>
        <pt x="45" y="-1" on="0"/>
        <pt x="13" y="30" on="0"/>
        <pt x="13" y="52" on="1"/>
        <pt x="13" y="86" on="0"/>
        <pt x="44" y="98" on="1"/>
        <pt x="52" y="101" on="0"/>
        <pt x="52" y="117" on="0"/>
        <pt x="24" y="117" on="0"/>
        <pt x="-12" y="80" on="0"/>
        <pt x="-12" y="47" on="1"/>
        <pt x="-12" y="-3" on="0"/>
        <pt x="58" y="-67" on="0"/>
        <pt x="142" y="-67" on="0"/>
        <pt x="198" y="-11" on="0"/>
        <pt x="198" y="43" on="1"/>
        <pt x="198" y="634" on="1"/>
        <pt x="115" y="634" on="1"/>
        <pt x="115" y="650" on="1"/>
        <pt x="375" y="650" on="1"/>
        <pt x="375" y="634" on="1"/>
      </contour>
    </TTGlyph>
    <TTGlyph name="Jcircumflex" xMin="-3" yMin="-235" xMax="371" yMax="861">
      <contour>
        <pt x="63" y="-131" on="1"/>
        <pt x="50" y="-131" on="0"/>
        <pt x="50" y="-183" on="0"/>
        <pt x="91" y="-217" on="0"/>
        <pt x="161" y="-217" on="0"/>
        <pt x="201" y="-164" on="0"/>
        <pt x="201" y="-88" on="0"/>
        <pt x="140" y="19" on="0"/>
        <pt x="140" y="60" on="1"/>
        <pt x="140" y="634" on="1"/>
        <pt x="57" y="634" on="1"/>
        <pt x="57" y="650" on="1"/>
        <pt x="317" y="650" on="1"/>
        <pt x="317" y="634" on="1"/>
        <pt x="244" y="634" on="1"/>
        <pt x="244" y="-33" on="1"/>
        <pt x="244" y="-132" on="0"/>
        <pt x="180" y="-235" on="0"/>
        <pt x="121" y="-235" on="1"/>
        <pt x="83" y="-235" on="0"/>
        <pt x="32" y="-189" on="0"/>
        <pt x="32" y="-124" on="0"/>
        <pt x="71" y="-80" on="0"/>
        <pt x="126" y="-80" on="0"/>
        <pt x="159" y="-109" on="0"/>
        <pt x="159" y="-154" on="0"/>
        <pt x="133" y="-185" on="0"/>
        <pt x="92" y="-185" on="0"/>
        <pt x="70" y="-165" on="0"/>
        <pt x="70" y="-150" on="1"/>
        <pt x="71" y="-139" on="1"/>
        <pt x="71" y="-131" on="0"/>
      </contour>
      <contour>
        <pt x="138" y="834" on="1"/>
        <pt x="161" y="861" on="0"/>
        <pt x="208" y="861" on="0"/>
        <pt x="230" y="834" on="1"/>
        <pt x="234" y="826" on="0"/>
        <pt x="252" y="808" on="0"/>
        <pt x="267" y="790" on="0"/>
        <pt x="278" y="781" on="0"/>
        <pt x="296" y="764" on="0"/>
        <pt x="312" y="752" on="0"/>
        <pt x="323" y="744" on="1"/>
        <pt x="340" y="732" on="0"/>
        <pt x="371" y="715" on="1"/>
        <pt x="364" y="700" on="1"/>
        <pt x="184" y="784" on="1"/>
        <pt x="4" y="700" on="1"/>
        <pt x="-3" y="715" on="1"/>
        <pt x="44" y="740" on="0"/>
        <pt x="83" y="774" on="0"/>
        <pt x="94" y="783" on="0"/>
        <pt x="114" y="806" on="0"/>
        <pt x="118" y="810" on="0"/>
        <pt x="128" y="822" on="1"/>
      </contour>
    </TTGlyph>
    <TTGlyph name="K" xMin="52" yMin="-10" xMax="636" yMax="660">
      <contour>
        <pt x="547" y="120" on="1"/>
        <pt x="547" y="96" on="1"/>
        <pt x="547" y="60" on="0"/>
        <pt x="557" y="33" on="0"/>
        <pt x="582" y="33" on="0"/>
        <pt x="609" y="73" on="0"/>
        <pt x="618" y="113" on="1"/>
        <pt x="636" y="109" on="1"/>
        <pt x="612" y="-10" on="0"/>
        <pt x="521" y="-10" on="1"/>
        <pt x="441" y="-10" on="0"/>
        <pt x="441" y="109" on="1"/>
        <pt x="441" y="193" on="1"/>
        <pt x="441" y="270" on="0"/>
        <pt x="355" y="326" on="0"/>
        <pt x="281" y="326" on="1"/>
        <pt x="263" y="326" on="0"/>
        <pt x="229" y="324" on="1"/>
        <pt x="229" y="16" on="1"/>
        <pt x="312" y="16" on="1"/>
        <pt x="312" y="0" on="1"/>
        <pt x="52" y="0" on="1"/>
        <pt x="52" y="16" on="1"/>
        <pt x="125" y="16" on="1"/>
        <pt x="125" y="634" on="1"/>
        <pt x="52" y="634" on="1"/>
        <pt x="52" y="650" on="1"/>
        <pt x="312" y="650" on="1"/>
        <pt x="312" y="634" on="1"/>
        <pt x="229" y="634" on="1"/>
        <pt x="229" y="343" on="1"/>
        <pt x="358" y="343" on="0"/>
        <pt x="513" y="473" on="0"/>
        <pt x="513" y="557" on="1"/>
        <pt x="513" y="600" on="0"/>
        <pt x="464" y="642" on="0"/>
        <pt x="402" y="642" on="0"/>
        <pt x="365" y="606" on="0"/>
        <pt x="365" y="578" on="0"/>
        <pt x="381" y="578" on="0"/>
        <pt x="384" y="586" on="1"/>
        <pt x="396" y="617" on="0"/>
        <pt x="430" y="617" on="1"/>
        <pt x="452" y="617" on="0"/>
        <pt x="483" y="585" on="0"/>
        <pt x="483" y="529" on="0"/>
        <pt x="443" y="495" on="0"/>
        <pt x="387" y="495" on="0"/>
        <pt x="344" y="539" on="0"/>
        <pt x="344" y="610" on="0"/>
        <pt x="394" y="660" on="0"/>
        <pt x="474" y="660" on="0"/>
        <pt x="531" y="605" on="0"/>
        <pt x="531" y="559" on="1"/>
        <pt x="531" y="441" on="0"/>
        <pt x="402" y="363" on="1"/>
        <pt x="406" y="355" on="1"/>
        <pt x="473" y="351" on="0"/>
        <pt x="502" y="316" on="1"/>
        <pt x="533" y="278" on="0"/>
        <pt x="539" y="240" on="1"/>
        <pt x="547" y="180" on="0"/>
      </contour>
    </TTGlyph>
    <TTGlyph name="L" xMin="52" yMin="-34" xMax="545" yMax="650">
      <contour>
        <pt x="52" y="0" on="1"/>
        <pt x="52" y="16" on="1"/>
        <pt x="125" y="16" on="1"/>
        <pt x="125" y="634" on="1"/>
        <pt x="52" y="634" on="1"/>
        <pt x="52" y="650" on="1"/>
        <pt x="322" y="650" on="1"/>
        <pt x="322" y="634" on="1"/>
        <pt x="229" y="634" on="1"/>
        <pt x="229" y="14" on="1"/>
        <pt x="267" y="11" on="0"/>
        <pt x="388" y="-16" on="0"/>
        <pt x="415" y="-16" on="1"/>
        <pt x="469" y="-16" on="0"/>
        <pt x="527" y="34" on="0"/>
        <pt x="527" y="104" on="0"/>
        <pt x="490" y="136" on="0"/>
        <pt x="470" y="136" on="1"/>
        <pt x="461" y="136" on="0"/>
        <pt x="461" y="119" on="0"/>
        <pt x="468" y="118" on="1"/>
        <pt x="506" y="108" on="0"/>
        <pt x="506" y="72" on="1"/>
        <pt x="506" y="51" on="0"/>
        <pt x="474" y="19" on="0"/>
        <pt x="417" y="19" on="0"/>
        <pt x="383" y="59" on="0"/>
        <pt x="383" y="115" on="0"/>
        <pt x="427" y="158" on="0"/>
        <pt x="495" y="158" on="0"/>
        <pt x="545" y="109" on="0"/>
        <pt x="545" y="25" on="0"/>
        <pt x="477" y="-34" on="0"/>
        <pt x="419" y="-34" on="1"/>
        <pt x="384" y="-34" on="0"/>
        <pt x="229" y="0" on="0"/>
        <pt x="155" y="0" on="1"/>
      </contour>
    </TTGlyph>
    <TTGlyph name="Lslash" xMin="31" yMin="0" xMax="527" yMax="650">
      <contour>
        <pt x="52" y="0" on="1"/>
        <pt x="52" y="16" on="1"/>
        <pt x="125" y="16" on="1"/>
        <pt x="125" y="246" on="1"/>
        <pt x="31" y="209" on="1"/>
        <pt x="31" y="231" on="1"/>
        <pt x="125" y="268" on="1"/>
        <pt x="125" y="634" on="1"/>
        <pt x="52" y="634" on="1"/>
        <pt x="52" y="650" on="1"/>
        <pt x="322" y="650" on="1"/>
        <pt x="322" y="634" on="1"/>
        <pt x="229" y="634" on="1"/>
        <pt x="229" y="310" on="1"/>
        <pt x="463" y="404" on="1"/>
        <pt x="463" y="382" on="1"/>
        <pt x="229" y="288" on="1"/>
        <pt x="229" y="16" on="1"/>
        <pt x="280" y="16" on="1"/>
        <pt x="356" y="16" on="0"/>
        <pt x="438" y="31" on="0"/>
        <pt x="490" y="87" on="0"/>
        <pt x="507" y="167" on="0"/>
        <pt x="511" y="245" on="1"/>
        <pt x="527" y="245" on="1"/>
        <pt x="517" y="0" on="1"/>
      </contour>
    </TTGlyph>
    <TTGlyph name="M" xMin="-6" yMin="0" xMax="803" yMax="650">
      <contour>
        <pt x="803" y="650" on="1"/>
        <pt x="803" y="634" on="1"/>
        <pt x="720" y="634" on="1"/>
        <pt x="720" y="16" on="1"/>
        <pt x="803" y="16" on="1"/>
        <pt x="803" y="0" on="1"/>
        <pt x="543" y="0" on="1"/>
        <pt x="543" y="16" on="1"/>
        <pt x="616" y="16" on="1"/>
        <pt x="616" y="588" on="1"/>
        <pt x="609" y="588" on="1"/>
        <pt x="355" y="157" on="1"/>
        <pt x="352" y="154" on="0"/>
        <pt x="343" y="137" on="1"/>
        <pt x="326" y="106" on="0"/>
        <pt x="326" y="65" on="0"/>
        <pt x="345" y="37" on="0"/>
        <pt x="360" y="37" on="1"/>
        <pt x="389" y="37" on="0"/>
        <pt x="389" y="68" on="1"/>
        <pt x="389" y="87" on="0"/>
        <pt x="374" y="117" on="1"/>
        <pt x="152" y="588" on="1"/>
        <pt x="145" y="588" on="1"/>
        <pt x="145" y="143" on="1"/>
        <pt x="145" y="70" on="0"/>
        <pt x="200" y="16" on="0"/>
        <pt x="273" y="16" on="1"/>
        <pt x="280" y="16" on="1"/>
        <pt x="280" y="0" on="1"/>
        <pt x="-6" y="0" on="1"/>
        <pt x="-6" y="16" on="1"/>
        <pt x="67" y="16" on="0"/>
        <pt x="125" y="71" on="0"/>
        <pt x="125" y="143" on="1"/>
        <pt x="125" y="594" on="1"/>
        <pt x="123" y="618" on="0"/>
        <pt x="90" y="635" on="0"/>
        <pt x="60" y="635" on="1"/>
        <pt x="15" y="635" on="1"/>
        <pt x="15" y="650" on="1"/>
        <pt x="242" y="650" on="1"/>
        <pt x="441" y="216" on="1"/>
        <pt x="487" y="124" on="0"/>
        <pt x="487" y="49" on="0"/>
        <pt x="436" y="7" on="0"/>
        <pt x="361" y="7" on="0"/>
        <pt x="308" y="47" on="0"/>
        <pt x="308" y="89" on="1"/>
        <pt x="308" y="104" on="0"/>
        <pt x="314" y="119" on="0"/>
        <pt x="316" y="125" on="0"/>
        <pt x="319" y="131" on="1"/>
        <pt x="324" y="140" on="1"/>
        <pt x="329" y="151" on="0"/>
        <pt x="333" y="157" on="1"/>
        <pt x="345" y="175" on="0"/>
        <pt x="349" y="183" on="1"/>
        <pt x="621" y="650" on="1"/>
      </contour>
    </TTGlyph>
    <TTGlyph name="N" xMin="-22" yMin="-20" xMax="668" yMax="650">
      <contour>
        <pt x="537" y="507" on="1"/>
        <pt x="537" y="-7" on="1"/>
        <pt x="521" y="-7" on="1"/>
        <pt x="488" y="-7" on="0"/>
        <pt x="447" y="35" on="0"/>
        <pt x="413" y="94" on="1"/>
        <pt x="149" y="548" on="1"/>
        <pt x="145" y="548" on="1"/>
        <pt x="145" y="80" on="1"/>
        <pt x="145" y="32" on="0"/>
        <pt x="95" y="-20" on="0"/>
        <pt x="22" y="-20" on="0"/>
        <pt x="-22" y="23" on="0"/>
        <pt x="-22" y="79" on="0"/>
        <pt x="12" y="119" on="0"/>
        <pt x="68" y="119" on="0"/>
        <pt x="100" y="88" on="0"/>
        <pt x="100" y="66" on="1"/>
        <pt x="100" y="32" on="0"/>
        <pt x="69" y="20" on="1"/>
        <pt x="61" y="17" on="0"/>
        <pt x="61" y="1" on="0"/>
        <pt x="90" y="1" on="0"/>
        <pt x="125" y="40" on="0"/>
        <pt x="125" y="80" on="1"/>
        <pt x="125" y="589" on="1"/>
        <pt x="98" y="635" on="0"/>
        <pt x="20" y="635" on="1"/>
        <pt x="20" y="650" on="1"/>
        <pt x="124" y="650" on="1"/>
        <pt x="172" y="650" on="0"/>
        <pt x="221" y="617" on="0"/>
        <pt x="246" y="575" on="1"/>
        <pt x="511" y="120" on="1"/>
        <pt x="517" y="120" on="1"/>
        <pt x="517" y="507" on="1"/>
        <pt x="517" y="580" on="0"/>
        <pt x="462" y="634" on="0"/>
        <pt x="389" y="634" on="1"/>
        <pt x="382" y="634" on="1"/>
        <pt x="382" y="650" on="1"/>
        <pt x="668" y="650" on="1"/>
        <pt x="668" y="634" on="1"/>
        <pt x="595" y="634" on="0"/>
        <pt x="537" y="579" on="0"/>
      </contour>
    </TTGlyph>
    <TTGlyph name="Nacute" xMin="-6" yMin="-7" xMax="668" yMax="861">
      <contour>
        <pt x="537" y="507" on="1"/>
        <pt x="537" y="-7" on="1"/>
        <pt x="521" y="-7" on="1"/>
        <pt x="488" y="-7" on="0"/>
        <pt x="447" y="35" on="0"/>
        <pt x="413" y="94" on="1"/>
        <pt x="149" y="548" on="1"/>
        <pt x="145" y="548" on="1"/>
        <pt x="145" y="143" on="1"/>
        <pt x="145" y="70" on="0"/>
        <pt x="200" y="16" on="0"/>
        <pt x="273" y="16" on="1"/>
        <pt x="280" y="16" on="1"/>
        <pt x="280" y="0" on="1"/>
        <pt x="-6" y="0" on="1"/>
        <pt x="-6" y="16" on="1"/>
        <pt x="67" y="16" on="0"/>
        <pt x="125" y="71" on="0"/>
        <pt x="125" y="143" on="1"/>
        <pt x="125" y="589" on="1"/>
        <pt x="98" y="635" on="0"/>
        <pt x="20" y="635" on="1"/>
        <pt x="20" y="650" on="1"/>
        <pt x="124" y="650" on="1"/>
        <pt x="172" y="650" on="0"/>
        <pt x="221" y="617" on="0"/>
        <pt x="246" y="575" on="1"/>
        <pt x="511" y="120" on="1"/>
        <pt x="517" y="120" on="1"/>
        <pt x="517" y="507" on="1"/>
        <pt x="517" y="580" on="0"/>
        <pt x="462" y="634" on="0"/>
        <pt x="389" y="634" on="1"/>
        <pt x="382" y="634" on="1"/>
        <pt x="382" y="650" on="1"/>
        <pt x="668" y="650" on="1"/>
        <pt x="668" y="634" on="1"/>
        <pt x="595" y="634" on="0"/>
        <pt x="537" y="579" on="0"/>
      </contour>
      <contour>
        <pt x="379" y="834" on="1"/>
        <pt x="402" y="861" on="0"/>
        <pt x="440" y="861" on="0"/>
        <pt x="459" y="843" on="0"/>
        <pt x="459" y="828" on="1"/>
        <pt x="459" y="799" on="0"/>
        <pt x="425" y="784" on="1"/>
        <pt x="245" y="700" on="1"/>
        <pt x="238" y="715" on="1"/>
        <pt x="285" y="740" on="0"/>
        <pt x="324" y="774" on="0"/>
        <pt x="335" y="783" on="0"/>
        <pt x="355" y="806" on="0"/>
        <pt x="359" y="810" on="0"/>
        <pt x="369" y="822" on="1"/>
      </contour>
    </TTGlyph>
    <TTGlyph name="Ntilde" xMin="-6" yMin="-7" xMax="668" yMax="852">
      <contour>
        <pt x="537" y="507" on="1"/>
        <pt x="537" y="-7" on="1"/>
        <pt x="521" y="-7" on="1"/>
        <pt x="488" y="-7" on="0"/>
        <pt x="447" y="35" on="0"/>
        <pt x="413" y="94" on="1"/>
        <pt x="149" y="548" on="1"/>
        <pt x="145" y="548" on="1"/>
        <pt x="145" y="143" on="1"/>
        <pt x="145" y="70" on="0"/>
        <pt x="200" y="16" on="0"/>
        <pt x="273" y="16" on="1"/>
        <pt x="280" y="16" on="1"/>
        <pt x="280" y="0" on="1"/>
        <pt x="-6" y="0" on="1"/>
        <pt x="-6" y="16" on="1"/>
        <pt x="67" y="16" on="0"/>
        <pt x="125" y="71" on="0"/>
        <pt x="125" y="143" on="1"/>
        <pt x="125" y="589" on="1"/>
        <pt x="98" y="635" on="0"/>
        <pt x="20" y="635" on="1"/>
        <pt x="20" y="650" on="1"/>
        <pt x="124" y="650" on="1"/>
        <pt x="172" y="650" on="0"/>
        <pt x="221" y="617" on="0"/>
        <pt x="246" y="575" on="1"/>
        <pt x="511" y="120" on="1"/>
        <pt x="517" y="120" on="1"/>
        <pt x="517" y="507" on="1"/>
        <pt x="517" y="580" on="0"/>
        <pt x="462" y="634" on="0"/>
        <pt x="389" y="634" on="1"/>
        <pt x="382" y="634" on="1"/>
        <pt x="382" y="650" on="1"/>
        <pt x="668" y="650" on="1"/>
        <pt x="668" y="634" on="1"/>
        <pt x="595" y="634" on="0"/>
        <pt x="537" y="579" on="0"/>
      </contour>
      <contour>
        <pt x="183" y="789" on="0"/>
        <pt x="223" y="852" on="0"/>
        <pt x="284" y="852" on="0"/>
        <pt x="391" y="800" on="0"/>
        <pt x="411" y="800" on="1"/>
        <pt x="461" y="800" on="0"/>
        <pt x="461" y="851" on="1"/>
        <pt x="476" y="851" on="1"/>
        <pt x="476" y="804" on="0"/>
        <pt x="436" y="741" on="0"/>
        <pt x="374" y="741" on="0"/>
        <pt x="268" y="793" on="0"/>
        <pt x="248" y="793" on="1"/>
        <pt x="198" y="793" on="0"/>
        <pt x="198" y="742" on="1"/>
        <pt x="183" y="742" on="1"/>
      </contour>
    </TTGlyph>
    <TTGlyph name="O" xMin="52" yMin="-20" xMax="618" yMax="670">
      <contour>
        <pt x="542" y="577" on="0"/>
        <pt x="442" y="649" on="0"/>
        <pt x="328" y="649" on="0"/>
        <pt x="256" y="617" on="0"/>
        <pt x="212" y="563" on="0"/>
        <pt x="198" y="521" on="1"/>
        <pt x="174" y="445" on="0"/>
        <pt x="174" y="328" on="1"/>
        <pt x="174" y="158" on="0"/>
        <pt x="196" y="104" on="1"/>
        <pt x="207" y="77" on="0"/>
        <pt x="224" y="50" on="1"/>
        <pt x="257" y="-1" on="0"/>
        <pt x="335" y="-1" on="1"/>
        <pt x="410" y="-1" on="0"/>
        <pt x="444" y="51" on="1"/>
        <pt x="480" y="105" on="0"/>
        <pt x="488" y="176" on="1"/>
        <pt x="496" y="243" on="0"/>
        <pt x="496" y="374" on="0"/>
        <pt x="495" y="398" on="1"/>
        <pt x="499" y="398" on="0"/>
        <pt x="525" y="398" on="0"/>
        <pt x="591" y="428" on="0"/>
        <pt x="598" y="462" on="1"/>
        <pt x="618" y="395" on="0"/>
        <pt x="618" y="328" on="1"/>
        <pt x="618" y="181" on="0"/>
        <pt x="469" y="-20" on="0"/>
        <pt x="201" y="-20" on="0"/>
        <pt x="52" y="181" on="0"/>
        <pt x="52" y="485" on="0"/>
        <pt x="213" y="670" on="0"/>
        <pt x="355" y="670" on="1"/>
        <pt x="441" y="670" on="0"/>
        <pt x="567" y="580" on="0"/>
        <pt x="567" y="525" on="1"/>
        <pt x="567" y="491" on="0"/>
        <pt x="524" y="447" on="0"/>
        <pt x="468" y="447" on="0"/>
        <pt x="428" y="481" on="0"/>
        <pt x="428" y="537" on="0"/>
        <pt x="459" y="569" on="0"/>
        <pt x="481" y="569" on="1"/>
        <pt x="516" y="569" on="0"/>
        <pt x="528" y="538" on="1"/>
        <pt x="531" y="530" on="0"/>
        <pt x="538" y="530" on="1"/>
        <pt x="549" y="530" on="0"/>
        <pt x="547" y="540" on="1"/>
      </contour>
    </TTGlyph>
    <TTGlyph name="OE" xMin="52" yMin="-20" xMax="946" yMax="670">
      <contour>
        <pt x="335" y="-20" on="1"/>
        <pt x="201" y="-20" on="0"/>
        <pt x="52" y="181" on="0"/>
        <pt x="52" y="471" on="0"/>
        <pt x="204" y="670" on="0"/>
        <pt x="335" y="670" on="1"/>
        <pt x="393" y="670" on="0"/>
        <pt x="441" y="649" on="1"/>
        <pt x="441" y="650" on="1"/>
        <pt x="922" y="650" on="1"/>
        <pt x="922" y="442" on="1"/>
        <pt x="906" y="442" on="1"/>
        <pt x="906" y="563" on="0"/>
        <pt x="831" y="634" on="0"/>
        <pt x="708" y="634" on="1"/>
        <pt x="618" y="634" on="1"/>
        <pt x="618" y="347" on="1"/>
        <pt x="671" y="347" on="1"/>
        <pt x="743" y="347" on="0"/>
        <pt x="797" y="402" on="0"/>
        <pt x="797" y="475" on="1"/>
        <pt x="814" y="475" on="1"/>
        <pt x="814" y="200" on="1"/>
        <pt x="797" y="200" on="1"/>
        <pt x="797" y="274" on="0"/>
        <pt x="743" y="331" on="0"/>
        <pt x="671" y="331" on="1"/>
        <pt x="618" y="331" on="1"/>
        <pt x="618" y="16" on="1"/>
        <pt x="699" y="16" on="1"/>
        <pt x="775" y="16" on="0"/>
        <pt x="857" y="32" on="0"/>
        <pt x="909" y="86" on="0"/>
        <pt x="926" y="167" on="0"/>
        <pt x="930" y="245" on="1"/>
        <pt x="946" y="245" on="1"/>
        <pt x="936" y="0" on="1"/>
        <pt x="441" y="0" on="1"/>
        <pt x="388" y="-20" on="0"/>
      </contour>
      <contour>
        <pt x="241" y="24" on="0"/>
        <pt x="297" y="-1" on="0"/>
        <pt x="372" y="-1" on="0"/>
        <pt x="427" y="25" on="0"/>
        <pt x="461" y="77" on="0"/>
        <pt x="483" y="134" on="0"/>
        <pt x="493" y="218" on="0"/>
        <pt x="496" y="282" on="0"/>
        <pt x="496" y="374" on="0"/>
        <pt x="493" y="437" on="0"/>
        <pt x="483" y="520" on="0"/>
        <pt x="461" y="575" on="0"/>
        <pt x="427" y="626" on="0"/>
        <pt x="372" y="651" on="0"/>
        <pt x="298" y="651" on="0"/>
        <pt x="243" y="626" on="0"/>
        <pt x="209" y="575" on="0"/>
        <pt x="187" y="520" on="0"/>
        <pt x="182" y="478" on="1"/>
        <pt x="174" y="412" on="0"/>
        <pt x="174" y="279" on="0"/>
        <pt x="176" y="218" on="0"/>
        <pt x="185" y="131" on="0"/>
        <pt x="207" y="77" on="0"/>
      </contour>
    </TTGlyph>
    <TTGlyph name="Oacute" xMin="52" yMin="-20" xMax="618" yMax="861">
      <contour>
        <pt x="389" y="834" on="1"/>
        <pt x="412" y="861" on="0"/>
        <pt x="450" y="861" on="0"/>
        <pt x="469" y="843" on="0"/>
        <pt x="469" y="828" on="1"/>
        <pt x="469" y="799" on="0"/>
        <pt x="435" y="784" on="1"/>
        <pt x="255" y="700" on="1"/>
        <pt x="248" y="715" on="1"/>
        <pt x="295" y="740" on="0"/>
        <pt x="334" y="774" on="0"/>
        <pt x="345" y="783" on="0"/>
        <pt x="365" y="806" on="0"/>
        <pt x="369" y="810" on="0"/>
        <pt x="379" y="822" on="1"/>
      </contour>
      <contour>
        <pt x="469" y="-20" on="0"/>
        <pt x="201" y="-20" on="0"/>
        <pt x="52" y="181" on="0"/>
        <pt x="52" y="471" on="0"/>
        <pt x="204" y="670" on="0"/>
        <pt x="466" y="670" on="0"/>
        <pt x="618" y="471" on="0"/>
        <pt x="618" y="181" on="0"/>
      </contour>
      <contour>
        <pt x="241" y="24" on="0"/>
        <pt x="297" y="-1" on="0"/>
        <pt x="372" y="-1" on="0"/>
        <pt x="427" y="25" on="0"/>
        <pt x="461" y="77" on="0"/>
        <pt x="483" y="134" on="0"/>
        <pt x="493" y="218" on="0"/>
        <pt x="496" y="282" on="0"/>
        <pt x="496" y="374" on="0"/>
        <pt x="493" y="437" on="0"/>
        <pt x="483" y="520" on="0"/>
        <pt x="461" y="575" on="0"/>
        <pt x="427" y="626" on="0"/>
        <pt x="372" y="651" on="0"/>
        <pt x="298" y="651" on="0"/>
        <pt x="243" y="626" on="0"/>
        <pt x="209" y="575" on="0"/>
        <pt x="187" y="520" on="0"/>
        <pt x="182" y="478" on="1"/>
        <pt x="174" y="412" on="0"/>
        <pt x="174" y="279" on="0"/>
        <pt x="176" y="218" on="0"/>
        <pt x="185" y="131" on="0"/>
        <pt x="207" y="77" on="0"/>
      </contour>
    </TTGlyph>
    <TTGlyph name="Ocircumflex" xMin="52" yMin="-20" xMax="618" yMax="861">
      <contour>
        <pt x="469" y="-20" on="0"/>
        <pt x="201" y="-20" on="0"/>
        <pt x="52" y="181" on="0"/>
        <pt x="52" y="471" on="0"/>
        <pt x="204" y="670" on="0"/>
        <pt x="466" y="670" on="0"/>
        <pt x="618" y="471" on="0"/>
        <pt x="618" y="181" on="0"/>
      </contour>
      <contour>
        <pt x="241" y="24" on="0"/>
        <pt x="297" y="-1" on="0"/>
        <pt x="372" y="-1" on="0"/>
        <pt x="427" y="25" on="0"/>
        <pt x="461" y="77" on="0"/>
        <pt x="483" y="134" on="0"/>
        <pt x="493" y="218" on="0"/>
        <pt x="496" y="282" on="0"/>
        <pt x="496" y="374" on="0"/>
        <pt x="493" y="437" on="0"/>
        <pt x="483" y="520" on="0"/>
        <pt x="461" y="575" on="0"/>
        <pt x="427" y="626" on="0"/>
        <pt x="372" y="651" on="0"/>
        <pt x="298" y="651" on="0"/>
        <pt x="243" y="626" on="0"/>
        <pt x="209" y="575" on="0"/>
        <pt x="187" y="520" on="0"/>
        <pt x="182" y="478" on="1"/>
        <pt x="174" y="412" on="0"/>
        <pt x="174" y="279" on="0"/>
        <pt x="176" y="218" on="0"/>
        <pt x="185" y="131" on="0"/>
        <pt x="207" y="77" on="0"/>
      </contour>
      <contour>
        <pt x="314" y="861" on="0"/>
        <pt x="360" y="861" on="0"/>
        <pt x="383" y="834" on="1"/>
        <pt x="387" y="826" on="0"/>
        <pt x="405" y="808" on="0"/>
        <pt x="420" y="790" on="0"/>
        <pt x="431" y="781" on="0"/>
        <pt x="449" y="764" on="0"/>
        <pt x="465" y="752" on="0"/>
        <pt x="476" y="744" on="1"/>
        <pt x="493" y="732" on="0"/>
        <pt x="524" y="715" on="1"/>
        <pt x="517" y="700" on="1"/>
        <pt x="337" y="784" on="1"/>
        <pt x="157" y="700" on="1"/>
        <pt x="150" y="715" on="1"/>
        <pt x="197" y="740" on="0"/>
        <pt x="236" y="774" on="0"/>
        <pt x="247" y="783" on="0"/>
        <pt x="267" y="806" on="0"/>
        <pt x="271" y="810" on="0"/>
        <pt x="281" y="822" on="1"/>
        <pt x="291" y="834" on="1"/>
      </contour>
    </TTGlyph>
    <TTGlyph name="Odieresis" xMin="52" yMin="-20" xMax="618" yMax="852">
      <contour>
        <pt x="469" y="-20" on="0"/>
        <pt x="201" y="-20" on="0"/>
        <pt x="52" y="181" on="0"/>
        <pt x="52" y="471" on="0"/>
        <pt x="204" y="670" on="0"/>
        <pt x="466" y="670" on="0"/>
        <pt x="618" y="471" on="0"/>
        <pt x="618" y="181" on="0"/>
      </contour>
      <contour>
        <pt x="241" y="24" on="0"/>
        <pt x="297" y="-1" on="0"/>
        <pt x="372" y="-1" on="0"/>
        <pt x="427" y="25" on="0"/>
        <pt x="461" y="77" on="0"/>
        <pt x="483" y="134" on="0"/>
        <pt x="493" y="218" on="0"/>
        <pt x="496" y="282" on="0"/>
        <pt x="496" y="374" on="0"/>
        <pt x="493" y="437" on="0"/>
        <pt x="483" y="520" on="0"/>
        <pt x="461" y="575" on="0"/>
        <pt x="427" y="626" on="0"/>
        <pt x="372" y="651" on="0"/>
        <pt x="298" y="651" on="0"/>
        <pt x="243" y="626" on="0"/>
        <pt x="209" y="575" on="0"/>
        <pt x="187" y="520" on="0"/>
        <pt x="182" y="478" on="1"/>
        <pt x="174" y="412" on="0"/>
        <pt x="174" y="279" on="0"/>
        <pt x="176" y="218" on="0"/>
        <pt x="185" y="131" on="0"/>
        <pt x="207" y="77" on="0"/>
      </contour>
      <contour>
        <pt x="364" y="767" on="0"/>
        <pt x="364" y="817" on="0"/>
        <pt x="400" y="852" on="0"/>
        <pt x="450" y="852" on="0"/>
        <pt x="485" y="817" on="0"/>
        <pt x="485" y="767" on="0"/>
        <pt x="450" y="731" on="0"/>
        <pt x="400" y="731" on="0"/>
      </contour>
      <contour>
        <pt x="185" y="767" on="0"/>
        <pt x="185" y="817" on="0"/>
        <pt x="220" y="852" on="0"/>
        <pt x="270" y="852" on="0"/>
        <pt x="306" y="817" on="0"/>
        <pt x="306" y="767" on="0"/>
        <pt x="270" y="731" on="0"/>
        <pt x="220" y="731" on="0"/>
      </contour>
    </TTGlyph>
    <TTGlyph name="Ograve" xMin="52" yMin="-20" xMax="618" yMax="861">
      <contour>
        <pt x="202" y="828" on="1"/>
        <pt x="202" y="843" on="0"/>
        <pt x="221" y="861" on="0"/>
        <pt x="260" y="861" on="0"/>
        <pt x="282" y="834" on="1"/>
        <pt x="286" y="826" on="0"/>
        <pt x="304" y="808" on="0"/>
        <pt x="319" y="790" on="0"/>
        <pt x="330" y="781" on="0"/>
        <pt x="348" y="764" on="0"/>
        <pt x="364" y="752" on="0"/>
        <pt x="375" y="744" on="1"/>
        <pt x="392" y="732" on="0"/>
        <pt x="423" y="715" on="1"/>
        <pt x="416" y="700" on="1"/>
        <pt x="236" y="784" on="1"/>
        <pt x="202" y="799" on="0"/>
      </contour>
      <contour>
        <pt x="469" y="-20" on="0"/>
        <pt x="201" y="-20" on="0"/>
        <pt x="52" y="181" on="0"/>
        <pt x="52" y="471" on="0"/>
        <pt x="204" y="670" on="0"/>
        <pt x="466" y="670" on="0"/>
        <pt x="618" y="471" on="0"/>
        <pt x="618" y="181" on="0"/>
      </contour>
      <contour>
        <pt x="241" y="24" on="0"/>
        <pt x="297" y="-1" on="0"/>
        <pt x="372" y="-1" on="0"/>
        <pt x="427" y="25" on="0"/>
        <pt x="461" y="77" on="0"/>
        <pt x="483" y="134" on="0"/>
        <pt x="493" y="218" on="0"/>
        <pt x="496" y="282" on="0"/>
        <pt x="496" y="374" on="0"/>
        <pt x="493" y="437" on="0"/>
        <pt x="483" y="520" on="0"/>
        <pt x="461" y="575" on="0"/>
        <pt x="427" y="626" on="0"/>
        <pt x="372" y="651" on="0"/>
        <pt x="298" y="651" on="0"/>
        <pt x="243" y="626" on="0"/>
        <pt x="209" y="575" on="0"/>
        <pt x="187" y="520" on="0"/>
        <pt x="182" y="478" on="1"/>
        <pt x="174" y="412" on="0"/>
        <pt x="174" y="279" on="0"/>
        <pt x="176" y="218" on="0"/>
        <pt x="185" y="131" on="0"/>
        <pt x="207" y="77" on="0"/>
      </contour>
    </TTGlyph>
    <TTGlyph name="Oslash" xMin="52" yMin="-72" xMax="618" yMax="710">
      <contour>
        <pt x="335" y="-20" on="1"/>
        <pt x="265" y="-20" on="0"/>
        <pt x="206" y="11" on="1"/>
        <pt x="167" y="-72" on="1"/>
        <pt x="143" y="-72" on="1"/>
        <pt x="187" y="23" on="1"/>
        <pt x="122" y="67" on="0"/>
        <pt x="52" y="230" on="0"/>
        <pt x="52" y="328" on="1"/>
        <pt x="52" y="471" on="0"/>
        <pt x="204" y="670" on="0"/>
        <pt x="335" y="670" on="1"/>
        <pt x="409" y="670" on="0"/>
        <pt x="472" y="633" on="1"/>
        <pt x="508" y="710" on="1"/>
        <pt x="533" y="710" on="1"/>
        <pt x="491" y="620" on="1"/>
        <pt x="552" y="575" on="0"/>
        <pt x="618" y="419" on="0"/>
        <pt x="618" y="328" on="1"/>
        <pt x="618" y="181" on="0"/>
        <pt x="469" y="-20" on="0"/>
      </contour>
      <contour>
        <pt x="177" y="437" on="0"/>
        <pt x="174" y="374" on="0"/>
        <pt x="174" y="268" on="0"/>
        <pt x="177" y="196" on="0"/>
        <pt x="194" y="101" on="0"/>
        <pt x="210" y="71" on="1"/>
        <pt x="452" y="590" on="1"/>
        <pt x="412" y="651" on="0"/>
        <pt x="335" y="651" on="1"/>
        <pt x="260" y="651" on="0"/>
        <pt x="226" y="600" on="1"/>
        <pt x="190" y="547" on="0"/>
      </contour>
      <contour>
        <pt x="496" y="328" on="1"/>
        <pt x="496" y="494" on="0"/>
        <pt x="465" y="565" on="1"/>
        <pt x="224" y="49" on="1"/>
        <pt x="263" y="-1" on="0"/>
        <pt x="410" y="-1" on="0"/>
        <pt x="480" y="105" on="0"/>
        <pt x="496" y="243" on="0"/>
      </contour>
    </TTGlyph>
    <TTGlyph name="Otilde" xMin="52" yMin="-20" xMax="618" yMax="852">
      <contour>
        <pt x="469" y="-20" on="0"/>
        <pt x="201" y="-20" on="0"/>
        <pt x="52" y="181" on="0"/>
        <pt x="52" y="471" on="0"/>
        <pt x="204" y="670" on="0"/>
        <pt x="466" y="670" on="0"/>
        <pt x="618" y="471" on="0"/>
        <pt x="618" y="181" on="0"/>
      </contour>
      <contour>
        <pt x="241" y="24" on="0"/>
        <pt x="297" y="-1" on="0"/>
        <pt x="372" y="-1" on="0"/>
        <pt x="427" y="25" on="0"/>
        <pt x="461" y="77" on="0"/>
        <pt x="483" y="134" on="0"/>
        <pt x="493" y="218" on="0"/>
        <pt x="496" y="282" on="0"/>
        <pt x="496" y="374" on="0"/>
        <pt x="493" y="437" on="0"/>
        <pt x="483" y="520" on="0"/>
        <pt x="461" y="575" on="0"/>
        <pt x="427" y="626" on="0"/>
        <pt x="372" y="651" on="0"/>
        <pt x="298" y="651" on="0"/>
        <pt x="243" y="626" on="0"/>
        <pt x="209" y="575" on="0"/>
        <pt x="187" y="520" on="0"/>
        <pt x="182" y="478" on="1"/>
        <pt x="174" y="412" on="0"/>
        <pt x="174" y="279" on="0"/>
        <pt x="176" y="218" on="0"/>
        <pt x="185" y="131" on="0"/>
        <pt x="207" y="77" on="0"/>
      </contour>
      <contour>
        <pt x="190" y="789" on="0"/>
        <pt x="230" y="852" on="0"/>
        <pt x="291" y="852" on="0"/>
        <pt x="398" y="800" on="0"/>
        <pt x="418" y="800" on="1"/>
        <pt x="468" y="800" on="0"/>
        <pt x="468" y="851" on="1"/>
        <pt x="483" y="851" on="1"/>
        <pt x="483" y="804" on="0"/>
        <pt x="443" y="741" on="0"/>
        <pt x="382" y="741" on="0"/>
        <pt x="274" y="793" on="0"/>
        <pt x="255" y="793" on="1"/>
        <pt x="205" y="793" on="0"/>
        <pt x="205" y="742" on="1"/>
        <pt x="190" y="742" on="1"/>
      </contour>
    </TTGlyph>
    <TTGlyph name="P" xMin="52" yMin="0" xMax="555" yMax="670">
      <contour>
        <pt x="125" y="441" on="1"/>
        <pt x="153" y="421" on="0"/>
        <pt x="211" y="421" on="0"/>
        <pt x="229" y="429" on="1"/>
        <pt x="229" y="299" on="1"/>
        <pt x="287" y="299" on="1"/>
        <pt x="372" y="299" on="0"/>
        <pt x="443" y="385" on="0"/>
        <pt x="443" y="475" on="1"/>
        <pt x="443" y="650" on="0"/>
        <pt x="299" y="650" on="1"/>
        <pt x="208" y="650" on="0"/>
        <pt x="160" y="612" on="1"/>
        <pt x="145" y="601" on="0"/>
        <pt x="128" y="569" on="0"/>
        <pt x="128" y="550" on="0"/>
        <pt x="144" y="550" on="0"/>
        <pt x="147" y="558" on="1"/>
        <pt x="159" y="589" on="0"/>
        <pt x="194" y="589" on="1"/>
        <pt x="216" y="589" on="0"/>
        <pt x="247" y="557" on="0"/>
        <pt x="247" y="501" on="0"/>
        <pt x="207" y="467" on="0"/>
        <pt x="151" y="467" on="0"/>
        <pt x="108" y="511" on="0"/>
        <pt x="108" y="545" on="1"/>
        <pt x="108" y="599" on="0"/>
        <pt x="217" y="670" on="0"/>
        <pt x="303" y="670" on="1"/>
        <pt x="419" y="670" on="0"/>
        <pt x="555" y="576" on="0"/>
        <pt x="555" y="374" on="0"/>
        <pt x="437" y="283" on="0"/>
        <pt x="319" y="283" on="1"/>
        <pt x="229" y="283" on="1"/>
        <pt x="229" y="16" on="1"/>
        <pt x="312" y="16" on="1"/>
        <pt x="312" y="0" on="1"/>
        <pt x="52" y="0" on="1"/>
        <pt x="52" y="16" on="1"/>
        <pt x="125" y="16" on="1"/>
      </contour>
    </TTGlyph>
    <TTGlyph name="Q" xMin="52" yMin="-179" xMax="657" yMax="670">
      <contour>
        <pt x="469" y="-20" on="0"/>
        <pt x="201" y="-20" on="0"/>
        <pt x="52" y="181" on="0"/>
        <pt x="52" y="471" on="0"/>
        <pt x="204" y="670" on="0"/>
        <pt x="466" y="670" on="0"/>
        <pt x="618" y="471" on="0"/>
        <pt x="618" y="181" on="0"/>
      </contour>
      <contour>
        <pt x="241" y="24" on="0"/>
        <pt x="297" y="-1" on="0"/>
        <pt x="372" y="-1" on="0"/>
        <pt x="427" y="25" on="0"/>
        <pt x="461" y="77" on="0"/>
        <pt x="483" y="134" on="0"/>
        <pt x="493" y="218" on="0"/>
        <pt x="496" y="282" on="0"/>
        <pt x="496" y="374" on="0"/>
        <pt x="493" y="437" on="0"/>
        <pt x="483" y="520" on="0"/>
        <pt x="461" y="575" on="0"/>
        <pt x="427" y="626" on="0"/>
        <pt x="372" y="651" on="0"/>
        <pt x="298" y="651" on="0"/>
        <pt x="243" y="626" on="0"/>
        <pt x="209" y="575" on="0"/>
        <pt x="187" y="520" on="0"/>
        <pt x="182" y="478" on="1"/>
        <pt x="174" y="412" on="0"/>
        <pt x="174" y="279" on="0"/>
        <pt x="176" y="218" on="0"/>
        <pt x="185" y="131" on="0"/>
        <pt x="207" y="77" on="0"/>
      </contour>
      <contour>
        <pt x="566" y="-161" on="1"/>
        <pt x="599" y="-161" on="0"/>
        <pt x="636" y="-123" on="0"/>
        <pt x="636" y="-103" on="1"/>
        <pt x="636" y="-94" on="0"/>
        <pt x="620" y="-94" on="0"/>
        <pt x="617" y="-102" on="1"/>
        <pt x="605" y="-133" on="0"/>
        <pt x="571" y="-133" on="1"/>
        <pt x="549" y="-133" on="0"/>
        <pt x="518" y="-101" on="0"/>
        <pt x="518" y="-45" on="0"/>
        <pt x="558" y="-11" on="0"/>
        <pt x="614" y="-11" on="0"/>
        <pt x="657" y="-55" on="0"/>
        <pt x="657" y="-126" on="0"/>
        <pt x="607" y="-179" on="0"/>
        <pt x="516" y="-179" on="0"/>
        <pt x="454" y="-116" on="0"/>
        <pt x="425" y="-27" on="0"/>
        <pt x="398" y="63" on="0"/>
        <pt x="345" y="126" on="0"/>
        <pt x="303" y="126" on="1"/>
        <pt x="277" y="126" on="0"/>
        <pt x="239" y="90" on="0"/>
        <pt x="239" y="36" on="0"/>
        <pt x="266" y="14" on="1"/>
        <pt x="248" y="10" on="1"/>
        <pt x="213" y="42" on="0"/>
        <pt x="213" y="129" on="0"/>
        <pt x="266" y="193" on="0"/>
        <pt x="368" y="193" on="0"/>
        <pt x="428" y="120" on="0"/>
        <pt x="447" y="16" on="0"/>
        <pt x="465" y="-88" on="0"/>
        <pt x="517" y="-161" on="0"/>
      </contour>
    </TTGlyph>
    <TTGlyph name="R" xMin="52" yMin="-10" xMax="635" yMax="670">
      <contour>
        <pt x="125" y="441" on="1"/>
        <pt x="153" y="421" on="0"/>
        <pt x="211" y="421" on="0"/>
        <pt x="229" y="429" on="1"/>
        <pt x="229" y="346" on="1"/>
        <pt x="293" y="346" on="1"/>
        <pt x="375" y="346" on="0"/>
        <pt x="440" y="406" on="0"/>
        <pt x="440" y="488" on="1"/>
        <pt x="440" y="650" on="0"/>
        <pt x="299" y="650" on="1"/>
        <pt x="208" y="650" on="0"/>
        <pt x="160" y="612" on="1"/>
        <pt x="145" y="601" on="0"/>
        <pt x="128" y="569" on="0"/>
        <pt x="128" y="550" on="0"/>
        <pt x="144" y="550" on="0"/>
        <pt x="147" y="558" on="1"/>
        <pt x="159" y="589" on="0"/>
        <pt x="194" y="589" on="1"/>
        <pt x="216" y="589" on="0"/>
        <pt x="247" y="557" on="0"/>
        <pt x="247" y="501" on="0"/>
        <pt x="207" y="467" on="0"/>
        <pt x="151" y="467" on="0"/>
        <pt x="108" y="511" on="0"/>
        <pt x="108" y="545" on="1"/>
        <pt x="108" y="599" on="0"/>
        <pt x="217" y="670" on="0"/>
        <pt x="303" y="670" on="1"/>
        <pt x="419" y="670" on="0"/>
        <pt x="552" y="583" on="0"/>
        <pt x="552" y="497" on="1"/>
        <pt x="552" y="434" on="0"/>
        <pt x="469" y="351" on="0"/>
        <pt x="395" y="341" on="1"/>
        <pt x="395" y="336" on="1"/>
        <pt x="487" y="336" on="0"/>
        <pt x="546" y="248" on="0"/>
        <pt x="546" y="142" on="1"/>
        <pt x="546" y="96" on="1"/>
        <pt x="546" y="60" on="0"/>
        <pt x="556" y="33" on="0"/>
        <pt x="581" y="33" on="0"/>
        <pt x="608" y="73" on="0"/>
        <pt x="617" y="113" on="1"/>
        <pt x="635" y="109" on="1"/>
        <pt x="611" y="-10" on="0"/>
        <pt x="520" y="-10" on="1"/>
        <pt x="484" y="-10" on="0"/>
        <pt x="440" y="50" on="0"/>
        <pt x="440" y="109" on="1"/>
        <pt x="440" y="175" on="1"/>
        <pt x="440" y="260" on="0"/>
        <pt x="373" y="330" on="0"/>
        <pt x="301" y="330" on="1"/>
        <pt x="229" y="330" on="1"/>
        <pt x="229" y="16" on="1"/>
        <pt x="312" y="16" on="1"/>
        <pt x="312" y="0" on="1"/>
        <pt x="52" y="0" on="1"/>
        <pt x="52" y="16" on="1"/>
        <pt x="125" y="16" on="1"/>
      </contour>
    </TTGlyph>
    <TTGlyph name="Racute" xMin="52" yMin="-10" xMax="635" yMax="861">
      <contour>
        <pt x="520" y="-10" on="1"/>
        <pt x="484" y="-10" on="0"/>
        <pt x="440" y="50" on="0"/>
        <pt x="440" y="109" on="1"/>
        <pt x="440" y="175" on="1"/>
        <pt x="440" y="260" on="0"/>
        <pt x="373" y="330" on="0"/>
        <pt x="301" y="330" on="1"/>
        <pt x="229" y="330" on="1"/>
        <pt x="229" y="16" on="1"/>
        <pt x="312" y="16" on="1"/>
        <pt x="312" y="0" on="1"/>
        <pt x="52" y="0" on="1"/>
        <pt x="52" y="16" on="1"/>
        <pt x="125" y="16" on="1"/>
        <pt x="125" y="634" on="1"/>
        <pt x="52" y="634" on="1"/>
        <pt x="52" y="650" on="1"/>
        <pt x="293" y="650" on="1"/>
        <pt x="444" y="650" on="0"/>
        <pt x="497" y="616" on="1"/>
        <pt x="520" y="602" on="0"/>
        <pt x="552" y="547" on="0"/>
        <pt x="552" y="508" on="1"/>
        <pt x="552" y="440" on="0"/>
        <pt x="472" y="351" on="0"/>
        <pt x="395" y="341" on="1"/>
        <pt x="395" y="336" on="1"/>
        <pt x="487" y="336" on="0"/>
        <pt x="546" y="248" on="0"/>
        <pt x="546" y="142" on="1"/>
        <pt x="546" y="96" on="1"/>
        <pt x="546" y="60" on="0"/>
        <pt x="556" y="33" on="0"/>
        <pt x="581" y="33" on="0"/>
        <pt x="608" y="73" on="0"/>
        <pt x="617" y="113" on="1"/>
        <pt x="635" y="109" on="1"/>
        <pt x="611" y="-10" on="0"/>
      </contour>
      <contour>
        <pt x="377" y="346" on="0"/>
        <pt x="440" y="411" on="0"/>
        <pt x="440" y="584" on="0"/>
        <pt x="367" y="634" on="0"/>
        <pt x="279" y="634" on="1"/>
        <pt x="229" y="634" on="1"/>
        <pt x="229" y="346" on="1"/>
        <pt x="293" y="346" on="1"/>
      </contour>
      <contour>
        <pt x="349" y="834" on="1"/>
        <pt x="372" y="861" on="0"/>
        <pt x="410" y="861" on="0"/>
        <pt x="429" y="843" on="0"/>
        <pt x="429" y="828" on="1"/>
        <pt x="429" y="799" on="0"/>
        <pt x="395" y="784" on="1"/>
        <pt x="215" y="700" on="1"/>
        <pt x="208" y="715" on="1"/>
        <pt x="255" y="740" on="0"/>
        <pt x="294" y="774" on="0"/>
        <pt x="305" y="783" on="0"/>
        <pt x="325" y="806" on="0"/>
        <pt x="329" y="810" on="0"/>
        <pt x="339" y="822" on="1"/>
      </contour>
    </TTGlyph>
    <TTGlyph name="Rcaron" xMin="52" yMin="-10" xMax="635" yMax="861">
      <contour>
        <pt x="520" y="-10" on="1"/>
        <pt x="484" y="-10" on="0"/>
        <pt x="440" y="50" on="0"/>
        <pt x="440" y="109" on="1"/>
        <pt x="440" y="175" on="1"/>
        <pt x="440" y="260" on="0"/>
        <pt x="373" y="330" on="0"/>
        <pt x="301" y="330" on="1"/>
        <pt x="229" y="330" on="1"/>
        <pt x="229" y="16" on="1"/>
        <pt x="312" y="16" on="1"/>
        <pt x="312" y="0" on="1"/>
        <pt x="52" y="0" on="1"/>
        <pt x="52" y="16" on="1"/>
        <pt x="125" y="16" on="1"/>
        <pt x="125" y="634" on="1"/>
        <pt x="52" y="634" on="1"/>
        <pt x="52" y="650" on="1"/>
        <pt x="293" y="650" on="1"/>
        <pt x="444" y="650" on="0"/>
        <pt x="497" y="616" on="1"/>
        <pt x="520" y="602" on="0"/>
        <pt x="552" y="547" on="0"/>
        <pt x="552" y="508" on="1"/>
        <pt x="552" y="440" on="0"/>
        <pt x="472" y="351" on="0"/>
        <pt x="395" y="341" on="1"/>
        <pt x="395" y="336" on="1"/>
        <pt x="487" y="336" on="0"/>
        <pt x="546" y="248" on="0"/>
        <pt x="546" y="142" on="1"/>
        <pt x="546" y="96" on="1"/>
        <pt x="546" y="60" on="0"/>
        <pt x="556" y="33" on="0"/>
        <pt x="581" y="33" on="0"/>
        <pt x="608" y="73" on="0"/>
        <pt x="617" y="113" on="1"/>
        <pt x="635" y="109" on="1"/>
        <pt x="611" y="-10" on="0"/>
      </contour>
      <contour>
        <pt x="377" y="346" on="0"/>
        <pt x="440" y="411" on="0"/>
        <pt x="440" y="584" on="0"/>
        <pt x="367" y="634" on="0"/>
        <pt x="279" y="634" on="1"/>
        <pt x="229" y="634" on="1"/>
        <pt x="229" y="346" on="1"/>
        <pt x="293" y="346" on="1"/>
      </contour>
      <contour>
        <pt x="328" y="700" on="0"/>
        <pt x="282" y="700" on="0"/>
        <pt x="259" y="727" on="1"/>
        <pt x="255" y="735" on="0"/>
        <pt x="237" y="753" on="0"/>
        <pt x="222" y="771" on="0"/>
        <pt x="211" y="780" on="0"/>
        <pt x="193" y="797" on="0"/>
        <pt x="177" y="809" on="0"/>
        <pt x="166" y="817" on="1"/>
        <pt x="149" y="829" on="0"/>
        <pt x="118" y="846" on="1"/>
        <pt x="125" y="861" on="1"/>
        <pt x="305" y="777" on="1"/>
        <pt x="485" y="861" on="1"/>
        <pt x="492" y="846" on="1"/>
        <pt x="445" y="821" on="0"/>
        <pt x="406" y="787" on="0"/>
        <pt x="395" y="778" on="0"/>
        <pt x="375" y="755" on="0"/>
        <pt x="371" y="751" on="0"/>
        <pt x="361" y="739" on="1"/>
        <pt x="351" y="727" on="1"/>
      </contour>
    </TTGlyph>
    <TTGlyph name="Rcommaaccent" xMin="52" yMin="-204" xMax="635" yMax="650">
      <contour>
        <pt x="520" y="-10" on="1"/>
        <pt x="484" y="-10" on="0"/>
        <pt x="440" y="50" on="0"/>
        <pt x="440" y="109" on="1"/>
        <pt x="440" y="175" on="1"/>
        <pt x="440" y="260" on="0"/>
        <pt x="373" y="330" on="0"/>
        <pt x="301" y="330" on="1"/>
        <pt x="229" y="330" on="1"/>
        <pt x="229" y="16" on="1"/>
        <pt x="312" y="16" on="1"/>
        <pt x="312" y="0" on="1"/>
        <pt x="52" y="0" on="1"/>
        <pt x="52" y="16" on="1"/>
        <pt x="125" y="16" on="1"/>
        <pt x="125" y="634" on="1"/>
        <pt x="52" y="634" on="1"/>
        <pt x="52" y="650" on="1"/>
        <pt x="293" y="650" on="1"/>
        <pt x="444" y="650" on="0"/>
        <pt x="497" y="616" on="1"/>
        <pt x="520" y="602" on="0"/>
        <pt x="552" y="547" on="0"/>
        <pt x="552" y="508" on="1"/>
        <pt x="552" y="440" on="0"/>
        <pt x="472" y="351" on="0"/>
        <pt x="395" y="341" on="1"/>
        <pt x="395" y="336" on="1"/>
        <pt x="487" y="336" on="0"/>
        <pt x="546" y="248" on="0"/>
        <pt x="546" y="142" on="1"/>
        <pt x="546" y="96" on="1"/>
        <pt x="546" y="60" on="0"/>
        <pt x="556" y="33" on="0"/>
        <pt x="581" y="33" on="0"/>
        <pt x="608" y="73" on="0"/>
        <pt x="617" y="113" on="1"/>
        <pt x="635" y="109" on="1"/>
        <pt x="611" y="-10" on="0"/>
      </contour>
      <contour>
        <pt x="377" y="346" on="0"/>
        <pt x="440" y="411" on="0"/>
        <pt x="440" y="584" on="0"/>
        <pt x="367" y="634" on="0"/>
        <pt x="279" y="634" on="1"/>
        <pt x="229" y="634" on="1"/>
        <pt x="229" y="346" on="1"/>
        <pt x="293" y="346" on="1"/>
      </contour>
      <contour>
        <pt x="377" y="-46" on="0"/>
        <pt x="415" y="-87" on="0"/>
        <pt x="415" y="-154" on="0"/>
        <pt x="370" y="-203" on="0"/>
        <pt x="333" y="-204" on="1"/>
        <pt x="329" y="-186" on="1"/>
        <pt x="358" y="-186" on="0"/>
        <pt x="395" y="-151" on="0"/>
        <pt x="395" y="-128" on="1"/>
        <pt x="395" y="-118" on="0"/>
        <pt x="378" y="-118" on="0"/>
        <pt x="377" y="-127" on="1"/>
        <pt x="371" y="-154" on="0"/>
        <pt x="318" y="-154" on="0"/>
        <pt x="291" y="-125" on="0"/>
        <pt x="291" y="-78" on="0"/>
        <pt x="324" y="-46" on="0"/>
      </contour>
    </TTGlyph>
    <TTGlyph name="S" xMin="24" yMin="-20" xMax="460" yMax="670">
      <contour>
        <pt x="50" y="87" on="1"/>
        <pt x="67" y="45" on="0"/>
        <pt x="161" y="-1" on="0"/>
        <pt x="286" y="-1" on="0"/>
        <pt x="384" y="69" on="0"/>
        <pt x="384" y="135" on="1"/>
        <pt x="384" y="186" on="0"/>
        <pt x="314" y="254" on="0"/>
        <pt x="215" y="295" on="0"/>
        <pt x="116" y="341" on="0"/>
        <pt x="46" y="427" on="0"/>
        <pt x="46" y="490" on="1"/>
        <pt x="46" y="573" on="0"/>
        <pt x="163" y="670" on="0"/>
        <pt x="330" y="670" on="0"/>
        <pt x="428" y="599" on="0"/>
        <pt x="428" y="545" on="1"/>
        <pt x="428" y="511" on="0"/>
        <pt x="385" y="467" on="0"/>
        <pt x="329" y="467" on="0"/>
        <pt x="289" y="501" on="0"/>
        <pt x="289" y="557" on="0"/>
        <pt x="320" y="589" on="0"/>
        <pt x="342" y="589" on="1"/>
        <pt x="377" y="589" on="0"/>
        <pt x="389" y="558" on="1"/>
        <pt x="392" y="550" on="0"/>
        <pt x="399" y="550" on="1"/>
        <pt x="410" y="550" on="0"/>
        <pt x="408" y="560" on="1"/>
        <pt x="403" y="596" on="0"/>
        <pt x="324" y="651" on="0"/>
        <pt x="205" y="651" on="0"/>
        <pt x="122" y="586" on="0"/>
        <pt x="122" y="483" on="0"/>
        <pt x="192" y="415" on="0"/>
        <pt x="291" y="374" on="0"/>
        <pt x="390" y="328" on="0"/>
        <pt x="460" y="242" on="0"/>
        <pt x="460" y="179" on="1"/>
        <pt x="460" y="83" on="0"/>
        <pt x="320" y="-20" on="0"/>
        <pt x="143" y="-20" on="0"/>
        <pt x="24" y="59" on="0"/>
        <pt x="24" y="127" on="1"/>
        <pt x="24" y="161" on="0"/>
        <pt x="67" y="205" on="0"/>
        <pt x="123" y="205" on="0"/>
        <pt x="163" y="171" on="0"/>
        <pt x="163" y="115" on="0"/>
        <pt x="132" y="83" on="0"/>
        <pt x="110" y="83" on="1"/>
        <pt x="74" y="83" on="0"/>
        <pt x="62" y="114" on="1"/>
        <pt x="59" y="122" on="0"/>
        <pt x="43" y="122" on="0"/>
        <pt x="43" y="106" on="0"/>
      </contour>
    </TTGlyph>
    <TTGlyph name="T" xMin="-54" yMin="0" xMax="592" yMax="798">
      <contour>
        <pt x="143" y="0" on="1"/>
        <pt x="143" y="16" on="1"/>
        <pt x="216" y="16" on="1"/>
        <pt x="216" y="644" on="1"/>
        <pt x="199" y="650" on="1"/>
        <pt x="188" y="654" on="0"/>
        <pt x="139" y="672" on="0"/>
        <pt x="123" y="677" on="1"/>
        <pt x="75" y="692" on="0"/>
        <pt x="11" y="692" on="0"/>
        <pt x="-33" y="659" on="0"/>
        <pt x="-33" y="637" on="1"/>
        <pt x="-33" y="628" on="0"/>
        <pt x="-17" y="628" on="0"/>
        <pt x="-14" y="636" on="1"/>
        <pt x="-2" y="667" on="0"/>
        <pt x="32" y="667" on="1"/>
        <pt x="54" y="667" on="0"/>
        <pt x="85" y="635" on="0"/>
        <pt x="85" y="579" on="0"/>
        <pt x="45" y="545" on="0"/>
        <pt x="-11" y="545" on="0"/>
        <pt x="-54" y="589" on="0"/>
        <pt x="-54" y="668" on="0"/>
        <pt x="-16" y="694" on="1"/>
        <pt x="9" y="710" on="0"/>
        <pt x="72" y="710" on="0"/>
        <pt x="137" y="693" on="0"/>
        <pt x="225" y="660" on="0"/>
        <pt x="239" y="656" on="1"/>
        <pt x="392" y="609" on="0"/>
        <pt x="508" y="609" on="0"/>
        <pt x="574" y="670" on="0"/>
        <pt x="574" y="740" on="0"/>
        <pt x="538" y="777" on="0"/>
        <pt x="510" y="777" on="0"/>
        <pt x="510" y="761" on="0"/>
        <pt x="518" y="758" on="1"/>
        <pt x="549" y="746" on="0"/>
        <pt x="549" y="712" on="1"/>
        <pt x="549" y="690" on="0"/>
        <pt x="517" y="659" on="0"/>
        <pt x="461" y="659" on="0"/>
        <pt x="427" y="699" on="0"/>
        <pt x="427" y="755" on="0"/>
        <pt x="471" y="798" on="0"/>
        <pt x="543" y="798" on="0"/>
        <pt x="592" y="747" on="0"/>
        <pt x="592" y="663" on="0"/>
        <pt x="519" y="590" on="0"/>
        <pt x="398" y="590" on="0"/>
        <pt x="320" y="612" on="1"/>
        <pt x="320" y="16" on="1"/>
        <pt x="403" y="16" on="1"/>
        <pt x="403" y="0" on="1"/>
      </contour>
    </TTGlyph>
    <TTGlyph name="Thorn" xMin="26" yMin="0" xMax="540" yMax="690">
      <contour>
        <pt x="94" y="675" on="1"/>
        <pt x="26" y="675" on="1"/>
        <pt x="26" y="690" on="1"/>
        <pt x="250" y="690" on="1"/>
        <pt x="250" y="675" on="1"/>
        <pt x="183" y="675" on="1"/>
        <pt x="183" y="561" on="1"/>
        <pt x="254" y="561" on="1"/>
        <pt x="414" y="561" on="0"/>
        <pt x="540" y="471" on="0"/>
        <pt x="540" y="372" on="1"/>
        <pt x="540" y="302" on="0"/>
        <pt x="466" y="210" on="0"/>
        <pt x="359" y="175" on="0"/>
        <pt x="234" y="175" on="0"/>
        <pt x="183" y="187" on="1"/>
        <pt x="183" y="15" on="1"/>
        <pt x="251" y="15" on="1"/>
        <pt x="251" y="0" on="1"/>
        <pt x="27" y="0" on="1"/>
        <pt x="27" y="15" on="1"/>
        <pt x="94" y="15" on="1"/>
      </contour>
      <contour>
        <pt x="218" y="545" on="1"/>
        <pt x="183" y="545" on="1"/>
        <pt x="183" y="205" on="1"/>
        <pt x="233" y="195" on="0"/>
        <pt x="274" y="195" on="1"/>
        <pt x="443" y="195" on="0"/>
        <pt x="443" y="372" on="1"/>
        <pt x="443" y="465" on="0"/>
        <pt x="333" y="545" on="0"/>
      </contour>
    </TTGlyph>
    <TTGlyph name="U" xMin="43" yMin="-20" xMax="591" yMax="660">
      <contour>
        <pt x="449" y="4" on="0"/>
        <pt x="538" y="121" on="0"/>
        <pt x="572" y="294" on="0"/>
        <pt x="572" y="512" on="0"/>
        <pt x="512" y="642" on="0"/>
        <pt x="452" y="642" on="1"/>
        <pt x="419" y="642" on="0"/>
        <pt x="382" y="606" on="0"/>
        <pt x="382" y="578" on="0"/>
        <pt x="398" y="578" on="0"/>
        <pt x="401" y="586" on="1"/>
        <pt x="413" y="617" on="0"/>
        <pt x="447" y="617" on="1"/>
        <pt x="469" y="617" on="0"/>
        <pt x="500" y="585" on="0"/>
        <pt x="500" y="529" on="0"/>
        <pt x="460" y="495" on="0"/>
        <pt x="404" y="495" on="0"/>
        <pt x="361" y="539" on="0"/>
        <pt x="361" y="608" on="0"/>
        <pt x="411" y="660" on="0"/>
        <pt x="449" y="660" on="1"/>
        <pt x="591" y="660" on="0"/>
        <pt x="591" y="407" on="1"/>
        <pt x="591" y="227" on="0"/>
        <pt x="552" y="131" on="1"/>
        <pt x="513" y="32" on="0"/>
        <pt x="448" y="0" on="1"/>
        <pt x="410" y="-20" on="0"/>
        <pt x="291" y="-20" on="0"/>
        <pt x="194" y="27" on="0"/>
        <pt x="166" y="73" on="1"/>
        <pt x="116" y="157" on="0"/>
        <pt x="116" y="308" on="1"/>
        <pt x="116" y="634" on="1"/>
        <pt x="43" y="634" on="1"/>
        <pt x="43" y="650" on="1"/>
        <pt x="303" y="650" on="1"/>
        <pt x="303" y="634" on="1"/>
        <pt x="220" y="634" on="1"/>
        <pt x="220" y="308" on="1"/>
        <pt x="220" y="167" on="0"/>
        <pt x="234" y="118" on="1"/>
        <pt x="251" y="57" on="0"/>
        <pt x="280" y="35" on="1"/>
        <pt x="321" y="4" on="0"/>
      </contour>
    </TTGlyph>
    <TTGlyph name="Uacute" xMin="43" yMin="-20" xMax="693" yMax="861">
      <contour>
        <pt x="116" y="634" on="1"/>
        <pt x="43" y="634" on="1"/>
        <pt x="43" y="650" on="1"/>
        <pt x="303" y="650" on="1"/>
        <pt x="303" y="634" on="1"/>
        <pt x="220" y="634" on="1"/>
        <pt x="220" y="308" on="1"/>
        <pt x="220" y="168" on="0"/>
        <pt x="234" y="118" on="1"/>
        <pt x="251" y="57" on="0"/>
        <pt x="281" y="34" on="1"/>
        <pt x="322" y="3" on="0"/>
        <pt x="422" y="3" on="0"/>
        <pt x="482" y="37" on="0"/>
        <pt x="516" y="90" on="0"/>
        <pt x="526" y="130" on="1"/>
        <pt x="542" y="195" on="0"/>
        <pt x="542" y="293" on="1"/>
        <pt x="542" y="507" on="1"/>
        <pt x="542" y="580" on="0"/>
        <pt x="487" y="634" on="0"/>
        <pt x="414" y="634" on="1"/>
        <pt x="407" y="634" on="1"/>
        <pt x="407" y="650" on="1"/>
        <pt x="693" y="650" on="1"/>
        <pt x="693" y="634" on="1"/>
        <pt x="620" y="634" on="0"/>
        <pt x="562" y="579" on="0"/>
        <pt x="562" y="507" on="1"/>
        <pt x="562" y="328" on="1"/>
        <pt x="562" y="176" on="0"/>
        <pt x="542" y="112" on="1"/>
        <pt x="520" y="45" on="0"/>
        <pt x="482" y="16" on="1"/>
        <pt x="435" y="-20" on="0"/>
        <pt x="291" y="-20" on="0"/>
        <pt x="194" y="27" on="0"/>
        <pt x="166" y="73" on="1"/>
        <pt x="116" y="157" on="0"/>
        <pt x="116" y="308" on="1"/>
      </contour>
      <contour>
        <pt x="434" y="834" on="1"/>
        <pt x="456" y="861" on="0"/>
        <pt x="476" y="861" on="1"/>
        <pt x="514" y="861" on="0"/>
        <pt x="514" y="828" on="1"/>
        <pt x="514" y="799" on="0"/>
        <pt x="480" y="784" on="1"/>
        <pt x="300" y="700" on="1"/>
        <pt x="293" y="715" on="1"/>
        <pt x="340" y="740" on="0"/>
        <pt x="379" y="774" on="0"/>
        <pt x="390" y="783" on="0"/>
        <pt x="410" y="806" on="0"/>
        <pt x="414" y="810" on="0"/>
        <pt x="424" y="822" on="1"/>
      </contour>
    </TTGlyph>
    <TTGlyph name="Ucircumflex" xMin="43" yMin="-20" xMax="693" yMax="861">
      <contour>
        <pt x="116" y="634" on="1"/>
        <pt x="43" y="634" on="1"/>
        <pt x="43" y="650" on="1"/>
        <pt x="303" y="650" on="1"/>
        <pt x="303" y="634" on="1"/>
        <pt x="220" y="634" on="1"/>
        <pt x="220" y="308" on="1"/>
        <pt x="220" y="168" on="0"/>
        <pt x="234" y="118" on="1"/>
        <pt x="251" y="57" on="0"/>
        <pt x="281" y="34" on="1"/>
        <pt x="322" y="3" on="0"/>
        <pt x="422" y="3" on="0"/>
        <pt x="482" y="37" on="0"/>
        <pt x="516" y="90" on="0"/>
        <pt x="526" y="130" on="1"/>
        <pt x="542" y="195" on="0"/>
        <pt x="542" y="293" on="1"/>
        <pt x="542" y="507" on="1"/>
        <pt x="542" y="580" on="0"/>
        <pt x="487" y="634" on="0"/>
        <pt x="414" y="634" on="1"/>
        <pt x="407" y="634" on="1"/>
        <pt x="407" y="650" on="1"/>
        <pt x="693" y="650" on="1"/>
        <pt x="693" y="634" on="1"/>
        <pt x="620" y="634" on="0"/>
        <pt x="562" y="579" on="0"/>
        <pt x="562" y="507" on="1"/>
        <pt x="562" y="328" on="1"/>
        <pt x="562" y="176" on="0"/>
        <pt x="542" y="112" on="1"/>
        <pt x="520" y="45" on="0"/>
        <pt x="482" y="16" on="1"/>
        <pt x="435" y="-20" on="0"/>
        <pt x="291" y="-20" on="0"/>
        <pt x="194" y="27" on="0"/>
        <pt x="166" y="73" on="1"/>
        <pt x="116" y="157" on="0"/>
        <pt x="116" y="308" on="1"/>
      </contour>
      <contour>
        <pt x="358" y="861" on="0"/>
        <pt x="404" y="861" on="0"/>
        <pt x="427" y="834" on="1"/>
        <pt x="431" y="826" on="0"/>
        <pt x="449" y="808" on="0"/>
        <pt x="464" y="790" on="0"/>
        <pt x="475" y="781" on="0"/>
        <pt x="493" y="764" on="0"/>
        <pt x="509" y="752" on="0"/>
        <pt x="520" y="744" on="1"/>
        <pt x="537" y="732" on="0"/>
        <pt x="568" y="715" on="1"/>
        <pt x="561" y="700" on="1"/>
        <pt x="381" y="784" on="1"/>
        <pt x="201" y="700" on="1"/>
        <pt x="194" y="715" on="1"/>
        <pt x="241" y="740" on="0"/>
        <pt x="280" y="774" on="0"/>
        <pt x="291" y="783" on="0"/>
        <pt x="311" y="806" on="0"/>
        <pt x="315" y="810" on="0"/>
        <pt x="325" y="822" on="1"/>
        <pt x="335" y="834" on="1"/>
      </contour>
    </TTGlyph>
    <TTGlyph name="Udieresis" xMin="43" yMin="-20" xMax="693" yMax="852">
      <contour>
        <pt x="116" y="634" on="1"/>
        <pt x="43" y="634" on="1"/>
        <pt x="43" y="650" on="1"/>
        <pt x="303" y="650" on="1"/>
        <pt x="303" y="634" on="1"/>
        <pt x="220" y="634" on="1"/>
        <pt x="220" y="308" on="1"/>
        <pt x="220" y="168" on="0"/>
        <pt x="234" y="118" on="1"/>
        <pt x="251" y="57" on="0"/>
        <pt x="281" y="34" on="1"/>
        <pt x="322" y="3" on="0"/>
        <pt x="422" y="3" on="0"/>
        <pt x="482" y="37" on="0"/>
        <pt x="516" y="90" on="0"/>
        <pt x="526" y="130" on="1"/>
        <pt x="542" y="195" on="0"/>
        <pt x="542" y="293" on="1"/>
        <pt x="542" y="507" on="1"/>
        <pt x="542" y="580" on="0"/>
        <pt x="487" y="634" on="0"/>
        <pt x="414" y="634" on="1"/>
        <pt x="407" y="634" on="1"/>
        <pt x="407" y="650" on="1"/>
        <pt x="693" y="650" on="1"/>
        <pt x="693" y="634" on="1"/>
        <pt x="620" y="634" on="0"/>
        <pt x="562" y="579" on="0"/>
        <pt x="562" y="507" on="1"/>
        <pt x="562" y="328" on="1"/>
        <pt x="562" y="176" on="0"/>
        <pt x="542" y="112" on="1"/>
        <pt x="520" y="45" on="0"/>
        <pt x="482" y="16" on="1"/>
        <pt x="435" y="-20" on="0"/>
        <pt x="291" y="-20" on="0"/>
        <pt x="194" y="27" on="0"/>
        <pt x="166" y="73" on="1"/>
        <pt x="116" y="157" on="0"/>
        <pt x="116" y="308" on="1"/>
      </contour>
      <contour>
        <pt x="395" y="767" on="0"/>
        <pt x="395" y="817" on="0"/>
        <pt x="431" y="852" on="0"/>
        <pt x="481" y="852" on="0"/>
        <pt x="516" y="817" on="0"/>
        <pt x="516" y="767" on="0"/>
        <pt x="481" y="731" on="0"/>
        <pt x="431" y="731" on="0"/>
      </contour>
      <contour>
        <pt x="216" y="767" on="0"/>
        <pt x="216" y="817" on="0"/>
        <pt x="251" y="852" on="0"/>
        <pt x="301" y="852" on="0"/>
        <pt x="337" y="817" on="0"/>
        <pt x="337" y="767" on="0"/>
        <pt x="301" y="731" on="0"/>
        <pt x="251" y="731" on="0"/>
      </contour>
    </TTGlyph>
    <TTGlyph name="Ugrave" xMin="43" yMin="-20" xMax="693" yMax="861">
      <contour>
        <pt x="116" y="634" on="1"/>
        <pt x="43" y="634" on="1"/>
        <pt x="43" y="650" on="1"/>
        <pt x="303" y="650" on="1"/>
        <pt x="303" y="634" on="1"/>
        <pt x="220" y="634" on="1"/>
        <pt x="220" y="308" on="1"/>
        <pt x="220" y="168" on="0"/>
        <pt x="234" y="118" on="1"/>
        <pt x="251" y="57" on="0"/>
        <pt x="281" y="34" on="1"/>
        <pt x="322" y="3" on="0"/>
        <pt x="422" y="3" on="0"/>
        <pt x="482" y="37" on="0"/>
        <pt x="516" y="90" on="0"/>
        <pt x="526" y="130" on="1"/>
        <pt x="542" y="195" on="0"/>
        <pt x="542" y="293" on="1"/>
        <pt x="542" y="507" on="1"/>
        <pt x="542" y="580" on="0"/>
        <pt x="487" y="634" on="0"/>
        <pt x="414" y="634" on="1"/>
        <pt x="407" y="634" on="1"/>
        <pt x="407" y="650" on="1"/>
        <pt x="693" y="650" on="1"/>
        <pt x="693" y="634" on="1"/>
        <pt x="620" y="634" on="0"/>
        <pt x="562" y="579" on="0"/>
        <pt x="562" y="507" on="1"/>
        <pt x="562" y="328" on="1"/>
        <pt x="562" y="176" on="0"/>
        <pt x="542" y="112" on="1"/>
        <pt x="520" y="45" on="0"/>
        <pt x="482" y="16" on="1"/>
        <pt x="435" y="-20" on="0"/>
        <pt x="291" y="-20" on="0"/>
        <pt x="194" y="27" on="0"/>
        <pt x="166" y="73" on="1"/>
        <pt x="116" y="157" on="0"/>
        <pt x="116" y="308" on="1"/>
      </contour>
      <contour>
        <pt x="248" y="828" on="1"/>
        <pt x="248" y="843" on="0"/>
        <pt x="267" y="861" on="0"/>
        <pt x="306" y="861" on="0"/>
        <pt x="328" y="834" on="1"/>
        <pt x="332" y="826" on="0"/>
        <pt x="350" y="808" on="0"/>
        <pt x="365" y="790" on="0"/>
        <pt x="376" y="781" on="0"/>
        <pt x="394" y="764" on="0"/>
        <pt x="410" y="752" on="0"/>
        <pt x="421" y="744" on="1"/>
        <pt x="438" y="732" on="0"/>
        <pt x="469" y="715" on="1"/>
        <pt x="462" y="700" on="1"/>
        <pt x="282" y="784" on="1"/>
        <pt x="248" y="799" on="0"/>
      </contour>
    </TTGlyph>
    <TTGlyph name="Uogonek" xMin="43" yMin="-215" xMax="693" yMax="650">
      <contour>
        <pt x="365" y="-161" on="1"/>
        <pt x="360" y="-141" on="1"/>
        <pt x="360" y="-120" on="0"/>
        <pt x="388" y="-96" on="0"/>
        <pt x="432" y="-96" on="0"/>
        <pt x="460" y="-128" on="0"/>
        <pt x="460" y="-180" on="0"/>
        <pt x="422" y="-215" on="0"/>
        <pt x="360" y="-215" on="0"/>
        <pt x="320" y="-166" on="0"/>
        <pt x="320" y="-132" on="1"/>
        <pt x="320" y="-64" on="0"/>
        <pt x="380" y="-19" on="1"/>
        <pt x="374" y="-20" on="0"/>
        <pt x="361" y="-20" on="1"/>
        <pt x="222" y="-20" on="0"/>
        <pt x="166" y="73" on="1"/>
        <pt x="116" y="157" on="0"/>
        <pt x="116" y="308" on="1"/>
        <pt x="116" y="634" on="1"/>
        <pt x="43" y="634" on="1"/>
        <pt x="43" y="650" on="1"/>
        <pt x="303" y="650" on="1"/>
        <pt x="303" y="634" on="1"/>
        <pt x="220" y="634" on="1"/>
        <pt x="220" y="308" on="1"/>
        <pt x="220" y="168" on="0"/>
        <pt x="234" y="118" on="1"/>
        <pt x="251" y="57" on="0"/>
        <pt x="281" y="34" on="1"/>
        <pt x="322" y="3" on="0"/>
        <pt x="422" y="3" on="0"/>
        <pt x="482" y="37" on="0"/>
        <pt x="516" y="90" on="0"/>
        <pt x="526" y="130" on="1"/>
        <pt x="542" y="195" on="0"/>
        <pt x="542" y="293" on="1"/>
        <pt x="542" y="507" on="1"/>
        <pt x="542" y="580" on="0"/>
        <pt x="487" y="634" on="0"/>
        <pt x="414" y="634" on="1"/>
        <pt x="407" y="634" on="1"/>
        <pt x="407" y="650" on="1"/>
        <pt x="693" y="650" on="1"/>
        <pt x="693" y="634" on="1"/>
        <pt x="620" y="634" on="0"/>
        <pt x="562" y="579" on="0"/>
        <pt x="562" y="507" on="1"/>
        <pt x="562" y="328" on="1"/>
        <pt x="562" y="154" on="0"/>
        <pt x="530" y="83" on="1"/>
        <pt x="500" y="17" on="0"/>
        <pt x="437" y="-8" on="1"/>
        <pt x="400" y="-22" on="0"/>
        <pt x="349" y="-73" on="0"/>
        <pt x="339" y="-113" on="0"/>
        <pt x="339" y="-129" on="1"/>
        <pt x="339" y="-169" on="0"/>
        <pt x="356" y="-169" on="1"/>
        <pt x="365" y="-169" on="0"/>
      </contour>
    </TTGlyph>
    <TTGlyph name="V" xMin="-50" yMin="-20" xMax="463" yMax="660">
      <contour>
        <pt x="437" y="542" on="1"/>
        <pt x="444" y="563" on="0"/>
        <pt x="444" y="606" on="0"/>
        <pt x="410" y="639" on="0"/>
        <pt x="385" y="639" on="0"/>
        <pt x="385" y="623" on="0"/>
        <pt x="393" y="620" on="1"/>
        <pt x="424" y="608" on="0"/>
        <pt x="424" y="574" on="1"/>
        <pt x="424" y="552" on="0"/>
        <pt x="392" y="521" on="0"/>
        <pt x="336" y="521" on="0"/>
        <pt x="302" y="561" on="0"/>
        <pt x="302" y="617" on="0"/>
        <pt x="346" y="660" on="0"/>
        <pt x="418" y="660" on="0"/>
        <pt x="463" y="612" on="0"/>
        <pt x="463" y="559" on="0"/>
        <pt x="456" y="540" on="1"/>
        <pt x="285" y="41" on="1"/>
        <pt x="278" y="19" on="0"/>
        <pt x="272" y="8" on="1"/>
        <pt x="258" y="-20" on="0"/>
        <pt x="226" y="-20" on="1"/>
        <pt x="223" y="-20" on="1"/>
        <pt x="21" y="634" on="1"/>
        <pt x="-50" y="634" on="1"/>
        <pt x="-50" y="650" on="1"/>
        <pt x="210" y="650" on="1"/>
        <pt x="210" y="634" on="1"/>
        <pt x="136" y="634" on="1"/>
        <pt x="286" y="118" on="1"/>
        <pt x="292" y="118" on="1"/>
      </contour>
    </TTGlyph>
    <TTGlyph name="W" xMin="-50" yMin="-20" xMax="794" yMax="660">
      <contour>
        <pt x="768" y="542" on="1"/>
        <pt x="775" y="563" on="0"/>
        <pt x="775" y="606" on="0"/>
        <pt x="742" y="639" on="0"/>
        <pt x="716" y="639" on="0"/>
        <pt x="716" y="623" on="0"/>
        <pt x="724" y="620" on="1"/>
        <pt x="755" y="608" on="0"/>
        <pt x="755" y="574" on="1"/>
        <pt x="755" y="552" on="0"/>
        <pt x="723" y="521" on="0"/>
        <pt x="667" y="521" on="0"/>
        <pt x="633" y="561" on="0"/>
        <pt x="633" y="617" on="0"/>
        <pt x="677" y="660" on="0"/>
        <pt x="749" y="660" on="0"/>
        <pt x="794" y="612" on="0"/>
        <pt x="794" y="559" on="0"/>
        <pt x="787" y="540" on="1"/>
        <pt x="616" y="41" on="1"/>
        <pt x="609" y="19" on="0"/>
        <pt x="604" y="8" on="1"/>
        <pt x="589" y="-20" on="0"/>
        <pt x="557" y="-20" on="1"/>
        <pt x="554" y="-20" on="1"/>
        <pt x="415" y="430" on="1"/>
        <pt x="285" y="41" on="1"/>
        <pt x="278" y="19" on="0"/>
        <pt x="272" y="8" on="1"/>
        <pt x="258" y="-20" on="0"/>
        <pt x="226" y="-20" on="1"/>
        <pt x="223" y="-20" on="1"/>
        <pt x="21" y="634" on="1"/>
        <pt x="-50" y="634" on="1"/>
        <pt x="-50" y="650" on="1"/>
        <pt x="210" y="650" on="1"/>
        <pt x="210" y="634" on="1"/>
        <pt x="136" y="634" on="1"/>
        <pt x="286" y="118" on="1"/>
        <pt x="292" y="118" on="1"/>
        <pt x="405" y="462" on="1"/>
        <pt x="352" y="634" on="1"/>
        <pt x="281" y="634" on="1"/>
        <pt x="281" y="650" on="1"/>
        <pt x="541" y="650" on="1"/>
        <pt x="541" y="634" on="1"/>
        <pt x="467" y="634" on="1"/>
        <pt x="617" y="118" on="1"/>
        <pt x="623" y="118" on="1"/>
      </contour>
    </TTGlyph>
    <TTGlyph name="X" xMin="29" yMin="-11" xMax="687" yMax="660">
      <contour>
        <pt x="687" y="16" on="1"/>
        <pt x="687" y="0" on="1"/>
        <pt x="415" y="0" on="1"/>
        <pt x="415" y="16" on="1"/>
        <pt x="488" y="16" on="1"/>
        <pt x="128" y="634" on="1"/>
        <pt x="55" y="634" on="1"/>
        <pt x="55" y="650" on="1"/>
        <pt x="327" y="650" on="1"/>
        <pt x="327" y="634" on="1"/>
        <pt x="244" y="634" on="1"/>
        <pt x="604" y="16" on="1"/>
      </contour>
      <contour>
        <pt x="570" y="660" on="1"/>
        <pt x="506" y="660" on="0"/>
        <pt x="468" y="588" on="1"/>
        <pt x="468" y="588" on="0"/>
        <pt x="339" y="346" on="1"/>
        <pt x="359" y="346" on="1"/>
        <pt x="479" y="570" on="1"/>
        <pt x="517" y="642" on="0"/>
        <pt x="572" y="642" on="1"/>
        <pt x="589" y="642" on="0"/>
        <pt x="621" y="622" on="0"/>
        <pt x="621" y="605" on="0"/>
        <pt x="612" y="605" on="1"/>
        <pt x="609" y="605" on="0"/>
        <pt x="587" y="622" on="0"/>
        <pt x="548" y="622" on="0"/>
        <pt x="516" y="591" on="0"/>
        <pt x="516" y="538" on="0"/>
        <pt x="556" y="505" on="0"/>
        <pt x="612" y="505" on="0"/>
        <pt x="652" y="548" on="0"/>
        <pt x="652" y="599" on="0"/>
        <pt x="644" y="615" on="1"/>
        <pt x="622" y="660" on="0"/>
      </contour>
      <contour>
        <pt x="111" y="-11" on="1"/>
        <pt x="60" y="-11" on="0"/>
        <pt x="37" y="34" on="1"/>
        <pt x="29" y="50" on="0"/>
        <pt x="29" y="101" on="0"/>
        <pt x="69" y="144" on="0"/>
        <pt x="125" y="144" on="0"/>
        <pt x="165" y="111" on="0"/>
        <pt x="165" y="58" on="0"/>
        <pt x="133" y="27" on="0"/>
        <pt x="94" y="27" on="0"/>
        <pt x="72" y="44" on="0"/>
        <pt x="69" y="44" on="1"/>
        <pt x="60" y="44" on="0"/>
        <pt x="60" y="27" on="0"/>
        <pt x="92" y="7" on="0"/>
        <pt x="109" y="7" on="1"/>
        <pt x="164" y="7" on="0"/>
        <pt x="202" y="79" on="1"/>
        <pt x="322" y="303" on="1"/>
        <pt x="342" y="303" on="1"/>
        <pt x="213" y="61" on="1"/>
        <pt x="175" y="-11" on="0"/>
      </contour>
    </TTGlyph>
    <TTGlyph name="Y" xMin="1" yMin="0" xMax="532" yMax="660">
      <contour>
        <pt x="357" y="16" on="1"/>
        <pt x="440" y="16" on="1"/>
        <pt x="440" y="0" on="1"/>
        <pt x="180" y="0" on="1"/>
        <pt x="180" y="16" on="1"/>
        <pt x="253" y="16" on="1"/>
        <pt x="253" y="281" on="1"/>
        <pt x="74" y="634" on="1"/>
        <pt x="1" y="634" on="1"/>
        <pt x="1" y="650" on="1"/>
        <pt x="269" y="650" on="1"/>
        <pt x="269" y="634" on="1"/>
        <pt x="186" y="634" on="1"/>
        <pt x="357" y="291" on="1"/>
      </contour>
      <contour>
        <pt x="480" y="639" on="0"/>
        <pt x="513" y="606" on="0"/>
        <pt x="513" y="561" on="0"/>
        <pt x="507" y="540" on="1"/>
        <pt x="505" y="533" on="0"/>
        <pt x="496" y="516" on="0"/>
        <pt x="491" y="508" on="0"/>
        <pt x="481" y="494" on="0"/>
        <pt x="480" y="492" on="1"/>
        <pt x="331" y="285" on="1"/>
        <pt x="341" y="267" on="1"/>
        <pt x="500" y="489" on="1"/>
        <pt x="532" y="533" on="0"/>
        <pt x="532" y="612" on="0"/>
        <pt x="487" y="660" on="0"/>
        <pt x="415" y="660" on="0"/>
        <pt x="371" y="617" on="0"/>
        <pt x="371" y="561" on="0"/>
        <pt x="405" y="521" on="0"/>
        <pt x="461" y="521" on="0"/>
        <pt x="493" y="552" on="0"/>
        <pt x="493" y="574" on="1"/>
        <pt x="493" y="608" on="0"/>
        <pt x="462" y="620" on="1"/>
        <pt x="454" y="623" on="0"/>
        <pt x="454" y="639" on="0"/>
      </contour>
    </TTGlyph>
    <TTGlyph name="Yacute" xMin="1" yMin="0" xMax="612" yMax="861">
      <contour>
        <pt x="612" y="649" on="1"/>
        <pt x="612" y="633" on="1"/>
        <pt x="565" y="631" on="0"/>
        <pt x="501" y="596" on="0"/>
        <pt x="478" y="551" on="1"/>
        <pt x="357" y="311" on="1"/>
        <pt x="357" y="16" on="1"/>
        <pt x="440" y="16" on="1"/>
        <pt x="440" y="0" on="1"/>
        <pt x="180" y="0" on="1"/>
        <pt x="180" y="16" on="1"/>
        <pt x="253" y="16" on="1"/>
        <pt x="253" y="301" on="1"/>
        <pt x="74" y="634" on="1"/>
        <pt x="1" y="634" on="1"/>
        <pt x="1" y="650" on="1"/>
        <pt x="269" y="650" on="1"/>
        <pt x="269" y="634" on="1"/>
        <pt x="186" y="634" on="1"/>
        <pt x="346" y="331" on="1"/>
        <pt x="430" y="494" on="1"/>
        <pt x="456" y="546" on="0"/>
        <pt x="456" y="610" on="0"/>
        <pt x="407" y="633" on="0"/>
        <pt x="360" y="633" on="1"/>
        <pt x="352" y="633" on="1"/>
        <pt x="352" y="649" on="1"/>
      </contour>
      <contour>
        <pt x="403" y="834" on="1"/>
        <pt x="426" y="861" on="0"/>
        <pt x="464" y="861" on="0"/>
        <pt x="483" y="843" on="0"/>
        <pt x="483" y="828" on="1"/>
        <pt x="483" y="799" on="0"/>
        <pt x="449" y="784" on="1"/>
        <pt x="269" y="700" on="1"/>
        <pt x="262" y="715" on="1"/>
        <pt x="309" y="740" on="0"/>
        <pt x="348" y="774" on="0"/>
        <pt x="359" y="783" on="0"/>
        <pt x="379" y="806" on="0"/>
        <pt x="383" y="810" on="0"/>
        <pt x="393" y="822" on="1"/>
      </contour>
    </TTGlyph>
    <TTGlyph name="Ydieresis" xMin="36" yMin="0" xMax="647" yMax="852">
      <contour>
        <pt x="647" y="649" on="1"/>
        <pt x="647" y="633" on="1"/>
        <pt x="600" y="631" on="0"/>
        <pt x="536" y="596" on="0"/>
        <pt x="513" y="551" on="1"/>
        <pt x="392" y="311" on="1"/>
        <pt x="392" y="16" on="1"/>
        <pt x="475" y="16" on="1"/>
        <pt x="475" y="0" on="1"/>
        <pt x="215" y="0" on="1"/>
        <pt x="215" y="16" on="1"/>
        <pt x="288" y="16" on="1"/>
        <pt x="288" y="301" on="1"/>
        <pt x="109" y="634" on="1"/>
        <pt x="36" y="634" on="1"/>
        <pt x="36" y="650" on="1"/>
        <pt x="304" y="650" on="1"/>
        <pt x="304" y="634" on="1"/>
        <pt x="221" y="634" on="1"/>
        <pt x="381" y="331" on="1"/>
        <pt x="465" y="494" on="1"/>
        <pt x="491" y="546" on="0"/>
        <pt x="491" y="610" on="0"/>
        <pt x="442" y="633" on="0"/>
        <pt x="395" y="633" on="1"/>
        <pt x="387" y="633" on="1"/>
        <pt x="387" y="649" on="1"/>
      </contour>
      <contour>
        <pt x="380" y="767" on="0"/>
        <pt x="380" y="817" on="0"/>
        <pt x="416" y="852" on="0"/>
        <pt x="466" y="852" on="0"/>
        <pt x="501" y="817" on="0"/>
        <pt x="501" y="767" on="0"/>
        <pt x="466" y="731" on="0"/>
        <pt x="416" y="731" on="0"/>
      </contour>
      <contour>
        <pt x="201" y="767" on="0"/>
        <pt x="201" y="817" on="0"/>
        <pt x="236" y="852" on="0"/>
        <pt x="286" y="852" on="0"/>
        <pt x="322" y="817" on="0"/>
        <pt x="322" y="767" on="0"/>
        <pt x="286" y="731" on="0"/>
        <pt x="236" y="731" on="0"/>
      </contour>
    </TTGlyph>
    <TTGlyph name="Z" xMin="15" yMin="-21" xMax="552" yMax="669">
      <contour>
        <pt x="39" y="563" on="1"/>
        <pt x="39" y="613" on="0"/>
        <pt x="120" y="669" on="0"/>
        <pt x="183" y="669" on="1"/>
        <pt x="221" y="669" on="0"/>
        <pt x="357" y="647" on="0"/>
        <pt x="474" y="647" on="0"/>
        <pt x="529" y="650" on="1"/>
        <pt x="529" y="635" on="1"/>
        <pt x="142" y="34" on="1"/>
        <pt x="164" y="34" on="1"/>
        <pt x="230" y="34" on="0"/>
        <pt x="396" y="-3" on="0"/>
        <pt x="422" y="-3" on="1"/>
        <pt x="476" y="-3" on="0"/>
        <pt x="534" y="47" on="0"/>
        <pt x="534" y="117" on="0"/>
        <pt x="497" y="149" on="0"/>
        <pt x="477" y="149" on="1"/>
        <pt x="468" y="149" on="0"/>
        <pt x="468" y="132" on="0"/>
        <pt x="475" y="131" on="1"/>
        <pt x="513" y="121" on="0"/>
        <pt x="513" y="85" on="1"/>
        <pt x="513" y="64" on="0"/>
        <pt x="481" y="32" on="0"/>
        <pt x="424" y="32" on="0"/>
        <pt x="390" y="72" on="0"/>
        <pt x="390" y="128" on="0"/>
        <pt x="434" y="171" on="0"/>
        <pt x="502" y="171" on="0"/>
        <pt x="552" y="122" on="0"/>
        <pt x="552" y="38" on="0"/>
        <pt x="482" y="-21" on="0"/>
        <pt x="423" y="-21" on="1"/>
        <pt x="393" y="-21" on="0"/>
        <pt x="224" y="16" on="0"/>
        <pt x="100" y="16" on="0"/>
        <pt x="27" y="2" on="1"/>
        <pt x="15" y="17" on="1"/>
        <pt x="409" y="629" on="1"/>
        <pt x="347" y="631" on="0"/>
        <pt x="221" y="651" on="0"/>
        <pt x="126" y="651" on="0"/>
        <pt x="60" y="605" on="0"/>
        <pt x="60" y="577" on="1"/>
        <pt x="60" y="568" on="0"/>
        <pt x="76" y="568" on="0"/>
        <pt x="83" y="592" on="0"/>
        <pt x="111" y="608" on="0"/>
        <pt x="148" y="608" on="0"/>
        <pt x="181" y="576" on="0"/>
        <pt x="181" y="519" on="0"/>
        <pt x="141" y="485" on="0"/>
        <pt x="85" y="485" on="0"/>
        <pt x="39" y="529" on="0"/>
      </contour>
    </TTGlyph>
    <TTGlyph name="a" xMin="44" yMin="-20" xMax="522" yMax="480">
      <contour>
        <pt x="241" y="480" on="1"/>
        <pt x="360" y="480" on="0"/>
        <pt x="437" y="373" on="0"/>
        <pt x="437" y="240" on="1"/>
        <pt x="437" y="63" on="1"/>
        <pt x="437" y="22" on="0"/>
        <pt x="455" y="22" on="1"/>
        <pt x="492" y="22" on="0"/>
        <pt x="504" y="137" on="1"/>
        <pt x="522" y="135" on="1"/>
        <pt x="507" y="-20" on="0"/>
        <pt x="421" y="-20" on="1"/>
        <pt x="396" y="-20" on="0"/>
        <pt x="369" y="16" on="0"/>
        <pt x="362" y="59" on="0"/>
        <pt x="362" y="91" on="1"/>
        <pt x="356" y="91" on="1"/>
        <pt x="343" y="38" on="0"/>
        <pt x="263" y="-20" on="0"/>
        <pt x="138" y="-20" on="0"/>
        <pt x="44" y="47" on="0"/>
        <pt x="44" y="110" on="1"/>
        <pt x="44" y="157" on="0"/>
        <pt x="71" y="188" on="1"/>
        <pt x="127" y="252" on="0"/>
        <pt x="325" y="252" on="1"/>
        <pt x="336" y="252" on="0"/>
        <pt x="348" y="252" on="1"/>
        <pt x="348" y="301" on="1"/>
        <pt x="348" y="380" on="0"/>
        <pt x="294" y="460" on="0"/>
        <pt x="161" y="460" on="0"/>
        <pt x="99" y="406" on="0"/>
        <pt x="99" y="377" on="1"/>
        <pt x="99" y="368" on="0"/>
        <pt x="116" y="368" on="0"/>
        <pt x="117" y="377" on="1"/>
        <pt x="123" y="403" on="0"/>
        <pt x="157" y="403" on="1"/>
        <pt x="179" y="403" on="0"/>
        <pt x="205" y="372" on="0"/>
        <pt x="205" y="327" on="0"/>
        <pt x="172" y="296" on="0"/>
        <pt x="119" y="296" on="0"/>
        <pt x="80" y="337" on="0"/>
        <pt x="80" y="367" on="1"/>
        <pt x="80" y="423" on="0"/>
        <pt x="174" y="480" on="0"/>
      </contour>
      <contour>
        <pt x="348" y="167" on="1"/>
        <pt x="348" y="234" on="1"/>
        <pt x="338" y="234" on="0"/>
        <pt x="295" y="234" on="0"/>
        <pt x="236" y="228" on="0"/>
        <pt x="205" y="216" on="1"/>
        <pt x="141" y="193" on="0"/>
        <pt x="141" y="114" on="1"/>
        <pt x="141" y="66" on="0"/>
        <pt x="187" y="8" on="0"/>
        <pt x="289" y="8" on="0"/>
        <pt x="348" y="100" on="0"/>
      </contour>
    </TTGlyph>
    <TTGlyph name="aacute" xMin="44" yMin="-20" xMax="522" yMax="680">
      <contour>
        <pt x="312" y="653" on="1"/>
        <pt x="334" y="680" on="0"/>
        <pt x="354" y="680" on="1"/>
        <pt x="392" y="680" on="0"/>
        <pt x="392" y="647" on="1"/>
        <pt x="392" y="618" on="0"/>
        <pt x="358" y="603" on="1"/>
        <pt x="178" y="519" on="1"/>
        <pt x="171" y="534" on="1"/>
        <pt x="218" y="559" on="0"/>
        <pt x="257" y="593" on="0"/>
        <pt x="268" y="602" on="0"/>
        <pt x="288" y="625" on="0"/>
        <pt x="292" y="629" on="0"/>
        <pt x="302" y="641" on="1"/>
      </contour>
      <contour>
        <pt x="241" y="480" on="1"/>
        <pt x="360" y="480" on="0"/>
        <pt x="437" y="373" on="0"/>
        <pt x="437" y="240" on="1"/>
        <pt x="437" y="63" on="1"/>
        <pt x="437" y="22" on="0"/>
        <pt x="455" y="22" on="1"/>
        <pt x="492" y="22" on="0"/>
        <pt x="504" y="137" on="1"/>
        <pt x="522" y="135" on="1"/>
        <pt x="507" y="-20" on="0"/>
        <pt x="421" y="-20" on="1"/>
        <pt x="396" y="-20" on="0"/>
        <pt x="369" y="16" on="0"/>
        <pt x="362" y="59" on="0"/>
        <pt x="362" y="91" on="1"/>
        <pt x="356" y="91" on="1"/>
        <pt x="343" y="38" on="0"/>
        <pt x="263" y="-20" on="0"/>
        <pt x="138" y="-20" on="0"/>
        <pt x="44" y="47" on="0"/>
        <pt x="44" y="110" on="1"/>
        <pt x="44" y="157" on="0"/>
        <pt x="71" y="188" on="1"/>
        <pt x="127" y="252" on="0"/>
        <pt x="325" y="252" on="1"/>
        <pt x="336" y="252" on="0"/>
        <pt x="348" y="252" on="1"/>
        <pt x="348" y="301" on="1"/>
        <pt x="348" y="380" on="0"/>
        <pt x="294" y="460" on="0"/>
        <pt x="161" y="460" on="0"/>
        <pt x="99" y="406" on="0"/>
        <pt x="99" y="377" on="1"/>
        <pt x="99" y="368" on="0"/>
        <pt x="116" y="368" on="0"/>
        <pt x="117" y="377" on="1"/>
        <pt x="123" y="403" on="0"/>
        <pt x="157" y="403" on="1"/>
        <pt x="179" y="403" on="0"/>
        <pt x="205" y="372" on="0"/>
        <pt x="205" y="327" on="0"/>
        <pt x="172" y="296" on="0"/>
        <pt x="119" y="296" on="0"/>
        <pt x="80" y="337" on="0"/>
        <pt x="80" y="367" on="1"/>
        <pt x="80" y="423" on="0"/>
        <pt x="174" y="480" on="0"/>
      </contour>
      <contour>
        <pt x="348" y="167" on="1"/>
        <pt x="348" y="234" on="1"/>
        <pt x="338" y="234" on="0"/>
        <pt x="295" y="234" on="0"/>
        <pt x="236" y="228" on="0"/>
        <pt x="205" y="216" on="1"/>
        <pt x="141" y="193" on="0"/>
        <pt x="141" y="114" on="1"/>
        <pt x="141" y="66" on="0"/>
        <pt x="187" y="8" on="0"/>
        <pt x="289" y="8" on="0"/>
        <pt x="348" y="100" on="0"/>
      </contour>
    </TTGlyph>
    <TTGlyph name="acircumflex" xMin="44" yMin="-20" xMax="522" yMax="680">
      <contour>
        <pt x="240" y="680" on="0"/>
        <pt x="288" y="680" on="0"/>
        <pt x="310" y="653" on="1"/>
        <pt x="314" y="645" on="0"/>
        <pt x="332" y="627" on="0"/>
        <pt x="347" y="609" on="0"/>
        <pt x="358" y="600" on="0"/>
        <pt x="376" y="583" on="0"/>
        <pt x="392" y="571" on="0"/>
        <pt x="403" y="563" on="1"/>
        <pt x="420" y="551" on="0"/>
        <pt x="451" y="534" on="1"/>
        <pt x="444" y="519" on="1"/>
        <pt x="264" y="603" on="1"/>
        <pt x="84" y="519" on="1"/>
        <pt x="77" y="534" on="1"/>
        <pt x="124" y="559" on="0"/>
        <pt x="163" y="593" on="0"/>
        <pt x="174" y="602" on="0"/>
        <pt x="194" y="625" on="0"/>
        <pt x="198" y="629" on="0"/>
        <pt x="208" y="641" on="1"/>
        <pt x="218" y="653" on="1"/>
      </contour>
      <contour>
        <pt x="241" y="480" on="1"/>
        <pt x="360" y="480" on="0"/>
        <pt x="437" y="373" on="0"/>
        <pt x="437" y="240" on="1"/>
        <pt x="437" y="63" on="1"/>
        <pt x="437" y="22" on="0"/>
        <pt x="455" y="22" on="1"/>
        <pt x="492" y="22" on="0"/>
        <pt x="504" y="137" on="1"/>
        <pt x="522" y="135" on="1"/>
        <pt x="507" y="-20" on="0"/>
        <pt x="421" y="-20" on="1"/>
        <pt x="396" y="-20" on="0"/>
        <pt x="369" y="16" on="0"/>
        <pt x="362" y="59" on="0"/>
        <pt x="362" y="91" on="1"/>
        <pt x="356" y="91" on="1"/>
        <pt x="343" y="38" on="0"/>
        <pt x="263" y="-20" on="0"/>
        <pt x="138" y="-20" on="0"/>
        <pt x="44" y="47" on="0"/>
        <pt x="44" y="110" on="1"/>
        <pt x="44" y="157" on="0"/>
        <pt x="71" y="188" on="1"/>
        <pt x="127" y="252" on="0"/>
        <pt x="325" y="252" on="1"/>
        <pt x="336" y="252" on="0"/>
        <pt x="348" y="252" on="1"/>
        <pt x="348" y="301" on="1"/>
        <pt x="348" y="380" on="0"/>
        <pt x="294" y="460" on="0"/>
        <pt x="161" y="460" on="0"/>
        <pt x="99" y="406" on="0"/>
        <pt x="99" y="377" on="1"/>
        <pt x="99" y="368" on="0"/>
        <pt x="116" y="368" on="0"/>
        <pt x="117" y="377" on="1"/>
        <pt x="123" y="403" on="0"/>
        <pt x="157" y="403" on="1"/>
        <pt x="179" y="403" on="0"/>
        <pt x="205" y="372" on="0"/>
        <pt x="205" y="327" on="0"/>
        <pt x="172" y="296" on="0"/>
        <pt x="119" y="296" on="0"/>
        <pt x="80" y="337" on="0"/>
        <pt x="80" y="367" on="1"/>
        <pt x="80" y="423" on="0"/>
        <pt x="174" y="480" on="0"/>
      </contour>
      <contour>
        <pt x="348" y="167" on="1"/>
        <pt x="348" y="234" on="1"/>
        <pt x="338" y="234" on="0"/>
        <pt x="295" y="234" on="0"/>
        <pt x="236" y="228" on="0"/>
        <pt x="205" y="216" on="1"/>
        <pt x="141" y="193" on="0"/>
        <pt x="141" y="114" on="1"/>
        <pt x="141" y="66" on="0"/>
        <pt x="187" y="8" on="0"/>
        <pt x="289" y="8" on="0"/>
        <pt x="348" y="100" on="0"/>
      </contour>
    </TTGlyph>
    <TTGlyph name="acute" xMin="46" yMin="519" xMax="267" yMax="680">
      <contour>
        <pt x="187" y="653" on="1"/>
        <pt x="210" y="680" on="0"/>
        <pt x="248" y="680" on="0"/>
        <pt x="267" y="662" on="0"/>
        <pt x="267" y="647" on="1"/>
        <pt x="267" y="618" on="0"/>
        <pt x="233" y="603" on="1"/>
        <pt x="53" y="519" on="1"/>
        <pt x="46" y="534" on="1"/>
        <pt x="93" y="559" on="0"/>
        <pt x="132" y="593" on="0"/>
        <pt x="143" y="602" on="0"/>
        <pt x="163" y="625" on="0"/>
        <pt x="167" y="629" on="0"/>
        <pt x="177" y="641" on="1"/>
      </contour>
    </TTGlyph>
    <TTGlyph name="adieresis" xMin="44" yMin="-20" xMax="522" yMax="671">
      <contour>
        <pt x="302" y="586" on="0"/>
        <pt x="302" y="636" on="0"/>
        <pt x="338" y="671" on="0"/>
        <pt x="388" y="671" on="0"/>
        <pt x="423" y="636" on="0"/>
        <pt x="423" y="586" on="0"/>
        <pt x="388" y="550" on="0"/>
        <pt x="338" y="550" on="0"/>
      </contour>
      <contour>
        <pt x="123" y="586" on="0"/>
        <pt x="123" y="636" on="0"/>
        <pt x="158" y="671" on="0"/>
        <pt x="208" y="671" on="0"/>
        <pt x="244" y="636" on="0"/>
        <pt x="244" y="586" on="0"/>
        <pt x="208" y="550" on="0"/>
        <pt x="158" y="550" on="0"/>
      </contour>
      <contour>
        <pt x="241" y="480" on="1"/>
        <pt x="360" y="480" on="0"/>
        <pt x="437" y="373" on="0"/>
        <pt x="437" y="240" on="1"/>
        <pt x="437" y="63" on="1"/>
        <pt x="437" y="22" on="0"/>
        <pt x="455" y="22" on="1"/>
        <pt x="492" y="22" on="0"/>
        <pt x="504" y="137" on="1"/>
        <pt x="522" y="135" on="1"/>
        <pt x="507" y="-20" on="0"/>
        <pt x="421" y="-20" on="1"/>
        <pt x="396" y="-20" on="0"/>
        <pt x="369" y="16" on="0"/>
        <pt x="362" y="59" on="0"/>
        <pt x="362" y="91" on="1"/>
        <pt x="356" y="91" on="1"/>
        <pt x="343" y="38" on="0"/>
        <pt x="263" y="-20" on="0"/>
        <pt x="138" y="-20" on="0"/>
        <pt x="44" y="47" on="0"/>
        <pt x="44" y="110" on="1"/>
        <pt x="44" y="157" on="0"/>
        <pt x="71" y="188" on="1"/>
        <pt x="127" y="252" on="0"/>
        <pt x="325" y="252" on="1"/>
        <pt x="336" y="252" on="0"/>
        <pt x="348" y="252" on="1"/>
        <pt x="348" y="301" on="1"/>
        <pt x="348" y="380" on="0"/>
        <pt x="294" y="460" on="0"/>
        <pt x="161" y="460" on="0"/>
        <pt x="99" y="406" on="0"/>
        <pt x="99" y="377" on="1"/>
        <pt x="99" y="368" on="0"/>
        <pt x="116" y="368" on="0"/>
        <pt x="117" y="377" on="1"/>
        <pt x="123" y="403" on="0"/>
        <pt x="157" y="403" on="1"/>
        <pt x="179" y="403" on="0"/>
        <pt x="205" y="372" on="0"/>
        <pt x="205" y="327" on="0"/>
        <pt x="172" y="296" on="0"/>
        <pt x="119" y="296" on="0"/>
        <pt x="80" y="337" on="0"/>
        <pt x="80" y="367" on="1"/>
        <pt x="80" y="423" on="0"/>
        <pt x="174" y="480" on="0"/>
      </contour>
      <contour>
        <pt x="348" y="167" on="1"/>
        <pt x="348" y="234" on="1"/>
        <pt x="338" y="234" on="0"/>
        <pt x="295" y="234" on="0"/>
        <pt x="236" y="228" on="0"/>
        <pt x="205" y="216" on="1"/>
        <pt x="141" y="193" on="0"/>
        <pt x="141" y="114" on="1"/>
        <pt x="141" y="66" on="0"/>
        <pt x="187" y="8" on="0"/>
        <pt x="289" y="8" on="0"/>
        <pt x="348" y="100" on="0"/>
      </contour>
    </TTGlyph>
    <TTGlyph name="ae" xMin="44" yMin="-20" xMax="747" yMax="480">
      <contour>
        <pt x="571" y="480" on="1"/>
        <pt x="646" y="480" on="0"/>
        <pt x="747" y="416" on="0"/>
        <pt x="747" y="352" on="1"/>
        <pt x="747" y="253" on="0"/>
        <pt x="634" y="230" on="1"/>
        <pt x="577" y="219" on="0"/>
        <pt x="492" y="219" on="1"/>
        <pt x="445" y="219" on="1"/>
        <pt x="445" y="190" on="1"/>
        <pt x="445" y="109" on="0"/>
        <pt x="512" y="8" on="0"/>
        <pt x="641" y="8" on="0"/>
        <pt x="714" y="84" on="0"/>
        <pt x="729" y="144" on="1"/>
        <pt x="747" y="142" on="1"/>
        <pt x="731" y="69" on="0"/>
        <pt x="634" y="-20" on="0"/>
        <pt x="560" y="-20" on="1"/>
        <pt x="456" y="-20" on="0"/>
        <pt x="400" y="42" on="1"/>
        <pt x="393" y="35" on="0"/>
        <pt x="366" y="14" on="0"/>
        <pt x="267" y="-20" on="0"/>
        <pt x="138" y="-20" on="0"/>
        <pt x="44" y="47" on="0"/>
        <pt x="44" y="110" on="1"/>
        <pt x="44" y="157" on="0"/>
        <pt x="71" y="188" on="1"/>
        <pt x="127" y="252" on="0"/>
        <pt x="325" y="252" on="1"/>
        <pt x="336" y="252" on="0"/>
        <pt x="348" y="252" on="1"/>
        <pt x="348" y="301" on="1"/>
        <pt x="348" y="380" on="0"/>
        <pt x="294" y="460" on="0"/>
        <pt x="161" y="460" on="0"/>
        <pt x="99" y="406" on="0"/>
        <pt x="99" y="377" on="1"/>
        <pt x="99" y="368" on="0"/>
        <pt x="116" y="368" on="0"/>
        <pt x="117" y="377" on="1"/>
        <pt x="123" y="403" on="0"/>
        <pt x="157" y="403" on="1"/>
        <pt x="179" y="403" on="0"/>
        <pt x="205" y="372" on="0"/>
        <pt x="205" y="327" on="0"/>
        <pt x="172" y="296" on="0"/>
        <pt x="119" y="296" on="0"/>
        <pt x="80" y="337" on="0"/>
        <pt x="80" y="367" on="1"/>
        <pt x="80" y="423" on="0"/>
        <pt x="174" y="480" on="0"/>
        <pt x="241" y="480" on="1"/>
        <pt x="360" y="480" on="0"/>
        <pt x="400" y="412" on="1"/>
        <pt x="460" y="480" on="0"/>
      </contour>
      <contour>
        <pt x="348" y="167" on="1"/>
        <pt x="348" y="234" on="1"/>
        <pt x="338" y="234" on="0"/>
        <pt x="295" y="234" on="0"/>
        <pt x="236" y="228" on="0"/>
        <pt x="205" y="216" on="1"/>
        <pt x="141" y="193" on="0"/>
        <pt x="141" y="114" on="1"/>
        <pt x="141" y="66" on="0"/>
        <pt x="187" y="8" on="0"/>
        <pt x="289" y="8" on="0"/>
        <pt x="348" y="100" on="0"/>
      </contour>
      <contour>
        <pt x="445" y="237" on="1"/>
        <pt x="480" y="237" on="1"/>
        <pt x="561" y="237" on="0"/>
        <pt x="626" y="269" on="0"/>
        <pt x="650" y="316" on="0"/>
        <pt x="650" y="402" on="0"/>
        <pt x="607" y="463" on="0"/>
        <pt x="519" y="463" on="0"/>
        <pt x="464" y="400" on="0"/>
        <pt x="445" y="316" on="0"/>
        <pt x="445" y="265" on="1"/>
      </contour>
    </TTGlyph>
    <TTGlyph name="agrave" xMin="44" yMin="-20" xMax="522" yMax="680">
      <contour>
        <pt x="114" y="647" on="1"/>
        <pt x="114" y="662" on="0"/>
        <pt x="133" y="680" on="0"/>
        <pt x="172" y="680" on="0"/>
        <pt x="194" y="653" on="1"/>
        <pt x="198" y="645" on="0"/>
        <pt x="216" y="627" on="0"/>
        <pt x="231" y="609" on="0"/>
        <pt x="242" y="600" on="0"/>
        <pt x="260" y="583" on="0"/>
        <pt x="276" y="571" on="0"/>
        <pt x="287" y="563" on="1"/>
        <pt x="304" y="551" on="0"/>
        <pt x="335" y="534" on="1"/>
        <pt x="328" y="519" on="1"/>
        <pt x="148" y="603" on="1"/>
        <pt x="114" y="618" on="0"/>
      </contour>
      <contour>
        <pt x="241" y="480" on="1"/>
        <pt x="360" y="480" on="0"/>
        <pt x="437" y="373" on="0"/>
        <pt x="437" y="240" on="1"/>
        <pt x="437" y="63" on="1"/>
        <pt x="437" y="22" on="0"/>
        <pt x="455" y="22" on="1"/>
        <pt x="492" y="22" on="0"/>
        <pt x="504" y="137" on="1"/>
        <pt x="522" y="135" on="1"/>
        <pt x="507" y="-20" on="0"/>
        <pt x="421" y="-20" on="1"/>
        <pt x="396" y="-20" on="0"/>
        <pt x="369" y="16" on="0"/>
        <pt x="362" y="59" on="0"/>
        <pt x="362" y="91" on="1"/>
        <pt x="356" y="91" on="1"/>
        <pt x="343" y="38" on="0"/>
        <pt x="263" y="-20" on="0"/>
        <pt x="138" y="-20" on="0"/>
        <pt x="44" y="47" on="0"/>
        <pt x="44" y="110" on="1"/>
        <pt x="44" y="157" on="0"/>
        <pt x="71" y="188" on="1"/>
        <pt x="127" y="252" on="0"/>
        <pt x="325" y="252" on="1"/>
        <pt x="336" y="252" on="0"/>
        <pt x="348" y="252" on="1"/>
        <pt x="348" y="301" on="1"/>
        <pt x="348" y="380" on="0"/>
        <pt x="294" y="460" on="0"/>
        <pt x="161" y="460" on="0"/>
        <pt x="99" y="406" on="0"/>
        <pt x="99" y="377" on="1"/>
        <pt x="99" y="368" on="0"/>
        <pt x="116" y="368" on="0"/>
        <pt x="117" y="377" on="1"/>
        <pt x="123" y="403" on="0"/>
        <pt x="157" y="403" on="1"/>
        <pt x="179" y="403" on="0"/>
        <pt x="205" y="372" on="0"/>
        <pt x="205" y="327" on="0"/>
        <pt x="172" y="296" on="0"/>
        <pt x="119" y="296" on="0"/>
        <pt x="80" y="337" on="0"/>
        <pt x="80" y="367" on="1"/>
        <pt x="80" y="423" on="0"/>
        <pt x="174" y="480" on="0"/>
      </contour>
      <contour>
        <pt x="348" y="167" on="1"/>
        <pt x="348" y="234" on="1"/>
        <pt x="338" y="234" on="0"/>
        <pt x="295" y="234" on="0"/>
        <pt x="236" y="228" on="0"/>
        <pt x="205" y="216" on="1"/>
        <pt x="141" y="193" on="0"/>
        <pt x="141" y="114" on="1"/>
        <pt x="141" y="66" on="0"/>
        <pt x="187" y="8" on="0"/>
        <pt x="289" y="8" on="0"/>
        <pt x="348" y="100" on="0"/>
      </contour>
    </TTGlyph>
    <TTGlyph name="ampersand" xMin="102" yMin="-20" xMax="723" yMax="670">
      <contour>
        <pt x="549" y="227" on="0"/>
        <pt x="477" y="305" on="0"/>
        <pt x="375" y="305" on="0"/>
        <pt x="319" y="242" on="0"/>
        <pt x="319" y="157" on="0"/>
        <pt x="369" y="95" on="0"/>
        <pt x="411" y="95" on="1"/>
        <pt x="433" y="95" on="0"/>
        <pt x="449" y="105" on="1"/>
        <pt x="455" y="110" on="0"/>
        <pt x="455" y="114" on="1"/>
        <pt x="455" y="123" on="0"/>
        <pt x="446" y="123" on="1"/>
        <pt x="444" y="123" on="0"/>
        <pt x="430" y="115" on="0"/>
        <pt x="402" y="115" on="0"/>
        <pt x="378" y="143" on="0"/>
        <pt x="378" y="185" on="0"/>
        <pt x="407" y="216" on="0"/>
        <pt x="459" y="216" on="0"/>
        <pt x="495" y="175" on="0"/>
        <pt x="495" y="112" on="0"/>
        <pt x="443" y="77" on="0"/>
        <pt x="411" y="77" on="1"/>
        <pt x="356" y="77" on="0"/>
        <pt x="293" y="151" on="0"/>
        <pt x="293" y="202" on="1"/>
        <pt x="293" y="273" on="0"/>
        <pt x="404" y="367" on="0"/>
        <pt x="493" y="375" on="1"/>
        <pt x="510" y="376" on="0"/>
        <pt x="566" y="379" on="0"/>
        <pt x="598" y="382" on="0"/>
        <pt x="643" y="388" on="0"/>
        <pt x="668" y="399" on="0"/>
        <pt x="680" y="408" on="1"/>
        <pt x="704" y="423" on="0"/>
        <pt x="704" y="503" on="0"/>
        <pt x="653" y="550" on="0"/>
        <pt x="619" y="550" on="1"/>
        <pt x="603" y="550" on="0"/>
        <pt x="574" y="533" on="0"/>
        <pt x="574" y="515" on="0"/>
        <pt x="583" y="515" on="1"/>
        <pt x="587" y="515" on="0"/>
        <pt x="600" y="530" on="0"/>
        <pt x="636" y="530" on="0"/>
        <pt x="663" y="500" on="0"/>
        <pt x="663" y="457" on="0"/>
        <pt x="631" y="425" on="0"/>
        <pt x="579" y="425" on="0"/>
        <pt x="542" y="464" on="0"/>
        <pt x="542" y="524" on="0"/>
        <pt x="590" y="568" on="0"/>
        <pt x="663" y="568" on="0"/>
        <pt x="723" y="507" on="0"/>
        <pt x="723" y="411" on="0"/>
        <pt x="677" y="347" on="0"/>
        <pt x="644" y="334" on="1"/>
        <pt x="577" y="306" on="0"/>
        <pt x="522" y="306" on="1"/>
        <pt x="499" y="306" on="1"/>
        <pt x="567" y="256" on="0"/>
        <pt x="567" y="95" on="0"/>
        <pt x="443" y="-20" on="0"/>
        <pt x="220" y="-20" on="0"/>
        <pt x="102" y="102" on="0"/>
        <pt x="102" y="248" on="0"/>
        <pt x="176" y="345" on="0"/>
        <pt x="229" y="370" on="1"/>
        <pt x="227" y="380" on="1"/>
        <pt x="136" y="408" on="0"/>
        <pt x="136" y="509" on="1"/>
        <pt x="136" y="580" on="0"/>
        <pt x="245" y="670" on="0"/>
        <pt x="376" y="670" on="0"/>
        <pt x="466" y="607" on="0"/>
        <pt x="466" y="549" on="1"/>
        <pt x="466" y="519" on="0"/>
        <pt x="427" y="478" on="0"/>
        <pt x="374" y="478" on="0"/>
        <pt x="341" y="509" on="0"/>
        <pt x="341" y="554" on="0"/>
        <pt x="367" y="585" on="0"/>
        <pt x="405" y="585" on="0"/>
        <pt x="427" y="568" on="0"/>
        <pt x="430" y="548" on="0"/>
        <pt x="447" y="548" on="0"/>
        <pt x="447" y="557" on="1"/>
        <pt x="447" y="592" on="0"/>
        <pt x="382" y="648" on="0"/>
        <pt x="341" y="648" on="1"/>
        <pt x="228" y="648" on="0"/>
        <pt x="228" y="510" on="1"/>
        <pt x="228" y="462" on="0"/>
        <pt x="271" y="395" on="0"/>
        <pt x="312" y="395" on="1"/>
        <pt x="334" y="395" on="0"/>
        <pt x="362" y="406" on="1"/>
        <pt x="372" y="409" on="1"/>
        <pt x="377" y="391" on="1"/>
        <pt x="283" y="361" on="0"/>
        <pt x="207" y="280" on="0"/>
        <pt x="207" y="103" on="0"/>
        <pt x="309" y="18" on="0"/>
        <pt x="390" y="18" on="1"/>
        <pt x="449" y="18" on="0"/>
        <pt x="549" y="101" on="0"/>
      </contour>
    </TTGlyph>
    <TTGlyph name="aogonek" xMin="44" yMin="-215" xMax="522" yMax="480">
      <contour>
        <pt x="392" y="-161" on="1"/>
        <pt x="387" y="-141" on="1"/>
        <pt x="387" y="-120" on="0"/>
        <pt x="415" y="-96" on="0"/>
        <pt x="459" y="-96" on="0"/>
        <pt x="487" y="-128" on="0"/>
        <pt x="487" y="-180" on="0"/>
        <pt x="449" y="-215" on="0"/>
        <pt x="387" y="-215" on="0"/>
        <pt x="347" y="-166" on="0"/>
        <pt x="347" y="-132" on="1"/>
        <pt x="347" y="-64" on="0"/>
        <pt x="408" y="-19" on="1"/>
        <pt x="362" y="-9" on="0"/>
        <pt x="362" y="91" on="1"/>
        <pt x="356" y="91" on="1"/>
        <pt x="343" y="38" on="0"/>
        <pt x="263" y="-20" on="0"/>
        <pt x="138" y="-20" on="0"/>
        <pt x="44" y="47" on="0"/>
        <pt x="44" y="110" on="1"/>
        <pt x="44" y="157" on="0"/>
        <pt x="71" y="188" on="1"/>
        <pt x="127" y="252" on="0"/>
        <pt x="325" y="252" on="1"/>
        <pt x="336" y="252" on="0"/>
        <pt x="348" y="252" on="1"/>
        <pt x="348" y="301" on="1"/>
        <pt x="348" y="380" on="0"/>
        <pt x="294" y="460" on="0"/>
        <pt x="161" y="460" on="0"/>
        <pt x="99" y="406" on="0"/>
        <pt x="99" y="377" on="1"/>
        <pt x="99" y="368" on="0"/>
        <pt x="116" y="368" on="0"/>
        <pt x="117" y="377" on="1"/>
        <pt x="123" y="403" on="0"/>
        <pt x="157" y="403" on="1"/>
        <pt x="179" y="403" on="0"/>
        <pt x="205" y="372" on="0"/>
        <pt x="205" y="327" on="0"/>
        <pt x="172" y="296" on="0"/>
        <pt x="119" y="296" on="0"/>
        <pt x="80" y="337" on="0"/>
        <pt x="80" y="367" on="1"/>
        <pt x="80" y="423" on="0"/>
        <pt x="174" y="480" on="0"/>
        <pt x="241" y="480" on="1"/>
        <pt x="360" y="480" on="0"/>
        <pt x="437" y="373" on="0"/>
        <pt x="437" y="240" on="1"/>
        <pt x="437" y="63" on="1"/>
        <pt x="437" y="22" on="0"/>
        <pt x="455" y="22" on="1"/>
        <pt x="492" y="22" on="0"/>
        <pt x="504" y="137" on="1"/>
        <pt x="522" y="135" on="1"/>
        <pt x="510" y="8" on="0"/>
        <pt x="449" y="-15" on="1"/>
        <pt x="417" y="-30" on="0"/>
        <pt x="375" y="-75" on="0"/>
        <pt x="366" y="-113" on="0"/>
        <pt x="366" y="-129" on="1"/>
        <pt x="366" y="-169" on="0"/>
        <pt x="383" y="-169" on="1"/>
        <pt x="392" y="-169" on="0"/>
      </contour>
      <contour>
        <pt x="348" y="167" on="1"/>
        <pt x="348" y="234" on="1"/>
        <pt x="338" y="234" on="0"/>
        <pt x="295" y="234" on="0"/>
        <pt x="236" y="228" on="0"/>
        <pt x="205" y="216" on="1"/>
        <pt x="141" y="193" on="0"/>
        <pt x="141" y="114" on="1"/>
        <pt x="141" y="66" on="0"/>
        <pt x="187" y="8" on="0"/>
        <pt x="289" y="8" on="0"/>
        <pt x="348" y="100" on="0"/>
      </contour>
    </TTGlyph>
    <TTGlyph name="approxequal" xMin="47" yMin="136" xMax="527" yMax="340">
      <contour>
        <pt x="486" y="297" on="0"/>
        <pt x="436" y="278" on="0"/>
        <pt x="362" y="278" on="0"/>
        <pt x="215" y="322" on="0"/>
        <pt x="184" y="322" on="1"/>
        <pt x="122" y="322" on="0"/>
        <pt x="55" y="275" on="1"/>
        <pt x="47" y="291" on="1"/>
        <pt x="122" y="340" on="0"/>
        <pt x="186" y="340" on="1"/>
        <pt x="224" y="340" on="0"/>
        <pt x="363" y="296" on="0"/>
        <pt x="401" y="296" on="1"/>
        <pt x="463" y="296" on="0"/>
        <pt x="515" y="338" on="1"/>
        <pt x="527" y="324" on="1"/>
      </contour>
      <contour>
        <pt x="486" y="158" on="0"/>
        <pt x="436" y="139" on="0"/>
        <pt x="362" y="139" on="0"/>
        <pt x="215" y="183" on="0"/>
        <pt x="184" y="183" on="1"/>
        <pt x="122" y="183" on="0"/>
        <pt x="55" y="136" on="1"/>
        <pt x="47" y="152" on="1"/>
        <pt x="122" y="201" on="0"/>
        <pt x="186" y="201" on="1"/>
        <pt x="224" y="201" on="0"/>
        <pt x="363" y="157" on="0"/>
        <pt x="401" y="157" on="1"/>
        <pt x="463" y="157" on="0"/>
        <pt x="515" y="199" on="1"/>
        <pt x="527" y="185" on="1"/>
      </contour>
    </TTGlyph>
    <TTGlyph name="aring" xMin="44" yMin="-20" xMax="522" yMax="670">
      <contour>
        <pt x="209" y="627" on="0"/>
        <pt x="209" y="593" on="0"/>
        <pt x="234" y="567" on="0"/>
        <pt x="267" y="567" on="0"/>
        <pt x="292" y="593" on="0"/>
        <pt x="292" y="627" on="0"/>
        <pt x="267" y="652" on="0"/>
        <pt x="234" y="652" on="0"/>
      </contour>
      <contour>
        <pt x="225" y="549" on="0"/>
        <pt x="191" y="584" on="0"/>
        <pt x="191" y="635" on="0"/>
        <pt x="225" y="670" on="0"/>
        <pt x="275" y="670" on="0"/>
        <pt x="310" y="635" on="0"/>
        <pt x="310" y="584" on="0"/>
        <pt x="275" y="549" on="0"/>
      </contour>
      <contour>
        <pt x="241" y="480" on="1"/>
        <pt x="360" y="480" on="0"/>
        <pt x="437" y="373" on="0"/>
        <pt x="437" y="240" on="1"/>
        <pt x="437" y="63" on="1"/>
        <pt x="437" y="22" on="0"/>
        <pt x="455" y="22" on="1"/>
        <pt x="492" y="22" on="0"/>
        <pt x="504" y="137" on="1"/>
        <pt x="522" y="135" on="1"/>
        <pt x="507" y="-20" on="0"/>
        <pt x="421" y="-20" on="1"/>
        <pt x="396" y="-20" on="0"/>
        <pt x="369" y="16" on="0"/>
        <pt x="362" y="59" on="0"/>
        <pt x="362" y="91" on="1"/>
        <pt x="356" y="91" on="1"/>
        <pt x="343" y="38" on="0"/>
        <pt x="263" y="-20" on="0"/>
        <pt x="138" y="-20" on="0"/>
        <pt x="44" y="47" on="0"/>
        <pt x="44" y="110" on="1"/>
        <pt x="44" y="157" on="0"/>
        <pt x="71" y="188" on="1"/>
        <pt x="127" y="252" on="0"/>
        <pt x="325" y="252" on="1"/>
        <pt x="336" y="252" on="0"/>
        <pt x="348" y="252" on="1"/>
        <pt x="348" y="301" on="1"/>
        <pt x="348" y="380" on="0"/>
        <pt x="294" y="460" on="0"/>
        <pt x="161" y="460" on="0"/>
        <pt x="99" y="406" on="0"/>
        <pt x="99" y="377" on="1"/>
        <pt x="99" y="368" on="0"/>
        <pt x="116" y="368" on="0"/>
        <pt x="117" y="377" on="1"/>
        <pt x="123" y="403" on="0"/>
        <pt x="157" y="403" on="1"/>
        <pt x="179" y="403" on="0"/>
        <pt x="205" y="372" on="0"/>
        <pt x="205" y="327" on="0"/>
        <pt x="172" y="296" on="0"/>
        <pt x="119" y="296" on="0"/>
        <pt x="80" y="337" on="0"/>
        <pt x="80" y="367" on="1"/>
        <pt x="80" y="423" on="0"/>
        <pt x="174" y="480" on="0"/>
      </contour>
      <contour>
        <pt x="348" y="167" on="1"/>
        <pt x="348" y="234" on="1"/>
        <pt x="338" y="234" on="0"/>
        <pt x="295" y="234" on="0"/>
        <pt x="236" y="228" on="0"/>
        <pt x="205" y="216" on="1"/>
        <pt x="141" y="193" on="0"/>
        <pt x="141" y="114" on="1"/>
        <pt x="141" y="66" on="0"/>
        <pt x="187" y="8" on="0"/>
        <pt x="289" y="8" on="0"/>
        <pt x="348" y="100" on="0"/>
      </contour>
    </TTGlyph>
    <TTGlyph name="asciicircum" xMin="86" yMin="139" xMax="431" yMax="469">
      <contour>
        <pt x="431" y="148" on="1"/>
        <pt x="415" y="139" on="1"/>
        <pt x="258" y="436" on="1"/>
        <pt x="101" y="139" on="1"/>
        <pt x="86" y="149" on="1"/>
        <pt x="252" y="469" on="1"/>
        <pt x="263" y="469" on="1"/>
      </contour>
    </TTGlyph>
    <TTGlyph name="asciitilde" xMin="52" yMin="227" xMax="532" yMax="292">
      <contour>
        <pt x="491" y="249" on="0"/>
        <pt x="441" y="230" on="0"/>
        <pt x="367" y="230" on="0"/>
        <pt x="220" y="274" on="0"/>
        <pt x="189" y="274" on="1"/>
        <pt x="127" y="274" on="0"/>
        <pt x="60" y="227" on="1"/>
        <pt x="52" y="243" on="1"/>
        <pt x="127" y="292" on="0"/>
        <pt x="191" y="292" on="1"/>
        <pt x="229" y="292" on="0"/>
        <pt x="368" y="248" on="0"/>
        <pt x="406" y="248" on="1"/>
        <pt x="468" y="248" on="0"/>
        <pt x="520" y="290" on="1"/>
        <pt x="532" y="276" on="1"/>
      </contour>
    </TTGlyph>
    <TTGlyph name="asterisk" xMin="20" yMin="398" xMax="308" yMax="719">
      <contour>
        <pt x="184" y="719" on="0"/>
        <pt x="212" y="691" on="0"/>
        <pt x="212" y="649" on="0"/>
        <pt x="165" y="586" on="0"/>
        <pt x="164" y="576" on="1"/>
        <pt x="163" y="585" on="0"/>
        <pt x="116" y="649" on="0"/>
        <pt x="116" y="691" on="0"/>
        <pt x="144" y="719" on="0"/>
      </contour>
      <contour>
        <pt x="132" y="567" on="1"/>
        <pt x="79" y="564" on="1"/>
        <pt x="52" y="564" on="0"/>
        <pt x="20" y="592" on="0"/>
        <pt x="20" y="635" on="0"/>
        <pt x="49" y="662" on="0"/>
        <pt x="92" y="662" on="0"/>
        <pt x="122" y="620" on="0"/>
        <pt x="141" y="570" on="0"/>
        <pt x="151" y="564" on="1"/>
        <pt x="143" y="567" on="0"/>
      </contour>
      <contour>
        <pt x="248" y="564" on="1"/>
        <pt x="196" y="567" on="1"/>
        <pt x="184" y="567" on="0"/>
        <pt x="177" y="564" on="1"/>
        <pt x="187" y="570" on="0"/>
        <pt x="206" y="620" on="0"/>
        <pt x="236" y="662" on="0"/>
        <pt x="279" y="662" on="0"/>
        <pt x="308" y="635" on="0"/>
        <pt x="308" y="592" on="0"/>
        <pt x="275" y="564" on="0"/>
      </contour>
      <contour>
        <pt x="79" y="552" on="1"/>
        <pt x="132" y="548" on="1"/>
        <pt x="141" y="548" on="0"/>
        <pt x="151" y="552" on="1"/>
        <pt x="141" y="546" on="0"/>
        <pt x="122" y="496" on="0"/>
        <pt x="92" y="454" on="0"/>
        <pt x="49" y="454" on="0"/>
        <pt x="20" y="481" on="0"/>
        <pt x="20" y="523" on="0"/>
        <pt x="52" y="552" on="0"/>
      </contour>
      <contour>
        <pt x="144" y="398" on="0"/>
        <pt x="116" y="425" on="0"/>
        <pt x="116" y="467" on="0"/>
        <pt x="163" y="530" on="0"/>
        <pt x="164" y="540" on="1"/>
        <pt x="165" y="529" on="0"/>
        <pt x="212" y="466" on="0"/>
        <pt x="212" y="425" on="0"/>
        <pt x="184" y="398" on="0"/>
      </contour>
      <contour>
        <pt x="196" y="548" on="1"/>
        <pt x="248" y="552" on="1"/>
        <pt x="275" y="552" on="0"/>
        <pt x="308" y="523" on="0"/>
        <pt x="308" y="481" on="0"/>
        <pt x="279" y="454" on="0"/>
        <pt x="236" y="454" on="0"/>
        <pt x="206" y="496" on="0"/>
        <pt x="187" y="546" on="0"/>
        <pt x="177" y="552" on="1"/>
        <pt x="187" y="548" on="0"/>
      </contour>
    </TTGlyph>
    <TTGlyph name="at" xMin="50" yMin="-60" xMax="660" yMax="547">
      <contour>
        <pt x="516" y="239" on="1"/>
        <pt x="516" y="122" on="1"/>
        <pt x="516" y="71" on="0"/>
        <pt x="556" y="71" on="1"/>
        <pt x="570" y="71" on="0"/>
        <pt x="606" y="106" on="0"/>
        <pt x="637" y="191" on="0"/>
        <pt x="637" y="248" on="1"/>
        <pt x="637" y="369" on="0"/>
        <pt x="472" y="524" on="0"/>
        <pt x="236" y="524" on="0"/>
        <pt x="73" y="357" on="0"/>
        <pt x="73" y="119" on="0"/>
        <pt x="224" y="-37" on="0"/>
        <pt x="343" y="-37" on="1"/>
        <pt x="416" y="-37" on="0"/>
        <pt x="478" y="-3" on="1"/>
        <pt x="489" y="-23" on="1"/>
        <pt x="423" y="-60" on="0"/>
        <pt x="343" y="-60" on="1"/>
        <pt x="215" y="-60" on="0"/>
        <pt x="50" y="108" on="0"/>
        <pt x="50" y="368" on="0"/>
        <pt x="226" y="547" on="0"/>
        <pt x="483" y="547" on="0"/>
        <pt x="660" y="380" on="0"/>
        <pt x="660" y="248" on="1"/>
        <pt x="660" y="154" on="0"/>
        <pt x="584" y="39" on="0"/>
        <pt x="528" y="39" on="1"/>
        <pt x="489" y="39" on="0"/>
        <pt x="445" y="91" on="0"/>
        <pt x="445" y="132" on="1"/>
        <pt x="439" y="132" on="1"/>
        <pt x="425" y="85" on="0"/>
        <pt x="363" y="39" on="0"/>
        <pt x="258" y="39" on="0"/>
        <pt x="183" y="94" on="0"/>
        <pt x="183" y="142" on="1"/>
        <pt x="183" y="208" on="0"/>
        <pt x="301" y="261" on="0"/>
        <pt x="404" y="261" on="1"/>
        <pt x="427" y="261" on="1"/>
        <pt x="427" y="270" on="1"/>
        <pt x="427" y="345" on="0"/>
        <pt x="405" y="408" on="0"/>
        <pt x="367" y="429" on="0"/>
        <pt x="282" y="429" on="0"/>
        <pt x="228" y="383" on="0"/>
        <pt x="228" y="356" on="1"/>
        <pt x="228" y="347" on="0"/>
        <pt x="244" y="347" on="0"/>
        <pt x="246" y="356" on="1"/>
        <pt x="252" y="382" on="0"/>
        <pt x="286" y="382" on="1"/>
        <pt x="308" y="382" on="0"/>
        <pt x="334" y="351" on="0"/>
        <pt x="334" y="306" on="0"/>
        <pt x="301" y="275" on="0"/>
        <pt x="248" y="275" on="0"/>
        <pt x="209" y="316" on="0"/>
        <pt x="209" y="346" on="1"/>
        <pt x="209" y="398" on="0"/>
        <pt x="294" y="449" on="0"/>
        <pt x="398" y="449" on="0"/>
        <pt x="457" y="435" on="0"/>
        <pt x="494" y="410" on="0"/>
        <pt x="502" y="382" on="1"/>
        <pt x="516" y="338" on="0"/>
      </contour>
      <contour>
        <pt x="427" y="195" on="1"/>
        <pt x="427" y="243" on="1"/>
        <pt x="408" y="243" on="1"/>
        <pt x="345" y="243" on="0"/>
        <pt x="280" y="196" on="0"/>
        <pt x="280" y="112" on="0"/>
        <pt x="316" y="66" on="0"/>
        <pt x="342" y="66" on="1"/>
        <pt x="427" y="66" on="0"/>
      </contour>
    </TTGlyph>
    <TTGlyph name="atilde" xMin="44" yMin="-20" xMax="522" yMax="671">
      <contour>
        <pt x="97" y="608" on="0"/>
        <pt x="137" y="671" on="0"/>
        <pt x="198" y="671" on="0"/>
        <pt x="305" y="619" on="0"/>
        <pt x="325" y="619" on="1"/>
        <pt x="375" y="619" on="0"/>
        <pt x="375" y="670" on="1"/>
        <pt x="390" y="670" on="1"/>
        <pt x="390" y="623" on="0"/>
        <pt x="350" y="560" on="0"/>
        <pt x="288" y="560" on="0"/>
        <pt x="181" y="612" on="0"/>
        <pt x="162" y="612" on="1"/>
        <pt x="112" y="612" on="0"/>
        <pt x="112" y="561" on="1"/>
        <pt x="97" y="561" on="1"/>
      </contour>
      <contour>
        <pt x="241" y="480" on="1"/>
        <pt x="360" y="480" on="0"/>
        <pt x="437" y="373" on="0"/>
        <pt x="437" y="240" on="1"/>
        <pt x="437" y="63" on="1"/>
        <pt x="437" y="22" on="0"/>
        <pt x="455" y="22" on="1"/>
        <pt x="492" y="22" on="0"/>
        <pt x="504" y="137" on="1"/>
        <pt x="522" y="135" on="1"/>
        <pt x="507" y="-20" on="0"/>
        <pt x="421" y="-20" on="1"/>
        <pt x="396" y="-20" on="0"/>
        <pt x="369" y="16" on="0"/>
        <pt x="362" y="59" on="0"/>
        <pt x="362" y="91" on="1"/>
        <pt x="356" y="91" on="1"/>
        <pt x="343" y="38" on="0"/>
        <pt x="263" y="-20" on="0"/>
        <pt x="138" y="-20" on="0"/>
        <pt x="44" y="47" on="0"/>
        <pt x="44" y="110" on="1"/>
        <pt x="44" y="157" on="0"/>
        <pt x="71" y="188" on="1"/>
        <pt x="127" y="252" on="0"/>
        <pt x="325" y="252" on="1"/>
        <pt x="336" y="252" on="0"/>
        <pt x="348" y="252" on="1"/>
        <pt x="348" y="301" on="1"/>
        <pt x="348" y="380" on="0"/>
        <pt x="294" y="460" on="0"/>
        <pt x="161" y="460" on="0"/>
        <pt x="99" y="406" on="0"/>
        <pt x="99" y="377" on="1"/>
        <pt x="99" y="368" on="0"/>
        <pt x="116" y="368" on="0"/>
        <pt x="117" y="377" on="1"/>
        <pt x="123" y="403" on="0"/>
        <pt x="157" y="403" on="1"/>
        <pt x="179" y="403" on="0"/>
        <pt x="205" y="372" on="0"/>
        <pt x="205" y="327" on="0"/>
        <pt x="172" y="296" on="0"/>
        <pt x="119" y="296" on="0"/>
        <pt x="80" y="337" on="0"/>
        <pt x="80" y="367" on="1"/>
        <pt x="80" y="423" on="0"/>
        <pt x="174" y="480" on="0"/>
      </contour>
      <contour>
        <pt x="348" y="167" on="1"/>
        <pt x="348" y="234" on="1"/>
        <pt x="338" y="234" on="0"/>
        <pt x="295" y="234" on="0"/>
        <pt x="236" y="228" on="0"/>
        <pt x="205" y="216" on="1"/>
        <pt x="141" y="193" on="0"/>
        <pt x="141" y="114" on="1"/>
        <pt x="141" y="66" on="0"/>
        <pt x="187" y="8" on="0"/>
        <pt x="289" y="8" on="0"/>
        <pt x="348" y="100" on="0"/>
      </contour>
    </TTGlyph>
    <TTGlyph name="b" xMin="33" yMin="-20" xMax="514" yMax="703">
      <contour>
        <pt x="193" y="369" on="1"/>
        <pt x="199" y="369" on="1"/>
        <pt x="217" y="420" on="0"/>
        <pt x="288" y="480" on="0"/>
        <pt x="337" y="480" on="1"/>
        <pt x="427" y="480" on="0"/>
        <pt x="514" y="339" on="0"/>
        <pt x="514" y="123" on="0"/>
        <pt x="424" y="-20" on="0"/>
        <pt x="238" y="-20" on="0"/>
        <pt x="199" y="62" on="1"/>
        <pt x="193" y="62" on="1"/>
        <pt x="193" y="0" on="1"/>
        <pt x="38" y="0" on="1"/>
        <pt x="38" y="15" on="1"/>
        <pt x="104" y="15" on="1"/>
        <pt x="104" y="675" on="1"/>
        <pt x="33" y="675" on="1"/>
        <pt x="33" y="690" on="1"/>
        <pt x="54" y="690" on="1"/>
        <pt x="132" y="690" on="0"/>
        <pt x="193" y="703" on="1"/>
      </contour>
      <contour>
        <pt x="191" y="231" on="1"/>
        <pt x="191" y="195" on="1"/>
        <pt x="191" y="117" on="0"/>
        <pt x="251" y="8" on="0"/>
        <pt x="315" y="8" on="1"/>
        <pt x="384" y="8" on="0"/>
        <pt x="402" y="86" on="1"/>
        <pt x="417" y="149" on="0"/>
        <pt x="417" y="275" on="0"/>
        <pt x="410" y="341" on="0"/>
        <pt x="391" y="412" on="0"/>
        <pt x="346" y="452" on="0"/>
        <pt x="283" y="452" on="0"/>
        <pt x="234" y="407" on="0"/>
        <pt x="220" y="372" on="1"/>
        <pt x="191" y="301" on="0"/>
      </contour>
    </TTGlyph>
    <TTGlyph name="backslash" xMin="-51" yMin="-114" xMax="262" yMax="713">
      <contour>
        <pt x="-30" y="713" on="1"/>
        <pt x="262" y="-114" on="1"/>
        <pt x="240" y="-114" on="1"/>
        <pt x="-51" y="713" on="1"/>
      </contour>
    </TTGlyph>
    <TTGlyph name="bar" xMin="170" yMin="-205" xMax="192" yMax="719">
      <contour>
        <pt x="192" y="719" on="1"/>
        <pt x="192" y="-205" on="1"/>
        <pt x="170" y="-205" on="1"/>
        <pt x="170" y="719" on="1"/>
      </contour>
    </TTGlyph>
    <TTGlyph name="braceleft" xMin="0" yMin="-215" xMax="224" yMax="690">
      <contour>
        <pt x="117" y="227" on="0"/>
        <pt x="143" y="181" on="0"/>
        <pt x="143" y="117" on="0"/>
        <pt x="97" y="-12" on="0"/>
        <pt x="97" y="-62" on="1"/>
        <pt x="97" y="-175" on="0"/>
        <pt x="174" y="-194" on="1"/>
        <pt x="194" y="-199" on="0"/>
        <pt x="224" y="-199" on="1"/>
        <pt x="224" y="-215" on="1"/>
        <pt x="124" y="-215" on="0"/>
        <pt x="0" y="-119" on="0"/>
        <pt x="0" y="-25" on="1"/>
        <pt x="0" y="44" on="0"/>
        <pt x="40" y="85" on="1"/>
        <pt x="56" y="102" on="0"/>
        <pt x="72" y="116" on="1"/>
        <pt x="112" y="151" on="0"/>
        <pt x="112" y="180" on="1"/>
        <pt x="112" y="230" on="0"/>
        <pt x="37" y="230" on="1"/>
        <pt x="37" y="245" on="1"/>
        <pt x="112" y="245" on="0"/>
        <pt x="112" y="295" on="1"/>
        <pt x="112" y="330" on="0"/>
        <pt x="56" y="374" on="1"/>
        <pt x="35" y="390" on="0"/>
        <pt x="0" y="457" on="0"/>
        <pt x="0" y="501" on="1"/>
        <pt x="0" y="595" on="0"/>
        <pt x="124" y="690" on="0"/>
        <pt x="224" y="690" on="1"/>
        <pt x="224" y="674" on="1"/>
        <pt x="194" y="674" on="0"/>
        <pt x="174" y="669" on="1"/>
        <pt x="97" y="651" on="0"/>
        <pt x="97" y="543" on="1"/>
        <pt x="97" y="488" on="0"/>
        <pt x="143" y="358" on="0"/>
        <pt x="143" y="294" on="0"/>
        <pt x="117" y="248" on="0"/>
        <pt x="82" y="238" on="1"/>
        <pt x="82" y="237" on="1"/>
      </contour>
    </TTGlyph>
    <TTGlyph name="braceright" xMin="0" yMin="-215" xMax="224" yMax="690">
      <contour>
        <pt x="107" y="248" on="0"/>
        <pt x="81" y="294" on="0"/>
        <pt x="81" y="358" on="0"/>
        <pt x="127" y="487" on="0"/>
        <pt x="127" y="538" on="1"/>
        <pt x="127" y="650" on="0"/>
        <pt x="50" y="669" on="1"/>
        <pt x="30" y="674" on="0"/>
        <pt x="0" y="674" on="1"/>
        <pt x="0" y="690" on="1"/>
        <pt x="100" y="690" on="0"/>
        <pt x="224" y="594" on="0"/>
        <pt x="224" y="500" on="1"/>
        <pt x="224" y="431" on="0"/>
        <pt x="184" y="390" on="1"/>
        <pt x="168" y="373" on="0"/>
        <pt x="152" y="358" on="1"/>
        <pt x="112" y="324" on="0"/>
        <pt x="112" y="295" on="1"/>
        <pt x="112" y="245" on="0"/>
        <pt x="187" y="245" on="1"/>
        <pt x="187" y="230" on="1"/>
        <pt x="112" y="230" on="0"/>
        <pt x="112" y="180" on="1"/>
        <pt x="112" y="146" on="0"/>
        <pt x="168" y="102" on="1"/>
        <pt x="189" y="85" on="0"/>
        <pt x="224" y="18" on="0"/>
        <pt x="224" y="-26" on="1"/>
        <pt x="224" y="-120" on="0"/>
        <pt x="100" y="-215" on="0"/>
        <pt x="0" y="-215" on="1"/>
        <pt x="0" y="-199" on="1"/>
        <pt x="30" y="-199" on="0"/>
        <pt x="50" y="-194" on="1"/>
        <pt x="127" y="-176" on="0"/>
        <pt x="127" y="-68" on="1"/>
        <pt x="127" y="-13" on="0"/>
        <pt x="81" y="117" on="0"/>
        <pt x="81" y="181" on="0"/>
        <pt x="107" y="227" on="0"/>
        <pt x="142" y="237" on="1"/>
        <pt x="142" y="238" on="1"/>
      </contour>
    </TTGlyph>
    <TTGlyph name="bracketleft" xMin="86" yMin="-175" xMax="306" yMax="650">
      <contour>
        <pt x="306" y="650" on="1"/>
        <pt x="306" y="634" on="1"/>
        <pt x="190" y="634" on="1"/>
        <pt x="190" y="-159" on="1"/>
        <pt x="306" y="-159" on="1"/>
        <pt x="306" y="-175" on="1"/>
        <pt x="86" y="-175" on="1"/>
        <pt x="86" y="650" on="1"/>
      </contour>
    </TTGlyph>
    <TTGlyph name="bracketright" xMin="0" yMin="-175" xMax="220" yMax="650">
      <contour>
        <pt x="0" y="634" on="1"/>
        <pt x="0" y="650" on="1"/>
        <pt x="220" y="650" on="1"/>
        <pt x="220" y="-175" on="1"/>
        <pt x="0" y="-175" on="1"/>
        <pt x="0" y="-159" on="1"/>
        <pt x="116" y="-159" on="1"/>
        <pt x="116" y="634" on="1"/>
      </contour>
    </TTGlyph>
    <TTGlyph name="breve" xMin="51" yMin="531" xMax="243" yMax="625">
      <contour>
        <pt x="187" y="531" on="0"/>
        <pt x="107" y="531" on="0"/>
        <pt x="52" y="586" on="0"/>
        <pt x="51" y="625" on="1"/>
        <pt x="71" y="625" on="1"/>
        <pt x="73" y="594" on="0"/>
        <pt x="116" y="551" on="0"/>
        <pt x="178" y="551" on="0"/>
        <pt x="221" y="594" on="0"/>
        <pt x="223" y="625" on="1"/>
        <pt x="243" y="625" on="1"/>
        <pt x="242" y="586" on="0"/>
      </contour>
    </TTGlyph>
    <TTGlyph name="brokenbar" xMin="100" yMin="-120" xMax="122" yMax="719">
      <contour>
        <pt x="122" y="-120" on="1"/>
        <pt x="100" y="-120" on="1"/>
        <pt x="100" y="232" on="1"/>
        <pt x="122" y="232" on="1"/>
      </contour>
      <contour>
        <pt x="122" y="367" on="1"/>
        <pt x="100" y="367" on="1"/>
        <pt x="100" y="719" on="1"/>
        <pt x="122" y="719" on="1"/>
      </contour>
    </TTGlyph>
    <TTGlyph name="bullet" xMin="122" yMin="224" xMax="421" yMax="535">
      <contour>
        <pt x="122" y="444" on="0"/>
        <pt x="210" y="535" on="0"/>
        <pt x="331" y="535" on="0"/>
        <pt x="421" y="444" on="0"/>
        <pt x="421" y="314" on="0"/>
        <pt x="332" y="224" on="0"/>
        <pt x="209" y="224" on="0"/>
        <pt x="122" y="313" on="0"/>
      </contour>
    </TTGlyph>
    <TTGlyph name="c" xMin="56" yMin="-20" xMax="441" yMax="480">
      <contour>
        <pt x="289" y="460" on="1"/>
        <pt x="153" y="460" on="0"/>
        <pt x="153" y="8" on="0"/>
        <pt x="291" y="8" on="1"/>
        <pt x="343" y="8" on="0"/>
        <pt x="410" y="84" on="0"/>
        <pt x="423" y="144" on="1"/>
        <pt x="441" y="142" on="1"/>
        <pt x="426" y="69" on="0"/>
        <pt x="336" y="-20" on="0"/>
        <pt x="267" y="-20" on="1"/>
        <pt x="164" y="-20" on="0"/>
        <pt x="56" y="119" on="0"/>
        <pt x="56" y="345" on="0"/>
        <pt x="165" y="480" on="0"/>
        <pt x="273" y="480" on="1"/>
        <pt x="342" y="480" on="0"/>
        <pt x="428" y="420" on="0"/>
        <pt x="428" y="359" on="1"/>
        <pt x="428" y="329" on="0"/>
        <pt x="389" y="288" on="0"/>
        <pt x="336" y="288" on="0"/>
        <pt x="303" y="319" on="0"/>
        <pt x="303" y="364" on="0"/>
        <pt x="329" y="395" on="0"/>
        <pt x="351" y="395" on="1"/>
        <pt x="385" y="395" on="0"/>
        <pt x="391" y="369" on="1"/>
        <pt x="392" y="360" on="0"/>
        <pt x="409" y="360" on="0"/>
        <pt x="409" y="369" on="1"/>
        <pt x="409" y="403" on="0"/>
        <pt x="348" y="460" on="0"/>
      </contour>
    </TTGlyph>
    <TTGlyph name="c_h" xMin="91" yMin="-20" xMax="1057" yMax="703">
      <contour>
        <pt x="324" y="460" on="1"/>
        <pt x="188" y="460" on="0"/>
        <pt x="188" y="8" on="0"/>
        <pt x="326" y="8" on="1"/>
        <pt x="378" y="8" on="0"/>
        <pt x="445" y="84" on="0"/>
        <pt x="458" y="144" on="1"/>
        <pt x="476" y="142" on="1"/>
        <pt x="461" y="69" on="0"/>
        <pt x="371" y="-20" on="0"/>
        <pt x="302" y="-20" on="1"/>
        <pt x="199" y="-20" on="0"/>
        <pt x="91" y="119" on="0"/>
        <pt x="91" y="345" on="0"/>
        <pt x="200" y="480" on="0"/>
        <pt x="308" y="480" on="1"/>
        <pt x="377" y="480" on="0"/>
        <pt x="463" y="420" on="0"/>
        <pt x="463" y="359" on="1"/>
        <pt x="463" y="329" on="0"/>
        <pt x="424" y="288" on="0"/>
        <pt x="371" y="288" on="0"/>
        <pt x="338" y="319" on="0"/>
        <pt x="338" y="364" on="0"/>
        <pt x="364" y="395" on="0"/>
        <pt x="386" y="395" on="1"/>
        <pt x="420" y="395" on="0"/>
        <pt x="426" y="369" on="1"/>
        <pt x="428" y="360" on="0"/>
        <pt x="444" y="360" on="0"/>
        <pt x="444" y="369" on="1"/>
        <pt x="444" y="403" on="0"/>
        <pt x="383" y="460" on="0"/>
      </contour>
      <contour>
        <pt x="750" y="15" on="1"/>
        <pt x="750" y="0" on="1"/>
        <pt x="529" y="0" on="1"/>
        <pt x="529" y="15" on="1"/>
        <pt x="595" y="15" on="1"/>
        <pt x="595" y="675" on="1"/>
        <pt x="524" y="675" on="1"/>
        <pt x="524" y="690" on="1"/>
        <pt x="545" y="690" on="1"/>
        <pt x="624" y="690" on="0"/>
        <pt x="686" y="703" on="1"/>
        <pt x="686" y="373" on="1"/>
        <pt x="692" y="373" on="1"/>
        <pt x="709" y="421" on="0"/>
        <pt x="790" y="480" on="0"/>
        <pt x="840" y="480" on="1"/>
        <pt x="927" y="480" on="0"/>
        <pt x="991" y="377" on="0"/>
        <pt x="991" y="275" on="1"/>
        <pt x="991" y="15" on="1"/>
        <pt x="1057" y="15" on="1"/>
        <pt x="1057" y="0" on="1"/>
        <pt x="836" y="0" on="1"/>
        <pt x="836" y="15" on="1"/>
        <pt x="902" y="15" on="1"/>
        <pt x="902" y="261" on="1"/>
        <pt x="902" y="374" on="0"/>
        <pt x="885" y="410" on="1"/>
        <pt x="877" y="426" on="0"/>
        <pt x="844" y="452" on="0"/>
        <pt x="780" y="452" on="0"/>
        <pt x="723" y="406" on="0"/>
        <pt x="709" y="366" on="1"/>
        <pt x="684" y="295" on="0"/>
        <pt x="684" y="196" on="1"/>
        <pt x="684" y="15" on="1"/>
      </contour>
    </TTGlyph>
    <TTGlyph name="c_t" xMin="56" yMin="-20" xMax="786" yMax="793">
      <contour>
        <pt x="289" y="460" on="1"/>
        <pt x="153" y="460" on="0"/>
        <pt x="153" y="8" on="0"/>
        <pt x="291" y="8" on="1"/>
        <pt x="343" y="8" on="0"/>
        <pt x="410" y="84" on="0"/>
        <pt x="423" y="144" on="1"/>
        <pt x="441" y="142" on="1"/>
        <pt x="426" y="69" on="0"/>
        <pt x="336" y="-20" on="0"/>
        <pt x="267" y="-20" on="1"/>
        <pt x="164" y="-20" on="0"/>
        <pt x="56" y="119" on="0"/>
        <pt x="56" y="345" on="0"/>
        <pt x="165" y="480" on="0"/>
        <pt x="273" y="480" on="1"/>
        <pt x="292" y="480" on="0"/>
        <pt x="309" y="477" on="1"/>
        <pt x="237" y="534" on="0"/>
        <pt x="237" y="697" on="0"/>
        <pt x="372" y="793" on="0"/>
        <pt x="542" y="793" on="0"/>
        <pt x="656" y="682" on="0"/>
        <pt x="656" y="558" on="1"/>
        <pt x="656" y="460" on="1"/>
        <pt x="777" y="460" on="1"/>
        <pt x="777" y="445" on="1"/>
        <pt x="656" y="445" on="1"/>
        <pt x="656" y="105" on="1"/>
        <pt x="656" y="21" on="0"/>
        <pt x="668" y="12" on="1"/>
        <pt x="673" y="7" on="0"/>
        <pt x="683" y="7" on="1"/>
        <pt x="708" y="7" on="0"/>
        <pt x="755" y="65" on="0"/>
        <pt x="770" y="99" on="1"/>
        <pt x="786" y="93" on="1"/>
        <pt x="767" y="45" on="0"/>
        <pt x="703" y="-20" on="0"/>
        <pt x="661" y="-20" on="1"/>
        <pt x="602" y="-20" on="0"/>
        <pt x="567" y="51" on="0"/>
        <pt x="567" y="127" on="1"/>
        <pt x="567" y="445" on="1"/>
        <pt x="496" y="445" on="1"/>
        <pt x="496" y="460" on="1"/>
        <pt x="514" y="460" on="1"/>
        <pt x="568" y="460" on="0"/>
        <pt x="626" y="553" on="0"/>
        <pt x="626" y="693" on="0"/>
        <pt x="526" y="775" on="0"/>
        <pt x="377" y="775" on="0"/>
        <pt x="255" y="688" on="0"/>
        <pt x="255" y="621" on="1"/>
        <pt x="255" y="526" on="0"/>
        <pt x="366" y="461" on="1"/>
        <pt x="428" y="432" on="0"/>
        <pt x="428" y="359" on="1"/>
        <pt x="428" y="329" on="0"/>
        <pt x="389" y="288" on="0"/>
        <pt x="336" y="288" on="0"/>
        <pt x="303" y="319" on="0"/>
        <pt x="303" y="364" on="0"/>
        <pt x="329" y="395" on="0"/>
        <pt x="351" y="395" on="1"/>
        <pt x="385" y="395" on="0"/>
        <pt x="391" y="369" on="1"/>
        <pt x="392" y="360" on="0"/>
        <pt x="409" y="360" on="0"/>
        <pt x="409" y="369" on="1"/>
        <pt x="409" y="403" on="0"/>
        <pt x="348" y="460" on="0"/>
      </contour>
    </TTGlyph>
    <TTGlyph name="caron" xMin="0" yMin="519" xMax="374" yMax="680">
      <contour>
        <pt x="210" y="519" on="0"/>
        <pt x="164" y="519" on="0"/>
        <pt x="141" y="546" on="1"/>
        <pt x="137" y="554" on="0"/>
        <pt x="119" y="572" on="0"/>
        <pt x="104" y="590" on="0"/>
        <pt x="93" y="599" on="0"/>
        <pt x="75" y="616" on="0"/>
        <pt x="59" y="628" on="0"/>
        <pt x="48" y="636" on="1"/>
        <pt x="31" y="648" on="0"/>
        <pt x="0" y="665" on="1"/>
        <pt x="7" y="680" on="1"/>
        <pt x="187" y="596" on="1"/>
        <pt x="367" y="680" on="1"/>
        <pt x="374" y="665" on="1"/>
        <pt x="327" y="640" on="0"/>
        <pt x="288" y="606" on="0"/>
        <pt x="277" y="597" on="0"/>
        <pt x="257" y="574" on="0"/>
        <pt x="253" y="570" on="0"/>
        <pt x="243" y="558" on="1"/>
        <pt x="233" y="546" on="1"/>
      </contour>
    </TTGlyph>
    <TTGlyph name="ccedilla" xMin="56" yMin="-235" xMax="441" yMax="480">
      <contour>
        <pt x="182" y="-73" on="1"/>
        <pt x="216" y="-51" on="0"/>
        <pt x="284" y="-51" on="0"/>
        <pt x="344" y="-99" on="0"/>
        <pt x="344" y="-188" on="0"/>
        <pt x="295" y="-235" on="0"/>
        <pt x="227" y="-235" on="0"/>
        <pt x="186" y="-197" on="0"/>
        <pt x="186" y="-145" on="0"/>
        <pt x="217" y="-112" on="0"/>
        <pt x="262" y="-112" on="0"/>
        <pt x="293" y="-139" on="0"/>
        <pt x="293" y="-160" on="1"/>
        <pt x="293" y="-193" on="0"/>
        <pt x="267" y="-199" on="1"/>
        <pt x="258" y="-200" on="0"/>
        <pt x="258" y="-217" on="0"/>
        <pt x="268" y="-217" on="1"/>
        <pt x="291" y="-217" on="0"/>
        <pt x="326" y="-179" on="0"/>
        <pt x="326" y="-111" on="0"/>
        <pt x="277" y="-69" on="0"/>
        <pt x="226" y="-69" on="0"/>
        <pt x="180" y="-94" on="0"/>
        <pt x="168" y="-112" on="1"/>
        <pt x="154" y="-95" on="1"/>
        <pt x="187" y="-6" on="1"/>
        <pt x="123" y="17" on="0"/>
        <pt x="56" y="143" on="0"/>
        <pt x="56" y="230" on="1"/>
        <pt x="56" y="345" on="0"/>
        <pt x="165" y="480" on="0"/>
        <pt x="273" y="480" on="1"/>
        <pt x="342" y="480" on="0"/>
        <pt x="428" y="420" on="0"/>
        <pt x="428" y="359" on="1"/>
        <pt x="428" y="329" on="0"/>
        <pt x="389" y="288" on="0"/>
        <pt x="336" y="288" on="0"/>
        <pt x="303" y="319" on="0"/>
        <pt x="303" y="364" on="0"/>
        <pt x="329" y="395" on="0"/>
        <pt x="351" y="395" on="1"/>
        <pt x="385" y="395" on="0"/>
        <pt x="391" y="369" on="1"/>
        <pt x="392" y="360" on="0"/>
        <pt x="409" y="360" on="0"/>
        <pt x="409" y="369" on="1"/>
        <pt x="409" y="403" on="0"/>
        <pt x="348" y="460" on="0"/>
        <pt x="289" y="460" on="1"/>
        <pt x="153" y="460" on="0"/>
        <pt x="153" y="8" on="0"/>
        <pt x="291" y="8" on="1"/>
        <pt x="343" y="8" on="0"/>
        <pt x="410" y="84" on="0"/>
        <pt x="423" y="144" on="1"/>
        <pt x="441" y="142" on="1"/>
        <pt x="426" y="69" on="0"/>
        <pt x="336" y="-20" on="0"/>
        <pt x="267" y="-20" on="1"/>
        <pt x="235" y="-20" on="0"/>
        <pt x="205" y="-12" on="1"/>
      </contour>
    </TTGlyph>
    <TTGlyph name="cedilla" xMin="127" yMin="-235" xMax="317" yMax="0">
      <contour>
        <pt x="155" y="-73" on="1"/>
        <pt x="185" y="-51" on="0"/>
        <pt x="258" y="-51" on="0"/>
        <pt x="317" y="-99" on="0"/>
        <pt x="317" y="-188" on="0"/>
        <pt x="268" y="-235" on="0"/>
        <pt x="200" y="-235" on="0"/>
        <pt x="159" y="-197" on="0"/>
        <pt x="159" y="-145" on="0"/>
        <pt x="190" y="-112" on="0"/>
        <pt x="235" y="-112" on="0"/>
        <pt x="266" y="-139" on="0"/>
        <pt x="266" y="-160" on="1"/>
        <pt x="266" y="-193" on="0"/>
        <pt x="240" y="-199" on="1"/>
        <pt x="231" y="-200" on="0"/>
        <pt x="231" y="-217" on="0"/>
        <pt x="241" y="-217" on="1"/>
        <pt x="264" y="-217" on="0"/>
        <pt x="299" y="-179" on="0"/>
        <pt x="299" y="-111" on="0"/>
        <pt x="252" y="-69" on="0"/>
        <pt x="222" y="-69" on="1"/>
        <pt x="169" y="-69" on="0"/>
        <pt x="141" y="-112" on="1"/>
        <pt x="127" y="-95" on="1"/>
        <pt x="164" y="0" on="1"/>
        <pt x="184" y="0" on="1"/>
      </contour>
    </TTGlyph>
    <TTGlyph name="cent" xMin="56" yMin="-62" xMax="441" yMax="570">
      <contour>
        <pt x="289" y="-62" on="1"/>
        <pt x="269" y="-62" on="1"/>
        <pt x="269" y="23" on="1"/>
        <pt x="267" y="23" on="1"/>
        <pt x="168" y="23" on="0"/>
        <pt x="56" y="151" on="0"/>
        <pt x="56" y="356" on="0"/>
        <pt x="167" y="479" on="0"/>
        <pt x="269" y="480" on="1"/>
        <pt x="269" y="570" on="1"/>
        <pt x="289" y="570" on="1"/>
        <pt x="289" y="479" on="1"/>
        <pt x="351" y="476" on="0"/>
        <pt x="428" y="416" on="0"/>
        <pt x="428" y="359" on="1"/>
        <pt x="428" y="329" on="0"/>
        <pt x="389" y="288" on="0"/>
        <pt x="336" y="288" on="0"/>
        <pt x="303" y="319" on="0"/>
        <pt x="303" y="364" on="0"/>
        <pt x="329" y="395" on="0"/>
        <pt x="351" y="395" on="1"/>
        <pt x="385" y="395" on="0"/>
        <pt x="391" y="369" on="1"/>
        <pt x="392" y="360" on="0"/>
        <pt x="409" y="360" on="0"/>
        <pt x="409" y="369" on="1"/>
        <pt x="409" y="403" on="0"/>
        <pt x="348" y="460" on="0"/>
        <pt x="239" y="460" on="0"/>
        <pt x="176" y="400" on="0"/>
        <pt x="153" y="315" on="0"/>
        <pt x="153" y="258" on="1"/>
        <pt x="153" y="167" on="0"/>
        <pt x="217" y="51" on="0"/>
        <pt x="291" y="51" on="1"/>
        <pt x="343" y="51" on="0"/>
        <pt x="410" y="127" on="0"/>
        <pt x="423" y="187" on="1"/>
        <pt x="441" y="185" on="1"/>
        <pt x="427" y="117" on="0"/>
        <pt x="349" y="31" on="0"/>
        <pt x="289" y="24" on="1"/>
      </contour>
    </TTGlyph>
    <TTGlyph name="circumflex" xMin="0" yMin="519" xMax="374" yMax="680">
      <contour>
        <pt x="164" y="680" on="0"/>
        <pt x="210" y="680" on="0"/>
        <pt x="233" y="653" on="1"/>
        <pt x="237" y="645" on="0"/>
        <pt x="255" y="627" on="0"/>
        <pt x="270" y="609" on="0"/>
        <pt x="281" y="600" on="0"/>
        <pt x="299" y="583" on="0"/>
        <pt x="315" y="571" on="0"/>
        <pt x="326" y="563" on="1"/>
        <pt x="343" y="551" on="0"/>
        <pt x="374" y="534" on="1"/>
        <pt x="367" y="519" on="1"/>
        <pt x="187" y="603" on="1"/>
        <pt x="7" y="519" on="1"/>
        <pt x="0" y="534" on="1"/>
        <pt x="47" y="559" on="0"/>
        <pt x="86" y="593" on="0"/>
        <pt x="97" y="602" on="0"/>
        <pt x="117" y="625" on="0"/>
        <pt x="121" y="629" on="0"/>
        <pt x="131" y="641" on="1"/>
        <pt x="141" y="653" on="1"/>
      </contour>
    </TTGlyph>
    <TTGlyph name="colon" xMin="56" yMin="-9" xMax="173" yMax="471">
      <contour>
        <pt x="56" y="387" on="0"/>
        <pt x="56" y="437" on="0"/>
        <pt x="89" y="471" on="0"/>
        <pt x="139" y="471" on="0"/>
        <pt x="173" y="437" on="0"/>
        <pt x="173" y="387" on="0"/>
        <pt x="139" y="354" on="0"/>
        <pt x="89" y="354" on="0"/>
      </contour>
      <contour>
        <pt x="56" y="24" on="0"/>
        <pt x="56" y="74" on="0"/>
        <pt x="89" y="108" on="0"/>
        <pt x="139" y="108" on="0"/>
        <pt x="173" y="74" on="0"/>
        <pt x="173" y="24" on="0"/>
        <pt x="139" y="-9" on="0"/>
        <pt x="89" y="-9" on="0"/>
      </contour>
    </TTGlyph>
    <TTGlyph name="comma" xMin="38" yMin="-96" xMax="196" yMax="113">
      <contour>
        <pt x="196" y="29" on="1"/>
        <pt x="196" y="-46" on="0"/>
        <pt x="108" y="-96" on="1"/>
        <pt x="99" y="-81" on="1"/>
        <pt x="133" y="-62" on="0"/>
        <pt x="178" y="-4" on="0"/>
        <pt x="178" y="58" on="0"/>
        <pt x="143" y="94" on="0"/>
        <pt x="120" y="94" on="1"/>
        <pt x="110" y="94" on="0"/>
        <pt x="110" y="78" on="0"/>
        <pt x="119" y="76" on="1"/>
        <pt x="145" y="70" on="0"/>
        <pt x="145" y="38" on="1"/>
        <pt x="145" y="17" on="0"/>
        <pt x="114" y="-10" on="0"/>
        <pt x="69" y="-10" on="0"/>
        <pt x="38" y="23" on="0"/>
        <pt x="38" y="75" on="0"/>
        <pt x="79" y="113" on="0"/>
        <pt x="147" y="113" on="0"/>
        <pt x="196" y="67" on="0"/>
      </contour>
    </TTGlyph>
</ttFont>
